{"glyphs":{"0":{"ha":806,"x_min":0,"x_max":0,"o":"m 497 1008 b 615 982 544 1008 583 1000 b 695 910 648 964 674 940 b 740 803 716 879 731 844 b 754 674 750 762 754 719 b 744 524 754 626 751 576 b 712 367 737 471 726 419 b 657 218 697 315 679 265 b 576 93 635 171 608 129 b 469 7 545 57 509 28 b 332 -25 428 -14 383 -25 b 213 1 285 -25 245 -16 b 133 72 180 19 154 43 b 89 177 113 102 98 137 b 75 307 80 217 75 261 b 85 459 75 355 78 406 b 116 617 91 512 102 565 b 172 765 130 669 149 718 b 252 890 194 813 221 854 b 360 976 283 926 319 955 b 497 1008 400 998 446 1008 m 490 925 b 363 872 444 925 402 907 b 264 731 325 836 292 789 b 199 535 236 673 214 608 b 175 315 183 463 175 389 b 183 217 175 281 178 248 b 210 136 189 186 198 159 b 261 81 223 113 240 94 b 339 60 282 67 308 60 b 465 113 384 60 426 77 b 564 251 503 148 536 194 b 629 446 592 309 613 374 b 653 665 645 518 653 591 b 644 764 653 700 650 732 b 617 847 639 795 630 823 b 567 904 605 871 588 890 b 490 925 547 918 521 925 "},"1":{"ha":806,"x_min":0,"x_max":0,"o":"m 325 0 l 476 863 l 269 708 l 221 781 l 507 983 l 596 983 l 422 0 "},"2":{"ha":806,"x_min":0,"x_max":0,"o":"m 1 0 l 19 104 l 490 511 b 555 570 514 531 536 551 b 603 628 574 589 590 609 b 635 692 617 648 627 669 b 646 765 642 714 646 738 b 631 832 646 790 641 813 b 592 882 622 851 609 868 b 536 913 576 896 557 906 b 468 924 515 920 492 924 b 322 874 408 924 359 907 b 246 751 285 840 260 800 l 151 771 b 195 865 162 804 176 835 b 265 940 214 894 237 919 b 358 990 292 962 323 978 b 472 1008 392 1002 431 1008 b 574 994 507 1008 541 1003 b 662 949 607 984 636 969 b 723 876 687 929 708 905 b 746 774 738 847 746 813 b 732 670 746 734 741 699 b 692 589 723 641 709 614 b 630 517 675 564 654 540 b 546 442 605 494 577 469 l 131 88 l 646 88 l 631 0 "},"3":{"ha":806,"x_min":0,"x_max":0,"o":"m 364 557 b 559 610 447 557 512 575 b 629 774 606 646 629 700 b 581 885 629 822 613 859 b 463 924 548 911 509 924 b 344 893 419 924 379 913 b 258 803 308 873 280 843 l 178 849 b 467 1008 247 955 344 1008 b 567 994 502 1008 535 1003 b 650 949 598 984 626 969 b 708 876 674 929 693 905 b 729 774 722 847 729 813 b 717 690 729 745 725 717 b 678 616 708 663 695 639 b 610 556 660 593 638 573 b 514 515 583 539 551 525 l 514 513 b 576 486 536 507 557 498 b 628 441 596 474 613 459 b 663 379 643 423 654 402 b 675 306 671 356 675 331 b 651 174 675 258 667 214 b 581 69 634 133 611 98 b 472 0 551 40 515 17 b 329 -25 430 -17 382 -25 b 227 -11 293 -25 259 -20 b 140 28 195 -2 166 11 b 73 92 114 46 92 67 b 31 176 54 117 40 145 l 129 211 b 156 147 134 187 143 166 b 203 100 169 129 184 113 b 265 71 221 87 242 77 b 338 61 288 64 313 61 b 432 78 372 61 403 67 b 506 125 461 89 485 105 b 555 199 527 145 543 170 b 572 296 566 227 572 260 b 510 431 572 358 552 403 b 349 474 469 459 415 474 l 306 474 l 321 557 "},"4":{"ha":806,"x_min":0,"x_max":0,"o":"m 732 325 l 717 238 l 571 238 l 529 0 l 433 0 l 475 238 l 25 238 l 42 339 l 569 983 l 703 983 l 586 325 m 585 871 l 140 325 l 490 325 l 588 871 "},"5":{"ha":806,"x_min":0,"x_max":0,"o":"m 332 896 l 271 590 b 397 613 312 605 354 613 b 515 592 441 613 480 606 b 606 536 550 579 581 560 b 664 451 631 512 650 484 b 685 347 678 419 685 384 b 662 206 685 298 677 251 b 593 88 647 161 624 122 b 477 6 563 53 524 26 b 313 -25 430 -15 375 -25 b 133 26 241 -25 181 -8 b 32 154 84 59 50 102 l 124 194 b 195 97 137 154 160 121 b 314 61 230 73 269 61 b 429 82 357 61 396 68 b 513 138 463 96 490 115 b 563 222 535 162 552 190 b 581 328 575 255 581 290 b 524 477 581 389 562 439 b 369 535 486 516 434 535 b 258 519 334 535 297 530 b 157 479 218 509 185 496 l 257 983 l 733 983 l 718 896 "},"6":{"ha":806,"x_min":0,"x_max":0,"o":"m 304 551 b 364 578 322 563 342 571 b 435 588 386 584 410 588 b 542 569 474 588 509 581 b 626 515 574 556 602 538 b 681 433 649 492 668 465 b 701 326 695 401 701 365 b 675 184 701 275 693 227 b 601 73 657 141 633 104 b 488 1 569 42 531 18 b 343 -25 444 -16 396 -25 b 225 -3 300 -25 260 -18 b 133 56 190 11 159 31 b 74 146 107 82 88 112 b 53 256 60 180 53 217 b 88 398 53 304 64 351 b 192 554 111 445 145 497 l 539 983 l 660 983 l 301 554 m 153 253 b 166 177 153 226 157 201 b 204 115 175 153 188 133 b 265 73 221 98 241 84 b 346 57 289 62 316 57 b 451 77 385 57 420 64 b 533 133 483 91 510 109 b 585 216 555 156 573 184 b 603 318 597 248 603 282 b 590 392 603 344 599 369 b 554 453 582 415 570 435 b 496 494 538 470 519 484 b 417 510 473 505 446 510 b 312 490 379 510 344 503 b 228 436 280 477 252 459 b 173 354 205 413 186 386 b 153 253 159 323 153 289 "},"7":{"ha":806,"x_min":0,"x_max":0,"o":"m 215 0 l 99 0 l 672 896 l 192 896 l 207 983 l 790 983 l 774 892 "},"8":{"ha":806,"x_min":0,"x_max":0,"o":"m 538 518 b 650 444 583 505 620 481 b 694 311 680 408 694 364 b 665 165 694 256 684 207 b 585 59 645 122 618 87 b 471 -4 551 31 513 10 b 340 -25 428 -18 385 -25 b 230 -8 301 -25 265 -19 b 139 41 195 3 165 19 b 77 122 113 63 92 90 b 54 231 62 153 54 190 b 74 338 54 269 61 305 b 128 425 88 371 106 400 b 207 488 151 450 177 471 b 300 524 237 504 268 516 l 300 526 b 208 599 261 542 230 566 b 174 711 185 632 174 669 b 197 828 174 753 181 792 b 260 922 212 864 233 895 b 358 985 288 949 320 970 b 479 1008 395 1001 436 1008 b 583 993 516 1008 551 1003 b 665 948 615 983 642 968 b 718 875 687 928 705 904 b 738 776 731 846 738 813 b 722 687 738 744 732 714 b 678 613 711 659 697 635 b 615 557 660 591 639 573 b 538 521 591 541 565 529 l 538 518 m 269 718 b 280 658 269 697 273 677 b 311 608 287 640 297 623 b 361 574 325 594 342 582 b 428 561 381 565 403 561 b 516 581 460 561 490 568 b 583 630 542 594 565 610 b 626 694 602 650 616 671 b 640 761 635 718 640 740 b 595 883 640 815 625 856 b 472 925 565 911 524 925 b 391 908 443 925 416 919 b 327 862 366 896 345 881 b 285 796 309 843 295 821 b 269 718 275 771 269 745 m 156 236 b 206 108 156 183 172 141 b 342 60 239 76 284 60 b 449 78 381 60 417 66 b 528 131 480 91 506 108 b 577 208 549 153 566 179 b 594 306 589 238 594 270 b 581 374 594 330 590 352 b 544 429 572 395 560 413 b 485 466 528 445 508 457 b 411 479 463 475 438 479 b 310 460 375 479 341 473 b 229 409 279 448 252 431 b 175 332 206 387 188 362 b 156 236 162 302 156 270 "},"9":{"ha":806,"x_min":0,"x_max":0,"o":"m 535 432 b 475 406 517 421 497 412 b 404 396 453 399 429 396 b 297 415 365 396 329 402 b 212 468 264 427 235 445 b 157 551 188 491 170 519 b 138 657 144 583 138 618 b 164 799 138 709 146 756 b 238 910 181 842 206 879 b 351 983 270 941 308 966 b 496 1008 395 1000 443 1008 b 613 987 538 1008 578 1001 b 706 927 649 972 680 953 b 765 838 731 902 751 872 b 786 728 779 803 786 767 b 751 585 786 680 775 632 b 647 429 728 539 694 487 l 300 0 l 179 0 l 538 429 m 688 731 b 674 806 688 756 683 781 b 635 868 664 830 651 850 b 574 910 618 886 598 900 b 493 926 550 921 523 926 b 388 906 454 926 419 919 b 306 849 356 892 329 873 b 254 767 284 826 266 798 b 236 665 242 735 236 701 b 249 592 236 639 240 615 b 285 531 257 569 269 548 b 343 490 300 514 320 500 b 422 475 366 480 393 475 b 526 494 459 475 494 481 b 611 548 559 507 587 525 b 667 629 635 571 654 598 b 688 731 681 661 688 694 "},"\u0000":{"ha":694,"x_min":0,"x_max":0,"o":""},"\r":{"ha":0,"x_min":0,"x_max":0,"o":""}," ":{"ha":347,"x_min":0,"x_max":0,"o":""},"!":{"ha":386,"x_min":0,"x_max":0,"o":"m 115 267 l 242 983 l 342 983 l 215 267 m 213 68 b 191 15 213 48 205 30 b 138 -8 177 -1 159 -8 b 85 11 117 -8 100 -2 b 64 64 71 24 64 42 b 87 119 64 86 72 105 b 140 142 102 134 120 142 b 192 122 161 142 178 135 b 213 68 206 109 213 91 "},"\"":{"ha":556,"x_min":0,"x_max":0,"o":"m 303 983 l 244 657 l 161 657 l 219 983 m 504 983 l 446 657 l 363 657 l 421 983 "},"#":{"ha":772,"x_min":0,"x_max":0,"o":"m 26 297 l 40 381 l 193 381 l 264 606 l 114 606 l 128 689 l 290 689 l 383 983 l 468 983 l 375 689 l 560 689 l 653 983 l 738 983 l 644 689 l 769 689 l 756 606 l 618 606 l 547 381 l 679 381 l 665 297 l 522 297 l 428 0 l 343 0 l 438 297 l 253 297 l 158 0 l 74 0 l 168 297 m 463 381 l 533 606 l 349 606 l 278 381 "},"$":{"ha":806,"x_min":0,"x_max":0,"o":"m 274 -117 l 292 -17 b 137 24 237 -13 185 1 b 24 126 88 48 50 82 l 110 181 b 185 103 126 151 152 125 b 306 67 219 82 259 69 l 375 463 b 292 499 346 473 319 485 b 219 549 265 513 241 529 b 168 617 198 568 181 591 b 149 710 155 644 149 675 b 170 820 149 749 156 785 b 233 911 184 855 205 885 b 333 974 260 937 294 958 b 471 1001 373 989 419 999 l 488 1100 l 546 1100 l 528 1000 b 667 963 581 997 627 985 b 761 885 706 941 738 915 l 678 826 b 614 886 664 849 643 869 b 514 915 585 904 552 913 l 447 535 b 529 497 475 524 502 511 b 602 447 556 483 580 466 b 655 377 624 427 641 403 b 675 283 668 351 675 319 b 658 185 675 252 669 219 b 603 90 647 150 629 119 b 502 16 577 60 543 36 b 349 -18 461 -4 410 -15 l 332 -117 m 365 67 b 449 85 396 68 424 74 b 515 128 475 96 497 110 b 559 192 534 147 548 168 b 575 271 570 217 575 243 b 532 377 575 315 561 351 b 429 443 503 403 469 425 l 365 67 m 456 917 b 379 901 430 915 404 910 b 313 865 354 893 332 881 b 265 806 293 850 277 830 b 247 721 253 781 247 753 b 287 618 247 676 260 642 b 392 556 313 594 348 573 l 456 917 "},"%":{"ha":1157,"x_min":0,"x_max":0,"o":"m 293 518 b 208 533 263 518 234 523 b 140 574 181 542 159 556 b 97 636 122 591 107 612 b 81 717 86 660 81 687 b 101 826 81 756 87 792 b 157 916 114 861 133 891 b 243 977 181 941 210 962 b 353 1000 276 992 313 1000 b 439 985 384 1000 413 995 b 506 945 465 976 487 962 b 549 883 524 928 538 907 b 564 803 559 858 564 831 b 544 692 564 764 557 727 b 488 601 530 658 512 627 b 402 540 463 575 435 555 b 293 518 369 525 333 518 m 479 796 b 444 890 479 834 468 865 b 347 928 421 915 389 928 b 276 912 321 928 297 922 b 219 868 254 901 235 887 b 181 803 203 850 190 828 b 168 725 172 779 168 753 b 203 631 168 687 180 656 b 299 594 226 607 258 594 b 371 610 325 594 349 600 b 428 654 393 621 412 636 b 466 718 445 673 457 694 b 479 796 475 742 479 768 m 833 -14 b 748 1 803 -14 774 -9 b 681 42 722 10 699 24 b 637 104 662 59 647 80 b 621 185 626 128 621 155 b 641 294 621 224 628 260 b 697 384 654 329 673 359 b 783 445 721 409 750 430 b 893 468 817 460 853 468 b 979 453 925 468 953 463 b 1046 413 1005 444 1027 430 b 1089 351 1064 396 1079 375 b 1104 271 1099 326 1104 300 b 1084 160 1104 232 1097 195 b 1028 69 1071 126 1052 95 b 942 8 1004 44 975 23 b 833 -14 909 -6 873 -14 m 1019 264 b 985 358 1019 302 1008 333 b 888 396 962 383 929 396 b 816 380 862 396 838 391 b 759 336 794 369 775 355 b 722 272 743 318 730 296 b 708 193 713 247 708 221 b 743 99 708 155 720 124 b 839 63 766 75 798 62 b 911 78 865 63 889 68 b 969 122 933 89 953 104 b 1006 186 985 141 997 162 b 1019 264 1015 210 1019 236 m 153 -6 l 961 1026 l 1022 989 l 215 -43 "},"&":{"ha":978,"x_min":0,"x_max":0,"o":"m 710 800 b 689 711 710 768 703 738 b 633 637 675 684 656 659 b 549 574 609 614 581 593 b 447 524 517 555 483 538 l 632 290 l 806 532 l 921 532 l 688 225 l 868 0 l 742 0 l 629 146 b 482 23 581 90 532 49 b 315 -17 432 -3 376 -17 b 201 -1 274 -17 236 -12 b 113 44 167 9 138 24 b 54 121 88 65 68 90 b 33 228 40 151 33 187 b 60 343 33 270 42 309 b 129 433 78 377 101 407 b 221 501 157 459 188 482 b 317 549 254 520 286 536 b 260 647 293 578 274 611 b 240 754 247 683 240 719 b 258 856 240 791 246 825 b 309 937 270 887 287 914 b 387 990 331 959 357 977 b 486 1008 417 1002 450 1008 b 647 954 552 1008 606 990 b 710 800 689 918 710 867 m 361 483 b 278 442 332 471 305 458 b 207 389 251 427 227 409 b 158 319 187 369 170 345 b 139 231 145 294 139 264 b 192 110 139 179 156 138 b 321 67 227 81 270 67 b 455 103 371 67 416 79 b 574 211 494 127 534 163 l 361 483 m 613 793 b 579 891 613 834 601 866 b 486 928 557 916 526 928 b 374 881 440 928 403 912 b 332 761 346 849 332 809 b 354 663 332 727 339 694 b 404 585 369 631 386 605 b 485 624 433 597 460 610 b 551 671 511 639 533 654 b 596 726 570 688 585 706 b 613 793 607 747 613 769 "},"'":{"ha":354,"x_min":0,"x_max":0,"o":"m 303 983 l 244 657 l 161 657 l 219 983 "},"(":{"ha":417,"x_min":0,"x_max":0,"o":"m 115 232 b 140 7 115 151 124 76 b 211 -181 157 -62 181 -125 l 139 -219 b 55 -16 104 -163 76 -95 b 24 232 34 63 24 146 b 49 457 24 309 32 384 b 119 668 66 530 90 600 b 224 858 149 736 184 799 b 353 1021 263 918 306 972 l 417 975 b 298 818 374 928 334 875 b 202 637 261 761 229 700 b 138 439 175 573 153 507 b 115 232 123 370 115 301 "},")":{"ha":417,"x_min":0,"x_max":0,"o":"m 293 568 b 268 793 293 649 285 724 b 197 981 251 863 228 925 l 269 1019 b 353 816 305 963 333 895 b 385 568 374 737 385 654 b 359 343 385 491 376 416 b 289 132 342 270 319 200 b 184 -58 259 64 224 1 b 56 -221 144 -118 101 -172 l -8 -175 b 110 -18 34 -128 74 -75 b 206 163 147 39 179 100 b 270 361 234 227 255 293 b 293 568 285 430 293 499 "},"*":{"ha":617,"x_min":0,"x_max":0,"o":"m 589 844 l 614 775 l 411 713 l 540 536 l 482 492 l 350 672 l 218 492 l 160 536 l 289 713 l 86 775 l 111 844 l 311 782 l 311 983 l 389 983 l 389 782 "},"+":{"ha":925,"x_min":0,"x_max":0,"o":"m 817 463 l 817 379 l 504 379 l 504 67 l 421 67 l 421 379 l 108 379 l 108 463 l 421 463 l 421 775 l 504 775 l 504 463 "},",":{"ha":361,"x_min":0,"x_max":0,"o":"m -47 -194 l 104 132 l 203 132 l 32 -194 "},"-":{"ha":444,"x_min":0,"x_max":0,"o":"m 44 297 l 58 376 l 369 376 l 356 297 "},".":{"ha":361,"x_min":0,"x_max":0,"o":"m 182 68 b 160 15 182 48 175 30 b 107 -8 146 -1 128 -8 b 55 11 87 -8 69 -2 b 33 64 41 24 33 42 b 56 119 33 86 41 105 b 110 142 72 134 89 142 b 161 122 130 142 147 135 b 182 68 175 109 182 91 "},"/":{"ha":514,"x_min":0,"x_max":0,"o":"m -68 1 l 531 1008 l 604 981 l 8 -25 "},":":{"ha":417,"x_min":0,"x_max":0,"o":"m 218 68 b 197 15 218 48 211 30 b 143 -8 182 -1 164 -8 b 91 11 123 -8 105 -2 b 69 64 77 24 69 42 b 92 119 69 86 77 105 b 146 142 108 134 125 142 b 197 122 166 142 183 135 b 218 68 211 109 218 91 m 299 585 b 277 531 299 564 291 547 b 224 508 263 516 245 508 b 172 528 203 508 186 515 b 150 581 157 541 150 558 b 173 636 150 603 158 621 b 226 658 188 651 206 658 b 278 639 247 658 264 652 b 299 585 292 626 299 608 "},";":{"ha":417,"x_min":0,"x_max":0,"o":"m -29 -194 l 122 132 l 225 132 l 54 -194 m 299 585 b 277 531 299 564 291 547 b 224 508 263 516 245 508 b 172 528 203 508 186 515 b 150 581 157 541 150 558 b 173 636 150 603 158 621 b 226 658 188 651 206 658 b 278 639 247 658 264 652 b 299 585 292 626 299 608 "},"<":{"ha":925,"x_min":0,"x_max":0,"o":"m 221 421 l 817 142 l 817 58 l 108 389 l 108 453 l 817 783 l 817 700 "},"=":{"ha":925,"x_min":0,"x_max":0,"o":"m 817 483 l 108 483 l 108 567 l 817 567 m 817 275 l 108 275 l 108 358 l 817 358 "},">":{"ha":925,"x_min":0,"x_max":0,"o":"m 817 453 l 817 389 l 108 58 l 108 142 l 704 421 l 108 700 l 108 783 "},"?":{"ha":669,"x_min":0,"x_max":0,"o":"m 258 267 l 272 350 b 324 477 281 403 299 445 b 411 563 350 509 379 538 l 457 597 b 541 676 491 624 519 650 b 574 776 563 702 574 736 b 533 876 574 818 560 851 b 429 914 506 901 472 914 b 290 867 370 914 324 898 b 225 751 257 835 235 797 l 135 768 b 176 865 143 804 157 836 b 243 938 195 893 217 917 b 329 984 269 958 298 973 b 428 1000 361 995 394 1000 b 524 987 462 1000 494 996 b 601 946 553 978 579 964 b 654 876 624 927 641 904 b 674 779 667 849 674 816 b 661 699 674 750 669 723 b 626 633 653 675 641 653 b 574 576 612 613 594 594 b 508 525 553 559 531 542 b 450 481 486 509 467 495 b 408 438 433 468 419 453 b 378 388 396 423 386 406 b 361 322 371 369 365 347 l 353 267 m 364 68 b 342 15 364 48 357 30 b 289 -8 328 -1 310 -8 b 237 11 269 -8 251 -2 b 215 64 222 24 215 42 b 238 119 215 86 223 105 b 292 142 253 134 271 142 b 343 122 312 142 329 135 b 364 68 357 109 364 91 "},"@":{"ha":1111,"x_min":0,"x_max":0,"o":"m 617 679 b 539 658 590 679 564 672 b 472 601 514 644 492 625 b 426 515 453 576 437 547 b 408 407 414 482 408 446 b 413 369 408 394 410 381 b 426 335 415 356 420 345 b 453 312 433 326 442 318 b 499 303 465 306 480 303 b 583 328 529 303 557 311 b 651 393 609 344 632 366 b 695 482 670 420 684 450 b 711 579 706 514 711 547 b 691 649 711 606 704 629 b 617 679 678 669 653 679 m 975 138 b 767 15 911 82 842 41 b 528 -25 693 -12 613 -25 b 331 7 455 -25 389 -14 b 182 97 272 28 223 58 b 88 233 141 135 110 180 b 56 403 66 285 56 342 b 100 638 56 486 70 564 b 225 830 130 711 171 775 b 417 960 279 885 343 928 b 660 1008 491 992 572 1008 b 828 983 720 1008 776 1000 b 965 908 881 966 926 941 b 1056 787 1003 875 1033 834 b 1089 624 1078 739 1089 685 b 1071 480 1089 575 1083 528 b 1016 351 1059 432 1041 389 b 923 258 991 312 960 281 b 792 222 885 234 842 222 b 737 231 771 222 753 225 b 697 253 721 236 707 244 b 676 286 687 263 680 274 b 675 325 672 298 671 311 l 669 325 b 640 290 662 314 652 302 b 599 257 628 278 614 267 b 547 232 583 247 566 238 b 486 222 528 225 507 222 b 350 272 424 222 379 239 b 307 401 321 306 307 349 b 326 514 307 435 313 472 b 384 632 338 556 358 595 b 484 725 410 669 444 700 b 626 763 524 750 572 763 b 718 738 662 763 692 754 b 765 679 744 722 760 702 l 771 679 l 796 742 l 882 742 l 781 483 b 771 458 778 477 775 468 b 760 424 767 447 763 436 b 750 388 756 412 753 400 b 746 361 747 377 746 368 b 761 316 746 342 751 327 b 813 300 771 305 788 300 b 890 328 841 300 867 309 b 949 402 913 347 933 372 b 987 501 966 432 978 465 b 1000 607 996 538 1000 573 b 975 741 1000 657 992 702 b 904 841 958 780 935 814 b 794 903 874 868 837 889 b 654 925 752 918 705 925 b 456 885 583 925 517 912 b 298 774 396 858 343 821 b 192 607 253 726 218 671 b 154 401 167 543 154 475 b 181 260 154 350 163 302 b 258 151 199 217 225 181 b 379 81 292 121 332 97 b 538 56 426 64 479 56 b 756 94 619 56 692 68 b 935 201 819 119 879 155 l 975 138 "},"A":{"ha":965,"x_min":0,"x_max":0,"o":"m -71 0 l 563 983 l 660 983 l 864 0 l 760 0 l 707 258 l 204 258 l 43 0 m 692 350 l 589 872 l 261 350 "},"B":{"ha":861,"x_min":0,"x_max":0,"o":"m 513 983 b 615 972 547 983 581 980 b 706 935 648 965 679 953 b 773 869 734 918 756 896 b 799 768 790 841 799 808 b 739 605 799 702 779 648 b 582 517 699 562 647 532 l 582 514 b 714 447 636 506 680 483 b 765 304 748 410 765 363 b 734 172 765 254 755 210 b 647 77 713 134 684 103 b 515 19 610 52 566 32 b 346 0 463 6 407 0 l 56 0 l 229 983 m 453 553 b 535 563 479 553 506 556 b 613 595 563 569 590 580 b 672 655 637 610 656 630 b 694 747 687 679 694 710 b 678 816 694 774 689 797 b 635 863 668 835 653 851 b 569 890 616 876 594 885 b 486 899 543 896 516 899 l 313 899 l 251 553 m 356 85 b 472 97 395 85 434 89 b 570 135 509 104 542 117 b 638 204 598 152 621 175 b 664 308 655 233 664 268 b 606 428 664 359 645 399 b 442 471 568 456 513 471 l 238 471 l 169 85 "},"C":{"ha":1000,"x_min":0,"x_max":0,"o":"m 915 156 b 847 85 896 131 873 107 b 759 28 821 64 792 45 b 651 -10 726 12 690 -1 b 522 -25 611 -20 569 -25 b 342 6 456 -25 397 -15 b 203 92 288 26 242 55 b 113 225 164 129 134 173 b 81 397 91 277 81 334 b 126 636 81 482 96 562 b 252 830 157 710 199 775 b 439 960 305 885 368 928 b 668 1008 510 992 587 1008 b 773 997 704 1008 739 1005 b 867 966 807 990 838 979 b 944 917 895 953 921 936 b 999 851 966 897 985 875 l 908 792 b 876 839 901 807 890 823 b 824 881 861 855 844 869 b 753 911 803 894 780 904 b 665 922 727 919 698 922 b 472 878 595 922 530 908 b 320 763 413 849 362 811 b 222 599 278 716 245 661 b 186 407 198 537 186 473 b 208 272 186 359 194 314 b 274 162 223 229 245 193 b 381 88 303 131 339 106 b 528 61 423 70 472 61 b 697 97 587 61 644 73 b 842 208 751 120 799 157 l 915 156 "},"D":{"ha":1051,"x_min":0,"x_max":0,"o":"m 526 983 b 692 960 582 983 637 976 b 839 888 746 945 795 921 b 944 760 882 855 918 813 b 985 572 971 708 985 645 b 940 338 985 486 970 408 b 814 157 909 267 868 207 b 624 41 760 107 697 68 b 385 0 550 14 471 0 l 56 0 l 229 983 m 392 88 b 602 128 471 88 541 101 b 755 234 663 155 714 190 b 848 385 796 278 827 328 b 879 561 869 442 879 501 b 857 690 879 606 872 650 b 789 797 842 731 819 767 b 672 869 758 828 719 852 b 504 896 625 887 569 896 l 313 896 l 169 88 "},"E":{"ha":806,"x_min":0,"x_max":0,"o":"m 697 88 l 682 0 l 56 0 l 229 983 l 819 983 l 804 896 l 313 896 l 253 554 l 722 554 l 707 469 l 238 469 l 169 88 "},"F":{"ha":764,"x_min":0,"x_max":0,"o":"m 56 0 l 229 983 l 808 983 l 793 896 l 313 896 l 251 553 l 697 553 l 683 468 l 238 468 l 154 0 "},"G":{"ha":1069,"x_min":0,"x_max":0,"o":"m 528 61 b 685 79 584 61 637 67 b 807 128 733 91 774 107 l 860 429 l 628 429 l 643 514 l 972 514 l 894 71 b 714 -3 835 37 775 12 b 522 -25 653 -18 589 -25 b 342 6 456 -25 397 -15 b 203 92 288 26 242 55 b 113 225 164 129 134 173 b 81 397 91 277 81 334 b 126 636 81 482 96 562 b 252 830 157 710 199 775 b 439 960 305 885 368 928 b 668 1008 510 992 587 1008 b 773 997 704 1008 739 1005 b 867 966 807 990 838 979 b 944 917 895 953 921 936 b 999 851 966 897 985 875 l 908 792 b 876 839 901 807 890 823 b 824 881 861 855 844 869 b 753 911 803 894 780 904 b 665 922 727 919 698 922 b 472 878 595 922 530 908 b 320 763 413 849 362 811 b 222 599 278 716 245 661 b 186 407 198 537 186 473 b 208 272 186 359 194 314 b 274 162 223 229 245 193 b 381 88 303 131 339 106 b 528 61 423 70 472 61 "},"H":{"ha":983,"x_min":0,"x_max":0,"o":"m 328 983 l 251 556 l 775 556 l 851 983 l 950 983 l 776 0 l 678 0 l 760 467 l 236 467 l 154 0 l 56 0 l 229 983 "},"I":{"ha":361,"x_min":0,"x_max":0,"o":"m 56 0 l 229 983 l 328 983 l 154 0 "},"J":{"ha":669,"x_min":0,"x_max":0,"o":"m 74 194 b 119 100 80 157 95 126 b 222 61 144 74 178 61 b 311 81 258 61 288 68 b 369 132 334 94 353 111 b 403 205 384 153 396 178 b 424 290 411 232 418 261 l 546 983 l 644 983 l 521 283 b 497 181 515 251 507 217 b 449 81 487 144 471 111 b 364 5 428 50 399 25 b 228 -25 329 -15 283 -25 b 131 -10 192 -25 159 -20 b 58 32 102 0 78 14 b 10 93 38 50 22 70 b -14 167 -2 116 -10 141 l 74 194 "},"K":{"ha":813,"x_min":0,"x_max":0,"o":"m 251 542 l 751 983 l 896 983 l 358 528 l 769 0 l 640 0 l 247 524 l 246 524 l 154 0 l 56 0 l 229 983 l 328 983 l 250 542 "},"L":{"ha":708,"x_min":0,"x_max":0,"o":"m 628 88 l 614 0 l 56 0 l 229 983 l 328 983 l 168 88 "},"M":{"ha":1231,"x_min":0,"x_max":0,"o":"m 567 169 l 1043 983 l 1194 983 l 1021 0 l 922 0 l 1072 850 l 1069 850 l 564 0 l 511 0 l 306 850 l 303 850 l 153 0 l 56 0 l 229 983 l 379 983 l 565 169 "},"N":{"ha":1042,"x_min":0,"x_max":0,"o":"m 761 140 l 910 983 l 1008 983 l 835 0 l 711 0 l 308 854 l 306 854 l 156 0 l 57 0 l 231 983 l 354 983 l 758 140 "},"O":{"ha":1158,"x_min":0,"x_max":0,"o":"m 518 -25 b 342 6 454 -25 395 -15 b 203 92 288 26 242 55 b 113 225 164 129 134 173 b 81 397 91 277 81 334 b 125 635 81 481 95 561 b 247 830 155 710 195 775 b 428 960 298 885 359 928 b 654 1008 498 992 574 1008 b 831 978 718 1008 777 998 b 969 893 884 959 930 930 b 1059 760 1007 856 1037 812 b 1092 589 1081 709 1092 652 b 1049 351 1092 505 1077 425 b 929 156 1020 276 980 211 b 747 24 878 100 818 56 b 518 -25 677 -9 600 -25 m 986 579 b 964 713 986 626 979 671 b 899 822 949 754 928 791 b 794 895 871 853 836 877 b 650 922 752 913 704 922 b 460 878 581 922 517 908 b 313 763 402 849 353 811 b 219 597 273 714 242 659 b 186 406 197 535 186 471 b 208 272 186 358 193 314 b 272 162 222 229 244 193 b 378 88 301 131 336 106 b 522 61 419 70 468 61 b 710 104 591 61 653 75 b 857 219 767 133 816 171 b 952 385 898 268 929 323 b 986 579 975 448 986 513 "},"P":{"ha":806,"x_min":0,"x_max":0,"o":"m 492 983 b 715 921 588 983 663 963 b 794 747 768 879 794 821 b 767 621 794 699 785 657 b 690 530 748 585 722 554 b 572 475 657 505 617 487 b 421 457 526 463 475 457 l 235 457 l 154 0 l 56 0 l 229 983 m 429 539 b 624 589 513 539 578 556 b 694 736 671 622 694 671 b 638 863 694 796 675 838 b 483 899 600 887 548 899 l 313 899 l 249 539 "},"Q":{"ha":1161,"x_min":0,"x_max":0,"o":"m 985 571 b 963 710 985 621 977 667 b 897 821 948 752 926 789 b 790 895 867 852 832 877 b 646 922 747 913 700 922 b 456 879 576 922 513 908 b 311 765 399 850 351 813 b 219 605 271 718 241 665 b 186 422 197 545 186 484 b 283 174 186 316 218 233 b 547 85 347 114 435 85 b 713 124 605 85 660 98 b 852 228 765 150 812 184 b 949 383 892 272 925 324 b 985 571 973 441 985 504 m 1090 589 b 1067 422 1090 530 1083 474 b 1003 279 1052 369 1031 322 b 908 167 976 237 944 199 b 792 90 872 135 833 110 l 790 88 l 1078 88 l 1063 0 l 542 0 b 364 25 479 0 419 8 b 218 100 308 42 260 67 b 119 227 176 133 144 176 b 83 408 95 278 83 339 b 126 642 83 492 98 570 b 245 833 155 715 195 778 b 425 961 296 887 356 930 b 650 1008 494 993 569 1008 b 826 978 714 1008 773 998 b 966 893 880 959 927 930 b 1058 760 1005 856 1036 812 b 1090 589 1079 709 1090 652 "},"R":{"ha":832,"x_min":0,"x_max":0,"o":"m 56 0 l 229 983 l 494 983 b 615 969 538 983 578 979 b 712 926 652 960 684 946 b 776 853 739 907 760 882 b 799 749 791 823 799 788 b 776 631 799 703 791 664 b 715 547 762 597 741 569 b 622 493 688 524 657 506 b 510 468 587 480 550 472 l 726 0 l 614 0 l 408 460 l 235 460 l 154 0 m 425 543 b 524 551 458 543 491 546 b 611 579 556 556 585 565 b 674 638 637 593 658 613 b 699 738 691 664 699 697 b 640 858 699 791 679 831 b 479 899 601 885 548 899 l 313 899 l 250 543 "},"S":{"ha":783,"x_min":0,"x_max":0,"o":"m 682 831 b 606 896 664 856 639 878 b 489 922 572 913 533 922 b 403 910 460 922 431 918 b 325 874 374 903 348 891 b 269 813 302 858 283 838 b 247 725 254 789 247 759 b 261 658 247 699 252 677 b 299 610 270 640 283 624 b 356 574 316 596 334 584 b 426 544 378 563 401 554 b 514 507 455 533 484 521 b 594 456 544 493 570 476 b 653 384 619 435 638 411 b 675 288 668 357 675 325 b 657 183 675 254 669 219 b 597 81 645 146 625 112 b 488 5 569 50 533 25 b 319 -25 442 -15 386 -25 b 146 12 259 -25 201 -13 b 18 121 90 36 48 73 l 107 178 b 190 95 125 145 153 118 b 324 61 227 72 272 61 b 419 76 357 61 389 66 b 498 117 449 85 475 99 b 551 183 521 135 538 157 b 571 269 564 209 571 238 b 554 342 571 297 565 321 b 509 394 543 362 528 380 b 444 433 490 409 468 422 b 365 465 419 444 393 455 b 283 501 338 475 310 488 b 213 551 256 515 233 532 b 163 620 192 571 176 594 b 144 713 151 647 144 677 b 168 829 144 754 152 793 b 236 923 184 865 206 897 b 346 985 266 949 302 970 b 494 1008 389 1001 439 1008 b 665 976 561 1008 618 997 b 767 892 711 954 745 926 l 682 831 "},"T":{"ha":760,"x_min":0,"x_max":0,"o":"m 249 0 l 407 896 l 78 896 l 93 983 l 851 983 l 836 896 l 506 896 l 347 0 "},"U":{"ha":986,"x_min":0,"x_max":0,"o":"m 432 -25 b 281 1 373 -25 322 -16 b 181 70 240 19 206 42 b 124 166 155 98 136 130 b 107 274 113 202 107 238 b 115 367 107 306 110 337 l 224 983 l 322 983 l 215 378 b 207 293 210 348 207 320 b 219 204 207 262 211 232 b 258 131 227 176 240 152 b 328 80 276 109 299 92 b 438 61 358 67 394 61 b 570 87 489 61 534 70 b 662 156 607 104 637 127 b 720 258 686 185 706 219 b 753 378 734 296 745 336 l 860 983 l 958 983 l 850 367 b 813 237 843 326 830 283 b 740 110 796 191 772 149 b 617 13 708 71 667 39 b 432 -25 567 -12 505 -25 "},"V":{"ha":833,"x_min":0,"x_max":0,"o":"m 343 129 l 843 983 l 953 983 l 368 0 l 265 0 l 107 983 l 213 983 l 340 129 "},"W":{"ha":1333,"x_min":0,"x_max":0,"o":"m 306 138 l 715 983 l 835 983 l 917 138 l 919 138 l 1324 983 l 1429 983 l 950 0 l 833 0 l 754 847 l 751 847 l 336 0 l 219 0 l 118 983 l 224 983 l 303 138 "},"X":{"ha":858,"x_min":0,"x_max":0,"o":"m 797 983 l 928 983 l 499 506 l 751 0 l 632 0 l 425 435 l 46 0 l -90 0 l 375 517 l 140 983 l 260 983 l 449 586 "},"Y":{"ha":774,"x_min":0,"x_max":0,"o":"m 244 0 l 319 424 l 69 983 l 186 983 l 382 506 l 775 983 l 899 983 l 418 424 l 343 0 "},"Z":{"ha":794,"x_min":0,"x_max":0,"o":"m 110 88 l 692 88 l 676 0 l -35 0 l -19 83 l 701 896 l 149 896 l 164 983 l 844 983 l 829 900 "},"[":{"ha":417,"x_min":0,"x_max":0,"o":"m 264 942 l 72 -142 l 206 -142 l 192 -217 l -33 -217 l 185 1017 l 410 1017 l 397 942 "},"\\":{"ha":514,"x_min":0,"x_max":0,"o":"m 86 1008 l 507 1 l 426 -25 l 7 981 "},"]":{"ha":417,"x_min":0,"x_max":0,"o":"m 144 -142 l 336 942 l 203 942 l 215 1017 l 440 1017 l 222 -217 l -3 -217 l 11 -142 "},"^":{"ha":925,"x_min":0,"x_max":0,"o":"m 496 983 l 814 382 l 728 382 l 463 883 l 197 382 l 111 382 l 429 983 "},"_":{"ha":694,"x_min":0,"x_max":0,"o":"m 694 -104 l 694 -174 l 0 -174 l 0 -104 "},"`":{"ha":333,"x_min":0,"x_max":0,"o":"m 154 983 l 293 783 l 215 783 l 32 983 "},"a":{"ha":742,"x_min":0,"x_max":0,"o":"m 532 399 b 538 435 535 414 537 427 b 539 460 538 444 539 452 b 499 560 539 507 525 540 b 386 589 472 579 434 589 b 274 566 347 589 310 581 b 183 511 238 551 207 532 l 142 574 b 258 641 173 601 212 624 b 396 667 305 658 350 667 b 484 656 426 667 456 663 b 558 623 512 649 537 638 b 608 565 578 608 595 588 b 626 479 620 541 626 513 b 625 445 626 471 626 459 b 621 410 624 431 623 419 l 574 146 b 563 68 569 121 565 95 b 558 0 560 41 558 19 l 475 0 b 477 51 475 16 476 33 b 483 106 478 70 481 88 l 481 106 b 425 51 462 84 444 66 b 367 14 406 35 387 23 b 303 -6 347 5 326 -2 b 229 -12 281 -10 256 -12 b 161 -4 207 -12 184 -10 b 98 24 138 1 117 11 b 51 76 79 38 63 55 b 32 156 38 98 32 124 b 76 281 32 207 47 249 b 192 355 106 313 145 338 b 353 390 240 372 294 384 b 532 399 412 396 472 399 m 497 328 b 369 322 456 328 413 326 b 251 298 326 317 286 309 b 163 249 215 286 186 270 b 129 167 141 228 129 201 b 140 116 129 146 133 129 b 170 84 148 103 158 92 b 213 67 183 76 197 71 b 263 63 229 64 246 63 b 354 79 296 63 326 68 b 428 125 382 90 406 106 b 481 192 449 144 467 167 b 510 274 494 218 504 245 l 519 328 l 497 328 "},"b":{"ha":872,"x_min":0,"x_max":0,"o":"m 147 0 l 54 0 l 240 1050 l 333 1050 l 243 544 l 246 544 b 286 592 256 561 269 577 b 342 631 303 606 322 619 b 410 657 363 642 386 650 b 485 667 434 663 459 667 b 605 647 529 667 569 660 b 697 589 641 633 671 614 b 757 500 723 564 743 534 b 778 386 771 466 778 428 b 749 229 778 331 768 278 b 669 101 729 180 703 137 b 548 15 635 65 595 37 b 396 -17 501 -6 450 -17 b 327 -8 373 -17 350 -14 b 263 16 304 -3 283 5 b 208 56 242 27 224 40 b 169 110 191 71 179 89 l 167 110 m 681 381 b 667 462 681 409 676 436 b 628 528 659 487 645 509 b 564 573 610 547 589 562 b 476 589 539 584 510 589 b 363 564 436 589 398 581 b 271 495 327 547 297 524 b 210 394 245 466 225 432 b 188 272 195 355 188 315 b 202 188 188 242 192 214 b 244 122 212 163 226 141 b 310 78 263 103 285 88 b 397 63 336 68 365 63 b 513 88 440 63 478 71 b 603 156 548 104 578 127 b 660 256 628 184 647 218 b 681 381 674 295 681 336 "},"c":{"ha":694,"x_min":0,"x_max":0,"o":"m 592 503 b 534 565 581 528 561 548 b 440 589 507 581 475 589 b 325 564 399 589 360 581 b 234 495 290 547 259 524 b 174 394 209 466 189 432 b 153 271 160 355 153 314 b 167 188 153 241 157 214 b 208 122 176 163 190 141 b 274 78 226 104 248 89 b 363 63 300 68 329 63 b 472 86 404 63 441 70 b 554 147 504 102 531 122 l 614 96 b 501 14 581 62 543 34 b 356 -17 460 -6 411 -17 b 231 3 309 -17 268 -10 b 135 60 194 17 162 36 b 75 149 109 85 89 114 b 54 263 61 183 54 221 b 82 419 54 318 63 370 b 160 548 100 469 127 511 b 283 635 194 584 235 613 b 443 667 331 656 385 667 b 578 640 491 667 536 658 b 674 557 621 623 652 595 l 592 503 "},"d":{"ha":864,"x_min":0,"x_max":0,"o":"m 47 264 b 76 421 47 319 57 372 b 156 549 95 470 121 513 b 277 635 190 585 230 613 b 429 667 324 656 375 667 b 562 635 476 667 521 656 b 656 540 603 613 634 582 l 658 540 l 749 1050 l 842 1050 l 656 0 l 563 0 l 582 107 l 579 107 b 483 20 558 74 526 45 b 340 -17 441 -4 393 -17 b 220 3 296 -17 256 -10 b 128 61 184 17 154 36 b 68 150 102 86 82 116 b 47 264 54 184 47 222 m 144 271 b 158 189 144 241 149 214 b 197 123 166 164 180 142 b 261 78 215 104 236 89 b 349 63 286 68 315 63 b 463 88 389 63 427 71 b 554 156 498 104 528 127 b 615 257 580 185 600 219 b 638 379 630 295 638 336 b 623 463 638 410 633 438 b 581 530 613 489 599 511 b 514 574 562 549 540 563 b 428 589 488 584 459 589 b 312 564 385 589 347 581 b 222 496 277 547 247 525 b 165 395 197 467 178 434 b 144 271 151 357 144 315 "},"e":{"ha":786,"x_min":0,"x_max":0,"o":"m 144 300 b 142 284 144 294 143 289 b 142 269 142 279 142 274 b 158 186 142 239 147 211 b 202 121 168 161 183 139 b 269 78 221 102 243 88 b 351 63 294 68 322 63 b 485 97 402 63 447 74 b 576 176 523 119 553 146 l 635 121 b 503 18 597 75 553 41 b 343 -17 453 -5 400 -17 b 226 3 301 -17 263 -10 b 133 58 190 16 159 34 b 70 148 106 82 85 112 b 47 269 55 184 47 224 b 76 421 47 322 57 373 b 156 547 96 469 122 511 b 276 634 190 583 230 612 b 424 667 322 656 371 667 b 626 596 513 667 580 643 b 694 413 672 549 694 488 b 692 362 694 401 694 384 b 682 300 690 339 687 319 l 144 300 m 599 369 b 601 394 600 377 600 385 b 601 418 601 403 601 411 b 556 541 601 468 586 509 b 421 589 525 573 480 589 b 326 572 387 589 355 583 b 248 524 297 560 271 544 b 190 453 225 503 206 480 b 157 369 175 427 163 399 l 599 369 "},"f":{"ha":410,"x_min":0,"x_max":0,"o":"m 272 572 l 172 0 l 79 0 l 179 572 l 42 572 l 57 650 l 192 650 l 222 826 b 249 919 228 859 237 890 b 297 995 261 948 277 973 b 368 1047 316 1017 340 1034 b 465 1067 396 1060 428 1067 b 503 1065 477 1067 490 1066 b 542 1057 516 1063 529 1061 l 519 975 b 454 983 500 981 478 983 b 397 971 432 983 413 979 b 356 935 380 963 367 951 b 330 882 346 920 337 902 b 314 817 323 862 318 840 l 285 650 l 440 650 l 425 572 "},"g":{"ha":871,"x_min":0,"x_max":0,"o":"m 57 -136 b 155 -219 80 -169 113 -197 b 293 -251 197 -241 243 -251 b 413 -231 339 -251 379 -245 b 496 -176 446 -218 474 -199 b 549 -94 518 -152 536 -125 b 578 6 562 -63 571 -30 l 601 129 l 599 129 b 490 33 569 88 533 56 b 351 0 448 11 401 0 b 231 22 307 0 267 7 b 140 82 196 36 165 56 b 83 172 115 108 96 138 b 63 285 69 206 63 244 b 91 433 63 337 72 387 b 170 555 110 480 136 520 b 290 637 204 590 244 617 b 442 667 337 657 387 667 b 511 658 465 667 488 664 b 576 633 534 653 556 644 b 629 592 596 622 613 609 b 667 538 645 576 657 558 l 669 538 l 690 650 l 782 650 l 668 6 b 639 -107 662 -30 652 -67 b 578 -217 626 -147 606 -183 b 469 -300 551 -250 515 -278 b 293 -333 424 -322 365 -333 b 119 -299 229 -333 171 -322 b -6 -203 68 -275 26 -244 l 57 -136 m 158 283 b 172 204 158 256 163 229 b 213 138 181 179 195 157 b 278 94 230 119 252 104 b 367 78 304 83 333 78 b 481 102 408 78 447 86 b 571 168 516 118 546 140 b 629 265 596 196 615 228 b 650 381 643 301 650 340 b 635 462 650 409 645 436 b 594 528 626 487 612 509 b 528 572 576 546 554 561 b 440 589 502 583 473 589 b 326 567 399 589 360 581 b 237 505 291 552 261 531 b 179 408 212 478 193 446 b 158 283 165 370 158 329 "},"h":{"ha":801,"x_min":0,"x_max":0,"o":"m 461 667 b 624 613 531 667 585 649 b 683 468 664 578 683 529 b 681 435 683 457 683 446 b 676 399 680 424 678 412 l 606 0 l 513 0 l 576 360 b 585 442 582 388 585 416 b 552 549 585 487 574 523 b 438 589 530 576 492 589 b 363 574 413 589 388 584 b 293 526 338 563 314 548 b 237 447 272 505 253 478 b 201 333 221 415 209 377 l 143 0 l 50 0 l 235 1050 l 328 1050 l 239 543 l 242 543 b 336 633 266 581 297 611 b 461 667 375 656 417 667 "},"i":{"ha":347,"x_min":0,"x_max":0,"o":"m 51 0 l 167 650 l 260 650 l 144 0 m 315 901 b 297 854 315 883 309 867 b 250 835 284 841 269 835 b 205 851 232 835 217 840 b 186 897 192 863 186 878 b 206 946 186 917 193 933 b 253 965 220 959 235 965 b 297 948 270 965 285 959 b 315 901 309 936 315 921 "},"j":{"ha":349,"x_min":0,"x_max":0,"o":"m -137 -244 b -109 -251 -129 -247 -120 -249 b -79 -253 -98 -252 -88 -253 b -31 -242 -60 -253 -44 -249 b 1 -214 -18 -235 -7 -226 b 21 -170 10 -202 16 -187 b 33 -114 25 -153 30 -134 l 168 650 l 261 650 l 124 -129 b 105 -205 119 -155 113 -180 b 71 -270 97 -229 86 -251 b 13 -316 56 -289 37 -304 b -79 -333 -12 -328 -42 -333 b -117 -331 -89 -333 -102 -333 b -157 -324 -133 -330 -146 -327 l -137 -244 m 315 901 b 297 854 315 883 309 867 b 250 835 284 841 269 835 b 205 851 232 835 217 840 b 186 897 192 863 186 878 b 206 946 186 917 193 933 b 253 965 220 959 235 965 b 297 948 270 965 285 959 b 315 901 309 936 315 921 "},"k":{"ha":676,"x_min":0,"x_max":0,"o":"m 213 357 l 544 650 l 674 650 l 317 349 l 614 0 l 492 0 l 210 342 l 206 342 l 147 0 l 53 0 l 238 1050 l 331 1050 l 208 357 "},"l":{"ha":350,"x_min":0,"x_max":0,"o":"m 53 0 l 238 1050 l 332 1050 l 147 0 "},"m":{"ha":1214,"x_min":0,"x_max":0,"o":"m 872 667 b 1037 613 943 667 997 649 b 1096 468 1076 578 1096 529 b 1094 435 1096 457 1095 446 b 1089 399 1092 424 1091 412 l 1018 0 l 925 0 l 989 360 b 997 442 994 388 997 416 b 965 549 997 487 987 523 b 853 589 944 576 906 589 b 765 568 819 589 789 582 b 702 513 740 554 719 536 b 662 435 685 489 672 463 b 639 346 652 406 644 376 l 578 0 l 485 0 l 553 378 b 561 463 558 408 561 437 b 533 555 561 501 552 532 b 432 589 514 578 480 589 b 363 574 410 589 387 584 b 294 526 338 563 316 548 b 238 447 273 505 254 478 b 201 333 221 415 209 377 l 143 0 l 50 0 l 139 507 b 151 575 143 525 147 547 b 160 650 155 603 158 628 l 249 650 b 242 592 247 632 244 613 b 233 539 239 570 236 553 l 236 539 b 333 633 263 579 295 610 b 461 667 371 655 414 667 b 516 661 479 667 497 665 b 570 640 535 657 553 650 b 615 597 587 629 602 615 b 643 529 628 580 638 557 b 739 631 668 574 700 608 b 872 667 778 655 822 667 "},"n":{"ha":801,"x_min":0,"x_max":0,"o":"m 250 650 b 243 592 248 632 246 613 b 235 539 240 570 238 553 l 238 539 b 334 633 263 579 295 610 b 460 667 373 655 415 667 b 624 613 530 667 585 649 b 683 468 664 578 683 529 b 681 435 683 457 683 446 b 676 399 680 424 678 412 l 606 0 l 513 0 l 576 360 b 585 442 582 388 585 416 b 553 549 585 487 574 523 b 440 589 531 576 494 589 b 365 574 415 589 390 584 b 295 526 340 563 317 548 b 238 447 273 505 254 478 b 201 333 221 415 209 377 l 143 0 l 50 0 l 139 507 b 151 575 143 525 147 547 b 160 650 155 603 158 628 l 250 650 "},"o":{"ha":828,"x_min":0,"x_max":0,"o":"m 347 -17 b 226 4 304 -17 263 -10 b 131 62 189 18 158 37 b 69 151 105 86 84 116 b 47 265 55 185 47 224 b 76 420 47 320 57 372 b 156 548 95 469 121 511 b 278 635 190 584 231 613 b 433 667 325 656 377 667 b 555 647 478 667 518 660 b 649 589 591 633 623 614 b 711 500 676 564 696 534 b 733 386 726 466 733 428 b 705 229 733 331 724 278 b 625 101 686 180 659 137 b 503 15 591 65 550 37 b 347 -17 456 -6 404 -17 m 636 381 b 622 463 636 410 631 438 b 581 529 613 489 599 511 b 515 573 563 548 541 562 b 428 589 489 584 460 589 b 315 563 387 589 350 580 b 226 494 281 546 251 523 b 167 392 201 465 182 431 b 146 271 153 354 146 313 b 160 188 146 241 150 214 b 201 122 169 163 183 141 b 266 78 219 104 241 89 b 353 63 291 68 320 63 b 467 88 394 63 433 71 b 557 157 502 105 532 128 b 615 258 582 186 601 219 b 636 381 629 296 636 337 "},"p":{"ha":872,"x_min":0,"x_max":0,"o":"m 246 544 b 286 592 256 561 269 577 b 342 631 303 606 322 619 b 410 657 363 642 386 650 b 485 667 434 663 459 667 b 605 647 529 667 569 660 b 697 589 641 633 671 614 b 757 500 723 564 743 534 b 778 386 771 466 778 428 b 749 229 778 331 768 278 b 669 101 729 180 703 137 b 548 15 635 65 595 37 b 396 -17 501 -6 450 -17 b 263 15 349 -17 304 -6 b 169 110 222 37 191 68 l 167 110 l 88 -333 l -6 -333 l 169 650 l 263 650 l 243 544 l 246 544 m 681 381 b 667 462 681 409 676 436 b 628 528 659 487 645 509 b 564 573 610 547 589 562 b 476 589 539 584 510 589 b 363 564 436 589 398 581 b 271 495 327 547 297 524 b 210 394 245 466 225 432 b 188 272 195 355 188 315 b 202 188 188 242 192 214 b 244 122 212 163 226 141 b 310 78 263 103 285 88 b 397 63 336 68 365 63 b 513 88 440 63 478 71 b 603 156 548 104 578 127 b 660 256 628 184 647 218 b 681 381 674 295 681 336 "},"q":{"ha":861,"x_min":0,"x_max":0,"o":"m 47 264 b 76 421 47 319 57 372 b 156 549 95 470 121 513 b 277 635 190 585 230 613 b 429 667 324 656 375 667 b 562 635 476 667 521 656 b 656 540 603 613 634 582 l 658 540 l 678 650 l 771 650 l 597 -333 l 504 -333 l 582 106 l 579 106 b 539 58 569 89 556 73 b 483 19 522 44 503 31 b 415 -7 462 8 439 0 b 340 -17 391 -13 366 -17 b 220 3 296 -17 256 -10 b 128 61 184 17 154 36 b 68 150 102 86 82 116 b 47 264 54 184 47 222 m 144 271 b 158 189 144 241 149 214 b 197 123 166 164 180 142 b 261 78 215 104 236 89 b 349 63 286 68 315 63 b 463 88 389 63 427 71 b 554 156 498 104 528 127 b 615 257 580 185 600 219 b 638 379 630 295 638 336 b 623 463 638 410 633 438 b 581 530 613 489 599 511 b 514 574 562 549 540 563 b 428 589 488 584 459 589 b 312 564 385 589 347 581 b 222 496 277 547 247 525 b 165 395 197 467 178 434 b 144 271 151 357 144 315 "},"r":{"ha":483,"x_min":0,"x_max":0,"o":"m 139 507 b 151 575 143 525 147 547 b 160 650 155 603 158 628 l 249 650 b 242 592 247 632 244 613 b 233 539 239 570 236 553 l 236 539 b 328 631 260 577 291 608 b 453 667 365 655 406 667 b 485 665 465 667 475 666 b 514 660 494 664 504 663 l 492 571 b 466 576 487 573 478 575 b 428 579 453 578 441 579 b 354 565 403 579 378 575 b 288 522 330 556 308 541 b 235 445 268 502 251 476 b 201 333 220 414 209 377 l 143 0 l 50 0 l 139 507 l 139 507 "},"s":{"ha":617,"x_min":0,"x_max":0,"o":"m 492 507 b 433 566 479 531 459 551 b 340 589 407 581 376 589 b 288 583 324 589 306 587 b 238 565 270 580 253 574 b 201 533 223 557 210 546 b 186 483 191 519 186 503 b 195 440 186 466 189 451 b 221 412 201 429 210 420 b 261 391 232 404 245 397 b 315 374 277 385 295 379 b 461 303 379 355 428 332 b 511 183 494 275 511 235 b 488 92 511 148 503 118 b 428 30 472 67 452 46 b 347 -6 404 14 377 2 b 260 -17 318 -13 288 -17 b 106 14 205 -17 154 -6 b -6 107 59 34 21 65 l 75 160 b 146 91 91 133 114 110 b 256 63 177 72 214 63 b 315 69 276 63 296 65 b 367 88 335 73 352 79 b 404 123 383 97 395 109 b 418 174 413 137 418 154 b 377 252 418 208 404 234 b 260 304 350 270 311 288 b 201 326 240 311 221 318 b 149 359 182 335 164 346 b 110 408 133 372 120 389 b 96 476 101 427 96 450 b 119 563 96 510 103 538 b 177 622 134 587 153 606 b 257 656 201 637 227 648 b 346 667 287 663 316 667 b 480 638 396 667 441 657 b 565 560 519 618 548 592 l 492 507 "},"t":{"ha":426,"x_min":0,"x_max":0,"o":"m 244 572 l 176 192 b 172 147 174 175 172 160 b 194 86 172 117 180 96 b 253 71 209 76 229 71 b 296 76 266 71 280 73 b 332 92 312 80 324 85 l 321 11 b 274 -3 309 5 293 0 b 214 -8 255 -7 235 -8 b 166 -3 198 -8 182 -6 b 122 17 150 1 135 8 b 88 57 108 27 97 40 b 75 121 79 74 75 95 b 79 165 75 134 76 149 l 151 572 l 17 572 l 32 650 l 164 650 l 196 833 l 289 833 l 257 650 l 436 650 l 421 572 "},"u":{"ha":801,"x_min":0,"x_max":0,"o":"m 506 0 b 513 58 507 18 510 37 b 521 111 515 80 518 97 l 518 111 b 422 17 493 71 461 40 b 296 -17 382 -5 340 -17 b 131 37 225 -17 171 1 b 72 182 92 72 72 121 b 74 215 72 193 73 204 b 79 251 76 226 77 238 l 150 650 l 243 650 l 179 290 b 171 208 174 261 171 233 b 203 101 171 163 181 127 b 315 63 224 75 262 62 b 390 78 340 63 365 68 b 460 124 415 88 439 103 b 518 203 482 145 501 172 b 554 317 535 235 547 273 l 613 650 l 706 650 l 617 143 b 605 75 613 125 609 103 b 596 0 601 47 598 22 l 506 0 "},"v":{"ha":664,"x_min":0,"x_max":0,"o":"m 185 0 l 49 650 l 144 650 l 249 100 l 251 100 l 575 650 l 676 650 l 285 0 "},"w":{"ha":1018,"x_min":0,"x_max":0,"o":"m 214 122 l 217 122 l 492 650 l 581 650 l 657 122 l 661 122 l 921 650 l 1021 650 l 689 0 l 589 0 l 515 526 l 513 526 l 242 0 l 143 0 l 72 650 l 169 650 "},"x":{"ha":660,"x_min":0,"x_max":0,"o":"m 299 276 l 39 0 l -76 0 l 257 343 l 94 650 l 194 650 l 321 394 l 558 650 l 671 650 l 363 332 l 546 0 l 438 0 "},"y":{"ha":671,"x_min":0,"x_max":0,"o":"m 265 103 l 582 650 l 686 650 l 194 -168 b 100 -288 164 -218 132 -258 b -21 -333 68 -318 27 -333 b -100 -325 -48 -333 -74 -331 l -86 -239 b -25 -250 -66 -246 -45 -250 b 52 -220 5 -250 30 -240 b 117 -135 74 -200 95 -172 l 197 1 l 61 650 l 158 650 l 263 103 "},"z":{"ha":614,"x_min":0,"x_max":0,"o":"m 107 82 l 510 82 l 496 0 l -32 0 l -21 67 l 456 571 l 88 571 l 103 650 l 597 650 l 585 583 "},"{":{"ha":417,"x_min":0,"x_max":0,"o":"m 3 442 b 92 482 39 442 69 455 b 140 596 115 509 131 547 l 183 843 b 210 925 189 875 198 903 b 253 978 223 947 237 965 b 306 1008 269 992 286 1002 b 364 1017 325 1014 344 1017 l 451 1017 l 439 942 l 372 942 b 329 931 356 942 341 938 b 300 904 317 924 307 915 b 283 867 293 893 287 881 b 272 826 278 853 275 839 l 229 579 b 199 495 223 546 213 518 b 154 441 185 472 170 454 b 108 412 138 428 123 418 b 74 401 94 406 82 402 l 74 399 b 99 390 80 398 89 395 b 131 367 110 386 121 378 b 158 327 142 357 151 343 b 169 265 166 311 169 290 b 165 221 169 252 168 238 l 122 -26 b 118 -71 119 -40 118 -55 b 131 -121 118 -90 122 -107 b 181 -142 139 -135 156 -142 l 247 -142 l 233 -217 l 146 -217 b 58 -190 112 -217 82 -208 b 22 -94 34 -172 22 -140 b 24 -71 22 -87 23 -79 b 28 -43 25 -62 26 -53 l 71 204 b 75 254 74 222 75 238 b 53 331 75 288 68 313 b -12 358 39 349 17 358 l 3 442 "},"|":{"ha":308,"x_min":0,"x_max":0,"o":"m 196 -347 l 113 -347 l 113 1042 l 196 1042 "},"}":{"ha":417,"x_min":0,"x_max":0,"o":"m 404 358 b 315 318 368 358 338 345 b 268 204 292 291 276 253 l 225 -43 b 198 -125 219 -75 210 -103 b 155 -178 185 -147 171 -165 b 101 -208 139 -192 121 -202 b 43 -217 82 -214 63 -217 l -44 -217 l -31 -142 l 36 -142 b 78 -131 53 -142 67 -138 b 108 -104 90 -124 100 -115 b 126 -67 116 -93 122 -81 b 136 -26 130 -53 133 -39 l 179 221 b 208 305 185 254 194 282 b 253 359 222 328 237 346 b 300 388 270 372 285 382 b 335 399 315 394 326 398 l 335 401 b 308 410 327 402 318 405 b 276 432 297 414 287 422 b 250 472 266 442 257 456 b 239 533 243 489 239 509 b 243 579 239 547 240 563 l 286 826 b 290 871 289 840 290 855 b 278 921 290 890 286 907 b 228 942 269 935 253 942 l 161 942 l 174 1017 l 261 1017 b 349 990 295 1017 325 1008 b 386 894 374 972 386 940 b 385 870 386 887 386 879 b 381 843 384 861 382 852 l 338 596 b 332 543 334 578 332 561 b 419 442 332 475 361 442 l 404 358 l 404 358 "},"~":{"ha":925,"x_min":0,"x_max":0,"o":"m 801 456 b 769 410 792 441 781 426 b 726 369 756 395 742 381 b 674 338 711 356 693 346 b 613 326 655 330 635 326 b 576 328 600 326 587 327 b 540 336 564 330 552 332 b 503 351 528 340 516 345 b 458 376 490 358 475 366 b 383 418 430 395 405 409 b 315 432 362 427 339 432 b 271 422 300 432 285 429 b 233 398 257 416 244 408 b 204 365 222 388 213 377 b 182 331 196 353 188 342 l 124 386 b 158 431 134 401 145 416 b 199 473 170 447 184 460 b 251 503 215 485 232 496 b 313 515 270 511 290 515 b 387 505 338 515 363 512 b 465 467 410 498 437 485 b 540 425 492 449 517 435 b 608 410 563 415 586 410 b 653 419 624 410 639 413 b 690 444 667 426 679 434 b 720 478 701 455 711 466 b 743 511 729 490 737 501 l 801 456 "}," ":{"ha":347,"x_min":0,"x_max":0,"o":""},"¡":{"ha":386,"x_min":0,"x_max":0,"o":"m 235 400 l 108 -317 l 8 -317 l 135 400 m 138 599 b 159 652 138 619 145 637 b 213 675 173 667 191 675 b 265 656 233 675 250 669 b 286 603 279 643 286 625 b 263 547 286 581 278 562 b 210 525 248 532 230 525 b 158 544 189 525 172 531 b 138 599 144 557 138 575 "},"¢":{"ha":806,"x_min":0,"x_max":0,"o":"m 336 -11 b 165 80 264 1 207 31 b 103 263 124 128 103 189 b 128 412 103 315 111 365 b 199 536 144 459 168 500 b 310 624 229 572 266 602 b 456 665 353 647 402 661 l 471 750 l 538 750 l 522 665 b 640 633 565 662 604 651 b 722 557 676 616 704 590 l 640 503 b 590 560 630 525 613 544 b 510 588 567 575 540 585 l 417 63 b 523 88 456 63 492 72 b 603 147 554 103 581 123 l 663 96 b 549 14 629 62 591 34 b 403 -17 507 -6 458 -17 l 388 -100 l 321 -100 l 336 -11 m 443 586 b 344 551 407 581 374 570 b 268 481 315 533 289 509 b 219 383 247 452 230 419 b 201 271 207 347 201 310 b 240 140 201 221 214 177 b 353 69 265 103 303 80 l 443 586 "},"£":{"ha":806,"x_min":0,"x_max":0,"o":"m 331 468 l 264 82 l 629 82 l 614 0 l 8 0 l 24 82 l 165 82 l 232 468 l 99 468 l 114 549 l 244 549 l 267 678 b 297 789 273 713 283 750 b 353 896 310 828 329 863 b 445 976 377 928 408 955 b 585 1008 483 998 529 1008 b 698 988 625 1008 663 1002 b 785 932 733 975 762 956 l 725 861 b 666 907 709 880 690 895 b 582 925 642 919 614 925 b 481 897 540 925 506 916 b 417 830 455 879 434 856 b 381 747 401 803 389 776 b 364 669 373 717 368 692 l 343 549 l 579 549 l 564 468 "},"€":{"ha":806,"x_min":0,"x_max":0,"o":"m 776 879 b 701 910 755 893 730 903 b 615 921 673 917 644 921 b 499 899 574 921 535 913 b 401 839 463 884 430 864 b 323 753 372 814 346 785 b 267 651 300 720 281 687 l 683 651 l 644 575 l 239 575 b 226 535 234 564 230 551 b 217 490 223 520 219 505 b 210 444 214 474 212 459 b 207 406 208 430 207 417 l 564 406 l 526 329 l 206 329 b 224 219 206 288 212 252 b 278 135 237 187 255 159 b 365 81 302 112 331 94 b 479 63 398 69 437 63 b 574 76 512 63 543 67 b 668 118 605 84 637 99 l 694 40 b 460 -25 626 -3 548 -25 b 306 5 401 -25 350 -15 b 194 84 261 25 224 51 b 128 197 165 117 143 155 b 106 329 113 240 106 284 l 0 329 l 40 406 l 108 406 b 111 438 108 414 109 425 b 118 480 113 450 115 465 b 128 528 121 495 124 511 b 140 575 131 544 136 560 l 44 575 l 86 651 l 165 651 b 241 794 185 702 210 750 b 347 907 272 838 307 875 b 478 981 387 938 431 963 b 626 1008 525 999 575 1008 b 737 997 665 1008 702 1004 b 825 964 772 989 801 978 l 776 879 l 776 879 "},"¥":{"ha":806,"x_min":0,"x_max":0,"o":"m 363 458 l 133 458 l 144 531 l 357 531 l 136 983 l 243 983 l 429 567 l 757 983 l 876 983 l 499 531 l 697 531 l 686 458 l 454 458 l 426 310 l 658 310 l 647 238 l 415 238 l 372 0 l 281 0 l 324 238 l 94 238 l 106 310 l 335 310 "},"Š":{"ha":783,"x_min":0,"x_max":0,"o":"m 682 831 b 606 896 664 856 639 878 b 489 922 572 913 533 922 b 403 910 460 922 431 918 b 325 874 374 903 348 891 b 269 813 302 858 283 838 b 247 725 254 789 247 759 b 261 658 247 699 252 677 b 299 610 270 640 283 624 b 356 574 316 596 334 584 b 426 544 378 563 401 554 b 514 507 455 533 484 521 b 594 456 544 493 570 476 b 653 384 619 435 638 411 b 675 288 668 357 675 325 b 657 183 675 254 669 219 b 597 81 645 146 625 112 b 488 5 569 50 533 25 b 319 -25 442 -15 386 -25 b 146 12 259 -25 201 -13 b 18 121 90 36 48 73 l 107 178 b 190 95 125 145 153 118 b 324 61 227 72 272 61 b 419 76 357 61 389 66 b 498 117 449 85 475 99 b 551 183 521 135 538 157 b 571 269 564 209 571 238 b 554 342 571 297 565 321 b 509 394 543 362 528 380 b 444 433 490 409 468 422 b 365 465 419 444 393 455 b 283 501 338 475 310 488 b 213 551 256 515 233 532 b 163 620 192 571 176 594 b 144 713 151 647 144 677 b 168 829 144 754 152 793 b 236 923 184 865 206 897 b 346 985 266 949 302 970 b 494 1008 389 1001 439 1008 b 665 976 561 1008 618 997 b 767 892 711 954 745 926 l 682 831 m 439 1061 l 324 1261 l 411 1261 l 500 1111 l 642 1261 l 738 1261 l 550 1061 "},"§":{"ha":806,"x_min":0,"x_max":0,"o":"m 357 561 b 309 549 342 559 326 555 b 261 522 292 542 276 533 b 224 478 246 510 234 496 b 208 418 213 461 208 441 b 240 335 208 381 219 353 b 335 281 262 316 293 298 l 419 246 b 465 263 434 249 450 254 b 508 293 481 271 495 281 b 538 336 520 305 530 319 b 550 390 546 353 550 371 b 517 475 550 426 539 455 b 440 525 496 495 470 512 l 357 561 m 279 613 b 223 672 254 628 235 648 b 204 751 210 696 204 723 b 222 846 204 785 210 816 b 274 925 233 875 250 902 b 361 980 297 948 326 966 b 485 1000 396 993 438 1000 b 628 970 540 1000 588 990 b 713 894 668 950 696 925 l 633 838 b 568 897 617 865 595 885 b 483 915 541 909 513 915 b 401 903 451 915 424 911 b 346 869 379 894 361 883 b 314 822 331 856 320 840 b 304 765 307 803 304 785 b 337 680 304 728 315 700 b 443 619 359 660 394 640 b 601 527 516 590 569 559 b 650 407 634 495 650 455 b 608 272 650 351 636 306 b 493 192 579 237 541 210 b 554 57 534 154 554 109 b 533 -43 554 21 547 -12 b 475 -122 519 -74 500 -100 b 385 -174 450 -144 420 -162 b 268 -192 350 -186 311 -192 b 115 -150 211 -192 159 -178 b 17 -50 70 -122 37 -89 l 99 8 b 131 -43 107 -11 118 -28 b 174 -79 145 -58 159 -70 b 222 -100 190 -88 206 -95 b 269 -107 239 -105 255 -107 b 401 -68 322 -107 366 -94 b 454 47 437 -42 454 -4 b 424 128 454 81 444 108 b 315 190 404 149 368 170 b 155 281 240 218 187 248 b 107 404 123 313 107 354 b 149 531 107 451 121 494 b 279 613 176 569 220 596 "},"š":{"ha":617,"x_min":0,"x_max":0,"o":"m 492 507 b 433 566 479 531 459 551 b 340 589 407 581 376 589 b 288 583 324 589 306 587 b 238 565 270 580 253 574 b 201 533 223 557 210 546 b 186 483 191 519 186 503 b 195 440 186 466 189 451 b 221 412 201 429 210 420 b 261 391 232 404 245 397 b 315 374 277 385 295 379 b 461 303 379 355 428 332 b 511 183 494 275 511 235 b 488 92 511 148 503 118 b 428 30 472 67 452 46 b 347 -6 404 14 377 2 b 260 -17 318 -13 288 -17 b 106 14 205 -17 154 -6 b -6 107 59 34 21 65 l 75 160 b 146 91 91 133 114 110 b 256 63 177 72 214 63 b 315 69 276 63 296 65 b 367 88 335 73 352 79 b 404 123 383 97 395 109 b 418 174 413 137 418 154 b 377 252 418 208 404 234 b 260 304 350 270 311 288 b 201 326 240 311 221 318 b 149 359 182 335 164 346 b 110 408 133 372 120 389 b 96 476 101 427 96 450 b 119 563 96 510 103 538 b 177 622 134 587 153 606 b 257 656 201 637 227 648 b 346 667 287 663 316 667 b 480 638 396 667 441 657 b 565 560 519 618 548 592 l 492 507 m 315 783 l 200 983 l 288 983 l 376 833 l 518 983 l 614 983 l 426 783 "},"©":{"ha":1111,"x_min":0,"x_max":0,"o":"m 806 311 b 713 222 783 277 752 247 b 569 185 673 197 625 185 b 444 208 524 185 482 193 b 344 274 405 224 372 246 b 279 373 317 301 295 334 b 256 499 263 411 256 453 b 279 624 256 544 263 586 b 344 722 295 662 317 694 b 444 788 372 750 405 772 b 569 811 482 803 524 811 b 698 782 614 811 657 801 b 794 701 739 763 771 736 l 722 646 b 662 702 709 666 689 685 b 572 728 634 719 605 728 b 480 709 538 728 507 722 b 410 658 453 697 429 680 b 367 585 391 637 377 613 b 351 499 356 558 351 529 b 366 411 351 468 356 439 b 409 338 376 383 390 359 b 478 287 428 316 451 299 b 569 268 505 274 535 268 b 657 289 599 268 628 275 b 733 358 686 303 711 326 l 806 311 m 28 490 b 69 695 28 563 42 632 b 183 861 97 759 135 814 b 351 973 230 908 286 946 b 557 1014 415 1000 484 1014 b 761 973 629 1014 697 1000 b 928 861 825 946 881 908 b 1042 695 976 814 1014 759 b 1083 490 1069 632 1083 563 b 1042 287 1083 418 1069 350 b 928 121 1014 223 976 168 b 761 10 881 74 825 37 b 557 -31 697 -17 629 -31 b 351 10 484 -31 415 -17 b 183 121 286 37 230 74 b 69 287 135 168 97 223 b 28 490 42 350 28 418 m 111 490 b 147 318 111 429 123 372 b 242 177 170 264 202 217 b 384 82 283 137 330 105 b 557 47 438 59 496 47 b 729 82 618 47 675 59 b 870 177 783 105 830 137 b 965 318 910 217 942 264 b 1000 490 988 372 1000 429 b 965 663 1000 551 988 609 b 870 805 942 717 910 765 b 729 901 830 845 783 877 b 557 936 675 924 618 936 b 384 901 496 936 438 924 b 242 805 330 877 283 845 b 147 663 202 765 170 717 b 111 490 123 609 111 551 "},"ª":{"ha":486,"x_min":0,"x_max":0,"o":"m 406 843 b 408 858 406 848 407 853 b 408 874 408 864 408 869 b 385 927 408 900 400 917 b 324 942 369 937 349 942 b 259 927 302 942 281 937 b 206 894 237 917 219 906 l 175 943 b 249 985 194 960 218 974 b 336 1001 280 996 309 1001 b 390 995 355 1001 372 999 b 435 975 407 991 422 984 b 467 940 449 966 459 954 b 479 888 475 925 479 908 b 478 867 479 883 479 876 b 476 846 478 859 477 851 l 447 688 l 442 640 b 439 600 440 625 439 611 l 379 600 b 381 632 379 610 380 621 b 385 664 381 643 383 654 l 383 664 b 238 590 347 615 299 590 b 194 595 225 590 210 592 b 151 613 179 598 164 604 b 119 646 138 621 128 632 b 106 697 110 660 106 677 b 133 775 106 730 115 756 b 203 819 151 794 174 809 b 299 839 231 830 264 836 b 406 843 335 842 370 843 m 383 790 b 315 788 361 790 338 789 b 250 775 291 786 269 781 b 201 749 231 769 214 760 b 182 704 188 738 182 723 b 206 660 182 682 190 667 b 257 649 222 652 239 649 b 347 681 294 649 324 659 b 392 763 370 703 385 730 l 397 790 l 383 790 "},"«":{"ha":689,"x_min":0,"x_max":0,"o":"m 211 43 l 64 333 l 310 624 l 367 572 l 163 326 l 281 89 m 463 43 l 315 333 l 561 624 l 618 572 l 414 326 l 532 89 "},"¬":{"ha":925,"x_min":0,"x_max":0,"o":"m 733 181 l 733 483 l 108 483 l 108 567 l 817 567 l 817 181 "},"­":{"ha":444,"x_min":0,"x_max":0,"o":"m 44 297 l 58 376 l 369 376 l 356 297 "},"®":{"ha":833,"x_min":0,"x_max":0,"o":"m 156 685 b 181 808 156 728 164 769 b 249 908 197 846 220 879 b 349 975 277 936 311 958 b 472 1000 388 992 429 1000 b 595 975 516 1000 557 992 b 696 908 634 958 667 936 b 764 808 725 879 747 846 b 789 685 781 769 789 728 b 764 563 789 641 781 600 b 696 463 747 525 725 491 b 595 397 667 435 634 413 b 472 372 557 380 516 372 b 349 397 429 372 388 380 b 249 463 311 413 277 435 b 181 563 220 491 197 525 b 156 685 164 600 156 641 m 206 685 b 226 582 206 649 213 614 b 283 497 240 550 259 521 b 368 439 307 472 336 453 b 472 418 400 425 435 418 b 576 439 509 418 544 425 b 661 497 609 453 637 472 b 718 582 685 521 704 550 b 739 685 732 614 739 649 b 718 789 739 722 732 756 b 661 874 704 821 685 850 b 576 931 637 898 609 917 b 472 951 544 944 509 951 b 368 931 435 951 400 944 b 283 874 336 917 307 898 b 226 789 259 850 240 821 b 206 685 213 756 206 722 m 474 864 b 522 858 490 864 506 862 b 565 840 538 855 552 849 b 594 808 577 832 587 821 b 606 760 602 795 606 779 b 583 697 606 734 598 713 b 524 664 569 680 549 669 l 619 508 l 542 508 l 458 657 l 413 657 l 413 508 l 349 508 l 349 864 m 464 708 b 517 719 482 708 500 712 b 542 761 533 726 542 740 b 519 800 542 781 534 794 b 471 810 503 806 488 810 l 413 810 l 413 708 l 464 708 "},"¯":{"ha":333,"x_min":0,"x_max":0,"o":"m 51 833 l 64 908 l 439 908 l 426 833 "},"°":{"ha":556,"x_min":0,"x_max":0,"o":"m 554 793 b 539 710 554 763 549 736 b 496 644 529 685 514 663 b 430 601 477 626 455 612 b 347 586 404 591 377 586 b 265 601 318 586 290 591 b 199 644 239 612 217 626 b 156 710 180 663 166 685 b 140 793 145 736 140 763 b 156 876 140 823 145 850 b 199 942 166 901 180 923 b 265 985 217 960 239 975 b 347 1000 290 995 318 1000 b 430 985 377 1000 404 995 b 496 942 455 975 477 960 b 539 876 514 923 529 901 b 554 793 549 850 554 823 m 488 793 b 476 848 488 813 484 831 b 447 892 469 865 459 880 b 402 922 434 905 419 915 b 347 933 385 930 367 933 b 292 922 328 933 309 930 b 248 892 275 915 260 905 b 218 848 235 880 225 865 b 207 793 211 831 207 813 b 218 738 207 774 211 755 b 248 694 225 721 235 706 b 292 664 260 681 275 671 b 347 653 309 656 328 653 b 402 664 367 653 385 656 b 447 694 419 671 434 681 b 476 738 459 706 469 721 b 488 793 484 755 488 774 "},"±":{"ha":925,"x_min":0,"x_max":0,"o":"m 421 565 l 421 782 l 504 782 l 504 565 l 817 565 l 817 482 l 504 482 l 504 272 l 421 272 l 421 482 l 108 482 l 108 565 m 817 150 l 817 67 l 108 67 l 108 150 "},"²":{"ha":514,"x_min":0,"x_max":0,"o":"m 456 403 l 65 403 l 79 486 l 339 704 b 411 779 373 733 397 758 b 432 843 425 800 432 822 b 406 902 432 867 423 887 b 336 925 389 917 366 925 b 267 899 309 925 286 916 b 224 828 248 881 234 857 l 147 849 b 223 958 163 895 188 931 b 342 997 258 984 297 997 b 468 955 397 997 439 983 b 511 847 497 927 511 891 b 502 790 511 826 508 807 b 476 740 496 772 487 756 b 433 694 464 725 450 709 b 376 644 417 678 398 662 l 174 478 l 471 478 "},"³":{"ha":514,"x_min":0,"x_max":0,"o":"m 271 743 b 380 772 321 743 357 753 b 414 849 403 791 414 816 b 390 906 414 873 406 892 b 328 926 375 919 354 926 b 263 908 301 926 279 920 b 218 857 246 896 231 879 l 154 897 b 232 975 175 932 200 958 b 338 1000 263 992 299 1000 b 452 962 384 1000 422 987 b 497 853 482 936 497 900 b 487 796 497 831 494 813 b 459 753 480 779 471 765 b 420 724 447 742 434 732 b 376 707 406 716 391 711 b 444 663 404 700 427 686 b 471 585 462 639 471 613 b 413 444 471 524 451 477 b 264 394 374 411 324 394 b 144 428 217 394 177 406 b 75 522 111 450 88 481 l 158 547 b 265 469 172 495 208 469 b 356 499 304 469 334 479 b 388 576 377 518 388 544 b 376 623 388 595 384 610 b 347 653 369 635 359 645 b 304 669 334 660 320 666 b 256 674 288 672 272 674 l 229 674 l 242 743 l 271 743 l 271 743 "},"Ž":{"ha":794,"x_min":0,"x_max":0,"o":"m 110 88 l 692 88 l 676 0 l -35 0 l -19 83 l 701 896 l 149 896 l 164 983 l 844 983 l 829 900 m 446 1061 l 331 1261 l 418 1261 l 507 1111 l 649 1261 l 744 1261 l 557 1061 "},"µ":{"ha":772,"x_min":0,"x_max":0,"o":"m 260 650 l 183 290 b 173 235 179 270 175 251 b 169 189 171 218 169 203 b 203 95 169 145 181 114 b 313 67 226 76 263 67 b 394 83 340 67 367 72 b 467 132 420 94 444 111 b 525 210 489 153 508 179 b 563 317 542 241 554 277 l 633 650 l 725 650 l 617 143 b 605 72 612 119 608 95 b 594 0 602 48 598 24 l 496 0 l 518 106 l 515 106 b 466 58 501 89 485 73 b 405 19 447 44 427 31 b 338 -7 383 8 361 0 b 271 -17 314 -13 292 -17 b 126 24 207 -17 159 -3 l 54 -317 l -37 -317 l 168 650 "},"¶":{"ha":833,"x_min":0,"x_max":0,"o":"m 515 -175 l 706 908 l 533 908 l 343 -175 l 251 -175 l 360 439 b 257 455 322 439 288 444 b 178 500 226 466 200 481 b 128 568 157 519 140 542 b 111 653 117 594 111 622 b 138 781 111 698 120 741 b 214 887 156 822 181 857 b 331 958 246 917 285 941 b 482 983 376 975 426 983 l 811 983 l 607 -175 "},"·":{"ha":361,"x_min":0,"x_max":0,"o":"m 256 438 b 234 384 256 417 248 399 b 181 361 220 369 202 361 b 128 381 160 361 143 368 b 107 433 114 394 107 411 b 130 489 107 456 115 474 b 183 511 145 504 163 511 b 235 492 204 511 221 505 b 256 438 249 479 256 461 "},"ž":{"ha":614,"x_min":0,"x_max":0,"o":"m 107 82 l 510 82 l 496 0 l -32 0 l -21 67 l 456 571 l 88 571 l 103 650 l 597 650 l 585 583 m 306 783 l 190 983 l 278 983 l 367 833 l 508 983 l 604 983 l 417 783 "},"¹":{"ha":514,"x_min":0,"x_max":0,"o":"m 232 397 l 317 878 l 214 799 l 172 856 l 350 983 l 421 983 l 317 397 "},"º":{"ha":486,"x_min":0,"x_max":0,"o":"m 276 589 b 202 601 250 589 225 593 b 144 636 179 610 160 621 b 106 690 128 651 115 669 b 92 758 96 710 92 733 b 110 852 92 792 98 823 b 159 928 122 881 138 907 b 234 981 180 950 205 968 b 329 1000 263 994 295 1000 b 403 988 356 1000 381 996 b 463 953 426 979 446 968 b 501 901 479 939 492 922 b 515 832 511 880 515 857 b 498 738 515 799 509 767 b 449 660 486 708 470 682 b 373 608 427 639 402 621 b 276 589 344 595 312 589 m 439 825 b 408 906 439 857 429 884 b 325 939 388 928 360 939 b 263 925 303 939 282 934 b 214 887 244 916 228 903 b 181 831 200 871 189 852 b 169 765 173 810 169 788 b 199 684 169 733 179 706 b 282 651 219 662 247 651 b 345 665 305 651 326 656 b 394 703 364 675 381 687 b 427 759 408 720 419 738 b 439 825 435 780 439 802 "},"»":{"ha":689,"x_min":0,"x_max":0,"o":"m 449 624 l 596 333 l 350 43 l 293 94 l 497 340 l 379 578 m 197 624 l 344 333 l 99 43 l 42 94 l 246 340 l 128 578 "},"Œ":{"ha":1347,"x_min":0,"x_max":0,"o":"m 539 0 b 374 23 483 0 428 8 b 226 95 319 38 270 62 b 121 222 183 128 148 170 b 81 411 94 274 81 337 b 126 646 81 497 96 575 b 251 826 156 716 198 776 b 442 942 305 876 369 915 b 681 983 515 970 594 983 l 1361 983 l 1346 896 l 890 896 l 831 554 l 1264 554 l 1249 469 l 815 469 l 747 88 l 1239 88 l 1224 0 l 539 0 m 674 896 b 463 856 594 896 524 882 b 310 749 401 829 350 793 b 217 598 269 705 238 655 b 186 422 197 541 186 482 b 208 292 186 376 194 333 b 276 186 223 252 246 217 b 393 114 307 156 346 131 b 561 88 440 96 496 88 l 649 88 l 792 896 "},"œ":{"ha":1364,"x_min":0,"x_max":0,"o":"m 657 149 b 605 84 642 125 625 104 b 537 32 585 64 562 47 b 451 -3 511 17 483 5 b 347 -17 420 -12 385 -17 b 226 4 304 -17 263 -10 b 131 62 189 18 158 37 b 69 151 105 86 84 116 b 47 265 55 185 47 224 b 76 420 47 320 57 372 b 156 548 95 469 121 511 b 278 635 190 584 231 613 b 433 667 325 656 377 667 b 600 621 497 667 553 651 b 703 500 647 590 681 550 b 757 568 718 525 736 548 b 828 621 778 588 802 606 b 911 655 854 636 881 647 b 1001 667 941 663 971 667 b 1203 596 1090 667 1158 643 b 1272 413 1249 549 1272 488 b 1269 362 1272 401 1271 384 b 1260 300 1268 339 1264 319 l 722 300 b 720 284 721 294 721 289 b 719 269 720 279 719 274 b 735 186 719 239 725 211 b 780 121 746 161 761 139 b 847 78 799 102 821 88 b 929 63 872 68 900 63 b 1063 97 980 63 1025 74 b 1154 176 1100 119 1131 146 l 1213 121 b 1081 18 1175 75 1131 41 b 921 -17 1031 -5 977 -17 b 824 -3 885 -17 853 -12 b 750 32 796 5 771 17 b 694 85 729 47 710 64 b 657 149 679 105 666 126 m 636 381 b 622 463 636 410 631 438 b 581 529 613 489 599 511 b 515 573 563 548 541 562 b 428 589 489 584 460 589 b 315 563 387 589 350 580 b 226 494 281 546 251 523 b 167 392 201 465 182 431 b 146 271 153 354 146 313 b 160 188 146 241 150 214 b 201 122 169 163 183 141 b 266 78 219 104 241 89 b 353 63 291 68 320 63 b 467 88 394 63 433 71 b 557 157 502 105 532 128 b 615 258 582 186 601 219 b 636 381 629 296 636 337 m 1176 369 b 1178 394 1177 377 1178 385 b 1179 418 1179 403 1179 411 b 1133 541 1179 468 1164 509 b 999 589 1103 573 1058 589 b 903 572 964 589 933 583 b 826 524 874 560 848 544 b 768 453 803 503 784 480 b 735 369 752 427 741 399 l 1176 369 "},"Ÿ":{"ha":774,"x_min":0,"x_max":0,"o":"m 244 0 l 319 424 l 69 983 l 186 983 l 382 506 l 775 983 l 899 983 l 418 424 l 343 0 m 428 1179 b 408 1131 428 1161 421 1144 b 361 1110 395 1117 380 1110 b 314 1127 343 1110 327 1116 b 294 1175 301 1139 294 1155 b 315 1226 294 1195 301 1212 b 364 1246 329 1239 345 1246 b 410 1228 382 1246 398 1240 b 428 1179 422 1216 428 1200 m 703 1179 b 683 1131 703 1161 696 1144 b 635 1110 669 1117 653 1110 b 588 1127 616 1110 601 1116 b 569 1175 576 1139 569 1155 b 590 1226 569 1195 576 1212 b 638 1246 603 1239 619 1246 b 684 1228 656 1246 672 1240 b 703 1179 697 1216 703 1200 "},"¿":{"ha":669,"x_min":0,"x_max":0,"o":"m 376 400 l 363 317 b 341 246 358 290 351 266 b 307 190 331 225 320 207 b 265 144 294 174 280 158 b 217 106 249 131 233 118 l 171 71 b 125 33 154 58 139 45 b 90 -7 111 20 100 7 b 69 -53 81 -21 74 -36 b 61 -110 64 -69 61 -88 b 101 -210 61 -151 75 -185 b 206 -247 128 -235 163 -247 b 341 -200 260 -247 305 -231 b 410 -85 377 -169 400 -130 l 500 -101 b 392 -272 482 -174 447 -230 b 203 -333 338 -313 275 -333 b 108 -320 169 -333 137 -329 b 31 -279 78 -311 53 -298 b -20 -210 9 -261 -8 -238 b -39 -112 -33 -183 -39 -150 b 9 31 -39 -57 -23 -9 b 128 140 41 70 81 107 b 185 184 150 156 169 171 b 228 227 202 197 216 212 b 257 278 240 242 250 259 b 274 344 264 297 270 319 l 282 400 m 271 599 b 292 652 271 619 278 637 b 346 675 307 667 325 675 b 398 656 366 675 384 669 b 419 603 412 643 419 625 b 397 547 419 581 412 562 b 343 525 381 532 363 525 b 292 544 323 525 306 531 b 271 599 278 557 271 575 "},"À":{"ha":965,"x_min":0,"x_max":0,"o":"m -71 0 l 563 983 l 660 983 l 864 0 l 760 0 l 707 258 l 204 258 l 43 0 m 692 350 l 589 872 l 261 350 m 519 1261 l 658 1061 l 581 1061 l 397 1261 "},"Á":{"ha":965,"x_min":0,"x_max":0,"o":"m -71 0 l 563 983 l 660 983 l 864 0 l 760 0 l 707 258 l 204 258 l 43 0 m 692 350 l 589 872 l 261 350 m 561 1061 l 736 1261 l 858 1261 l 639 1061 "},"Â":{"ha":965,"x_min":0,"x_max":0,"o":"m -71 0 l 563 983 l 660 983 l 864 0 l 760 0 l 707 258 l 204 258 l 43 0 m 692 350 l 589 872 l 261 350 m 739 1061 l 650 1211 l 508 1061 l 413 1061 l 600 1261 l 711 1261 l 826 1061 "},"Ã":{"ha":965,"x_min":0,"x_max":0,"o":"m -71 0 l 563 983 l 660 983 l 864 0 l 760 0 l 707 258 l 204 258 l 43 0 m 692 350 l 589 872 l 261 350 m 403 1078 b 426 1131 409 1095 417 1113 b 458 1177 434 1148 445 1164 b 500 1210 470 1191 484 1201 b 556 1222 516 1218 534 1222 b 604 1213 572 1222 588 1219 b 651 1190 620 1206 636 1199 b 697 1169 667 1183 682 1176 b 739 1158 711 1162 725 1158 b 790 1180 760 1158 777 1166 b 819 1228 802 1194 812 1210 l 879 1228 b 856 1174 873 1209 865 1191 b 823 1128 846 1157 835 1142 b 780 1096 810 1115 796 1104 b 725 1083 764 1088 745 1083 b 676 1094 708 1083 692 1087 b 629 1115 661 1101 645 1108 b 585 1138 614 1124 600 1131 b 542 1147 571 1144 556 1147 b 492 1126 520 1147 504 1140 b 463 1078 480 1111 470 1095 l 403 1078 "},"Ä":{"ha":965,"x_min":0,"x_max":0,"o":"m -71 0 l 563 983 l 660 983 l 864 0 l 760 0 l 707 258 l 204 258 l 43 0 m 692 350 l 589 872 l 261 350 m 569 1179 b 550 1131 569 1161 563 1144 b 503 1110 537 1117 521 1110 b 456 1127 484 1110 469 1116 b 436 1175 443 1139 436 1155 b 457 1226 436 1195 443 1212 b 506 1246 471 1239 487 1246 b 551 1228 524 1246 539 1240 b 569 1179 563 1216 569 1200 m 844 1179 b 824 1131 844 1161 838 1144 b 776 1110 811 1117 795 1110 b 730 1127 758 1110 742 1116 b 711 1175 717 1139 711 1155 b 731 1226 711 1195 718 1212 b 779 1246 745 1239 761 1246 b 826 1228 798 1246 813 1240 b 844 1179 838 1216 844 1200 "},"Å":{"ha":965,"x_min":0,"x_max":0,"o":"m -71 0 l 563 983 l 660 983 l 864 0 l 760 0 l 707 258 l 204 258 l 43 0 m 692 350 l 589 872 l 261 350 m 626 1047 b 541 1078 591 1047 563 1057 b 508 1157 519 1098 508 1125 b 519 1217 508 1178 512 1198 b 551 1267 527 1236 537 1253 b 598 1301 564 1282 580 1293 b 658 1314 616 1310 636 1314 b 744 1283 694 1314 722 1304 b 776 1204 766 1263 776 1237 b 735 1093 776 1161 763 1124 b 626 1047 707 1063 671 1047 m 729 1201 b 710 1253 729 1222 723 1239 b 656 1274 697 1267 679 1274 b 585 1240 627 1274 603 1263 b 557 1161 566 1218 557 1192 b 576 1109 557 1140 563 1122 b 629 1089 589 1096 607 1089 b 701 1122 659 1089 683 1100 b 729 1201 720 1144 729 1171 "},"Æ":{"ha":1375,"x_min":0,"x_max":0,"o":"m 694 278 l 290 278 l 64 0 l -60 0 l 754 983 l 1372 983 l 1357 896 l 901 896 l 842 554 l 1275 554 l 1260 469 l 826 469 l 758 88 l 1250 88 l 1235 0 l 646 0 m 804 896 l 793 896 l 356 363 l 710 363 "},"Ç":{"ha":1000,"x_min":0,"x_max":0,"o":"m 915 156 b 767 33 877 108 828 68 b 547 -24 707 -1 633 -20 l 483 -104 b 505 -100 491 -102 498 -101 b 526 -99 512 -99 519 -99 b 562 -103 538 -99 549 -100 b 595 -119 574 -107 585 -112 b 619 -148 605 -127 613 -136 b 629 -192 626 -159 629 -174 b 613 -252 629 -216 624 -236 b 572 -291 603 -268 589 -281 b 518 -312 556 -301 538 -308 b 463 -319 499 -317 480 -319 b 395 -312 444 -319 422 -317 b 328 -292 369 -308 346 -301 l 354 -242 b 403 -257 369 -249 385 -254 b 457 -261 422 -260 439 -261 b 488 -258 467 -261 478 -260 b 518 -248 499 -256 509 -253 b 540 -228 527 -243 535 -236 b 549 -199 546 -221 549 -211 b 528 -158 549 -180 542 -167 b 479 -146 515 -150 499 -146 b 418 -157 459 -146 438 -150 l 397 -136 l 488 -24 b 321 15 426 -20 371 -7 b 192 102 271 36 228 66 b 110 232 157 139 129 182 b 81 397 90 282 81 337 b 126 636 81 482 96 562 b 252 830 157 710 199 775 b 439 960 305 885 368 928 b 668 1008 510 992 587 1008 b 773 997 704 1008 739 1005 b 867 966 807 990 838 979 b 944 917 895 953 921 936 b 999 851 966 897 985 875 l 908 792 b 876 839 901 807 890 823 b 824 881 861 855 844 869 b 753 911 803 894 780 904 b 665 922 727 919 698 922 b 472 878 595 922 530 908 b 320 763 413 849 362 811 b 222 599 278 716 245 661 b 186 407 198 537 186 473 b 208 272 186 359 194 314 b 274 162 223 229 245 193 b 381 88 303 131 339 106 b 528 61 423 70 472 61 b 697 97 587 61 644 73 b 842 208 751 120 799 157 l 915 156 "},"È":{"ha":806,"x_min":0,"x_max":0,"o":"m 697 88 l 682 0 l 56 0 l 229 983 l 819 983 l 804 896 l 313 896 l 253 554 l 722 554 l 707 469 l 238 469 l 169 88 m 481 1261 l 619 1061 l 542 1061 l 358 1261 "},"É":{"ha":806,"x_min":0,"x_max":0,"o":"m 697 88 l 682 0 l 56 0 l 229 983 l 819 983 l 804 896 l 313 896 l 253 554 l 722 554 l 707 469 l 238 469 l 169 88 m 479 1061 l 654 1261 l 776 1261 l 557 1061 "},"Ê":{"ha":806,"x_min":0,"x_max":0,"o":"m 697 88 l 682 0 l 56 0 l 229 983 l 819 983 l 804 896 l 313 896 l 253 554 l 722 554 l 707 469 l 238 469 l 169 88 m 656 1061 l 567 1211 l 425 1061 l 329 1061 l 517 1261 l 628 1261 l 743 1061 "},"Ë":{"ha":806,"x_min":0,"x_max":0,"o":"m 697 88 l 682 0 l 56 0 l 229 983 l 819 983 l 804 896 l 313 896 l 253 554 l 722 554 l 707 469 l 238 469 l 169 88 m 483 1179 b 464 1131 483 1161 477 1144 b 417 1110 451 1117 435 1110 b 369 1127 398 1110 382 1116 b 350 1175 356 1139 350 1155 b 371 1226 350 1195 357 1212 b 419 1246 385 1239 401 1246 b 465 1228 438 1246 453 1240 b 483 1179 477 1216 483 1200 m 758 1179 b 738 1131 758 1161 752 1144 b 690 1110 725 1117 709 1110 b 644 1127 672 1110 656 1116 b 625 1175 631 1139 625 1155 b 645 1226 625 1195 632 1212 b 693 1246 659 1239 675 1246 b 740 1228 712 1246 727 1240 b 758 1179 752 1216 758 1200 "},"Ì":{"ha":361,"x_min":0,"x_max":0,"o":"m 56 0 l 229 983 l 328 983 l 154 0 m 192 1261 l 331 1061 l 253 1061 l 69 1261 "},"Í":{"ha":361,"x_min":0,"x_max":0,"o":"m 56 0 l 229 983 l 328 983 l 154 0 m 240 1061 l 415 1261 l 538 1261 l 318 1061 "},"Î":{"ha":361,"x_min":0,"x_max":0,"o":"m 56 0 l 229 983 l 328 983 l 154 0 m 408 1061 l 319 1211 l 178 1061 l 82 1061 l 269 1261 l 381 1261 l 496 1061 "},"Ï":{"ha":361,"x_min":0,"x_max":0,"o":"m 56 0 l 229 983 l 328 983 l 154 0 m 235 1179 b 215 1131 235 1161 228 1144 b 168 1110 202 1117 187 1110 b 121 1127 150 1110 134 1116 b 101 1175 108 1139 101 1155 b 122 1226 101 1195 108 1212 b 171 1246 136 1239 152 1246 b 217 1228 189 1246 205 1240 b 235 1179 229 1216 235 1200 m 510 1179 b 490 1131 510 1161 503 1144 b 442 1110 476 1117 460 1110 b 395 1127 423 1110 408 1116 b 376 1175 383 1139 376 1155 b 397 1226 376 1195 383 1212 b 444 1246 410 1239 426 1246 b 491 1228 463 1246 478 1240 b 510 1179 503 1216 510 1200 "},"Ð":{"ha":1051,"x_min":0,"x_max":0,"o":"m 57 557 l 154 557 l 229 983 l 526 983 b 692 960 582 983 637 976 b 839 888 746 945 795 921 b 944 760 882 855 918 813 b 985 572 971 708 985 645 b 940 338 985 486 970 408 b 814 157 909 267 868 207 b 624 41 760 107 697 68 b 385 0 550 14 471 0 l 56 0 l 140 482 l 43 482 m 588 482 l 239 482 l 169 88 l 392 88 b 602 128 471 88 541 101 b 755 234 663 155 714 190 b 848 385 796 278 827 328 b 879 561 869 442 879 501 b 857 690 879 606 872 650 b 789 797 842 731 819 767 b 672 869 758 828 719 852 b 504 896 625 887 569 896 l 313 896 l 253 557 l 601 557 "},"Ñ":{"ha":1042,"x_min":0,"x_max":0,"o":"m 761 140 l 910 983 l 1008 983 l 835 0 l 711 0 l 308 854 l 306 854 l 156 0 l 57 0 l 231 983 l 354 983 l 758 140 m 404 1078 b 427 1131 411 1095 418 1113 b 459 1177 436 1148 447 1164 b 501 1210 472 1191 486 1201 b 557 1222 517 1218 536 1222 b 606 1213 574 1222 590 1219 b 653 1190 621 1206 637 1199 b 698 1169 669 1183 684 1176 b 740 1158 712 1162 726 1158 b 791 1180 762 1158 778 1166 b 821 1228 803 1194 813 1210 l 881 1228 b 857 1174 874 1209 866 1191 b 824 1128 848 1157 837 1142 b 781 1096 812 1115 797 1104 b 726 1083 765 1088 747 1083 b 678 1094 710 1083 694 1087 b 631 1115 662 1101 646 1108 b 587 1138 616 1124 601 1131 b 543 1147 572 1144 558 1147 b 493 1126 522 1147 505 1140 b 464 1078 481 1111 471 1095 l 404 1078 "},"Ò":{"ha":1158,"x_min":0,"x_max":0,"o":"m 518 -25 b 342 6 454 -25 395 -15 b 203 92 288 26 242 55 b 113 225 164 129 134 173 b 81 397 91 277 81 334 b 125 635 81 481 95 561 b 247 830 155 710 195 775 b 428 960 298 885 359 928 b 654 1008 498 992 574 1008 b 831 978 718 1008 777 998 b 969 893 884 959 930 930 b 1059 760 1007 856 1037 812 b 1092 589 1081 709 1092 652 b 1049 351 1092 505 1077 425 b 929 156 1020 276 980 211 b 747 24 878 100 818 56 b 518 -25 677 -9 600 -25 m 986 579 b 964 713 986 626 979 671 b 899 822 949 754 928 791 b 794 895 871 853 836 877 b 650 922 752 913 704 922 b 460 878 581 922 517 908 b 313 763 402 849 353 811 b 219 597 273 714 242 659 b 186 406 197 535 186 471 b 208 272 186 358 193 314 b 272 162 222 229 244 193 b 378 88 301 131 336 106 b 522 61 419 70 468 61 b 710 104 591 61 653 75 b 857 219 767 133 816 171 b 952 385 898 268 929 323 b 986 579 975 448 986 513 m 610 1261 l 749 1061 l 671 1061 l 488 1261 "},"Ó":{"ha":1158,"x_min":0,"x_max":0,"o":"m 518 -25 b 342 6 454 -25 395 -15 b 203 92 288 26 242 55 b 113 225 164 129 134 173 b 81 397 91 277 81 334 b 125 635 81 481 95 561 b 247 830 155 710 195 775 b 428 960 298 885 359 928 b 654 1008 498 992 574 1008 b 831 978 718 1008 777 998 b 969 893 884 959 930 930 b 1059 760 1007 856 1037 812 b 1092 589 1081 709 1092 652 b 1049 351 1092 505 1077 425 b 929 156 1020 276 980 211 b 747 24 878 100 818 56 b 518 -25 677 -9 600 -25 m 986 579 b 964 713 986 626 979 671 b 899 822 949 754 928 791 b 794 895 871 853 836 877 b 650 922 752 913 704 922 b 460 878 581 922 517 908 b 313 763 402 849 353 811 b 219 597 273 714 242 659 b 186 406 197 535 186 471 b 208 272 186 358 193 314 b 272 162 222 229 244 193 b 378 88 301 131 336 106 b 522 61 419 70 468 61 b 710 104 591 61 653 75 b 857 219 767 133 816 171 b 952 385 898 268 929 323 b 986 579 975 448 986 513 m 611 1061 l 786 1261 l 908 1261 l 689 1061 "},"Ô":{"ha":1158,"x_min":0,"x_max":0,"o":"m 518 -25 b 342 6 454 -25 395 -15 b 203 92 288 26 242 55 b 113 225 164 129 134 173 b 81 397 91 277 81 334 b 125 635 81 481 95 561 b 247 830 155 710 195 775 b 428 960 298 885 359 928 b 654 1008 498 992 574 1008 b 831 978 718 1008 777 998 b 969 893 884 959 930 930 b 1059 760 1007 856 1037 812 b 1092 589 1081 709 1092 652 b 1049 351 1092 505 1077 425 b 929 156 1020 276 980 211 b 747 24 878 100 818 56 b 518 -25 677 -9 600 -25 m 986 579 b 964 713 986 626 979 671 b 899 822 949 754 928 791 b 794 895 871 853 836 877 b 650 922 752 913 704 922 b 460 878 581 922 517 908 b 313 763 402 849 353 811 b 219 597 273 714 242 659 b 186 406 197 535 186 471 b 208 272 186 358 193 314 b 272 162 222 229 244 193 b 378 88 301 131 336 106 b 522 61 419 70 468 61 b 710 104 591 61 653 75 b 857 219 767 133 816 171 b 952 385 898 268 929 323 b 986 579 975 448 986 513 m 807 1061 l 718 1211 l 576 1061 l 481 1061 l 668 1261 l 779 1261 l 894 1061 "},"Õ":{"ha":1158,"x_min":0,"x_max":0,"o":"m 518 -25 b 342 6 454 -25 395 -15 b 203 92 288 26 242 55 b 113 225 164 129 134 173 b 81 397 91 277 81 334 b 125 635 81 481 95 561 b 247 830 155 710 195 775 b 428 960 298 885 359 928 b 654 1008 498 992 574 1008 b 831 978 718 1008 777 998 b 969 893 884 959 930 930 b 1059 760 1007 856 1037 812 b 1092 589 1081 709 1092 652 b 1049 351 1092 505 1077 425 b 929 156 1020 276 980 211 b 747 24 878 100 818 56 b 518 -25 677 -9 600 -25 m 986 579 b 964 713 986 626 979 671 b 899 822 949 754 928 791 b 794 895 871 853 836 877 b 650 922 752 913 704 922 b 460 878 581 922 517 908 b 313 763 402 849 353 811 b 219 597 273 714 242 659 b 186 406 197 535 186 471 b 208 272 186 358 193 314 b 272 162 222 229 244 193 b 378 88 301 131 336 106 b 522 61 419 70 468 61 b 710 104 591 61 653 75 b 857 219 767 133 816 171 b 952 385 898 268 929 323 b 986 579 975 448 986 513 m 461 1078 b 484 1131 468 1095 475 1113 b 516 1177 493 1148 503 1164 b 558 1210 528 1191 543 1201 b 614 1222 574 1218 593 1222 b 663 1213 631 1222 647 1219 b 710 1190 678 1206 694 1199 b 755 1169 725 1183 741 1176 b 797 1158 769 1162 783 1158 b 848 1180 819 1158 835 1166 b 878 1228 860 1194 870 1210 l 938 1228 b 914 1174 931 1209 923 1191 b 881 1128 905 1157 894 1142 b 838 1096 869 1115 854 1104 b 783 1083 822 1088 804 1083 b 735 1094 767 1083 750 1087 b 688 1115 719 1101 703 1108 b 644 1138 673 1124 658 1131 b 600 1147 629 1144 615 1147 b 550 1126 579 1147 562 1140 b 521 1078 538 1111 528 1095 l 461 1078 "},"Ö":{"ha":1158,"x_min":0,"x_max":0,"o":"m 518 -25 b 342 6 454 -25 395 -15 b 203 92 288 26 242 55 b 113 225 164 129 134 173 b 81 397 91 277 81 334 b 125 635 81 481 95 561 b 247 830 155 710 195 775 b 428 960 298 885 359 928 b 654 1008 498 992 574 1008 b 831 978 718 1008 777 998 b 969 893 884 959 930 930 b 1059 760 1007 856 1037 812 b 1092 589 1081 709 1092 652 b 1049 351 1092 505 1077 425 b 929 156 1020 276 980 211 b 747 24 878 100 818 56 b 518 -25 677 -9 600 -25 m 986 579 b 964 713 986 626 979 671 b 899 822 949 754 928 791 b 794 895 871 853 836 877 b 650 922 752 913 704 922 b 460 878 581 922 517 908 b 313 763 402 849 353 811 b 219 597 273 714 242 659 b 186 406 197 535 186 471 b 208 272 186 358 193 314 b 272 162 222 229 244 193 b 378 88 301 131 336 106 b 522 61 419 70 468 61 b 710 104 591 61 653 75 b 857 219 767 133 816 171 b 952 385 898 268 929 323 b 986 579 975 448 986 513 m 632 1179 b 613 1131 632 1161 625 1144 b 565 1110 600 1117 584 1110 b 518 1127 547 1110 531 1116 b 499 1175 505 1139 499 1155 b 519 1226 499 1195 506 1212 b 568 1246 533 1239 550 1246 b 614 1228 587 1246 602 1240 b 632 1179 626 1216 632 1200 m 907 1179 b 887 1131 907 1161 900 1144 b 839 1110 873 1117 857 1110 b 792 1127 820 1110 805 1116 b 774 1175 780 1139 774 1155 b 794 1226 774 1195 780 1212 b 842 1246 807 1239 823 1246 b 888 1228 860 1246 876 1240 b 907 1179 901 1216 907 1200 "},"×":{"ha":925,"x_min":0,"x_max":0,"o":"m 682 701 l 742 643 l 521 421 l 742 200 l 682 140 l 463 361 l 242 140 l 183 200 l 404 421 l 183 643 l 242 701 l 463 481 "},"Ø":{"ha":1158,"x_min":0,"x_max":0,"o":"m 1021 844 b 1081 729 1047 810 1067 772 b 1101 589 1094 687 1101 640 b 1057 351 1101 505 1087 425 b 934 156 1027 276 986 211 b 749 24 882 100 820 56 b 518 -25 677 -9 600 -25 b 340 6 453 -25 394 -15 b 201 93 287 26 240 55 l 76 -25 l 35 22 l 161 139 b 101 256 135 174 115 213 b 81 397 88 299 81 346 b 126 635 81 481 96 561 b 251 830 157 710 199 775 b 437 960 304 885 366 928 b 664 1008 508 992 583 1008 b 840 978 728 1008 787 998 b 979 892 894 957 940 929 l 1104 1008 l 1146 961 l 1021 844 m 275 160 b 378 88 303 129 337 105 b 522 61 420 70 468 61 b 712 104 591 61 654 75 b 862 219 770 133 820 171 b 960 385 904 268 937 323 b 996 579 984 448 996 513 b 944 775 996 653 979 719 l 275 160 m 906 826 b 801 897 877 856 842 879 b 660 922 761 914 713 922 b 468 878 590 922 526 908 b 318 763 410 849 360 811 b 221 597 276 714 244 659 b 186 406 198 535 186 471 b 239 207 186 331 204 264 l 906 826 "},"Ù":{"ha":986,"x_min":0,"x_max":0,"o":"m 432 -25 b 281 1 373 -25 322 -16 b 181 70 240 19 206 42 b 124 166 155 98 136 130 b 107 274 113 202 107 238 b 115 367 107 306 110 337 l 224 983 l 322 983 l 215 378 b 207 293 210 348 207 320 b 219 204 207 262 211 232 b 258 131 227 176 240 152 b 328 80 276 109 299 92 b 438 61 358 67 394 61 b 570 87 489 61 534 70 b 662 156 607 104 637 127 b 720 258 686 185 706 219 b 753 378 734 296 745 336 l 860 983 l 958 983 l 850 367 b 813 237 843 326 830 283 b 740 110 796 191 772 149 b 617 13 708 71 667 39 b 432 -25 567 -12 505 -25 m 528 1261 l 667 1061 l 589 1061 l 406 1261 "},"Ú":{"ha":986,"x_min":0,"x_max":0,"o":"m 432 -25 b 281 1 373 -25 322 -16 b 181 70 240 19 206 42 b 124 166 155 98 136 130 b 107 274 113 202 107 238 b 115 367 107 306 110 337 l 224 983 l 322 983 l 215 378 b 207 293 210 348 207 320 b 219 204 207 262 211 232 b 258 131 227 176 240 152 b 328 80 276 109 299 92 b 438 61 358 67 394 61 b 570 87 489 61 534 70 b 662 156 607 104 637 127 b 720 258 686 185 706 219 b 753 378 734 296 745 336 l 860 983 l 958 983 l 850 367 b 813 237 843 326 830 283 b 740 110 796 191 772 149 b 617 13 708 71 667 39 b 432 -25 567 -12 505 -25 m 531 1061 l 706 1261 l 828 1261 l 608 1061 "},"Û":{"ha":986,"x_min":0,"x_max":0,"o":"m 432 -25 b 281 1 373 -25 322 -16 b 181 70 240 19 206 42 b 124 166 155 98 136 130 b 107 274 113 202 107 238 b 115 367 107 306 110 337 l 224 983 l 322 983 l 215 378 b 207 293 210 348 207 320 b 219 204 207 262 211 232 b 258 131 227 176 240 152 b 328 80 276 109 299 92 b 438 61 358 67 394 61 b 570 87 489 61 534 70 b 662 156 607 104 637 127 b 720 258 686 185 706 219 b 753 378 734 296 745 336 l 860 983 l 958 983 l 850 367 b 813 237 843 326 830 283 b 740 110 796 191 772 149 b 617 13 708 71 667 39 b 432 -25 567 -12 505 -25 m 722 1061 l 633 1211 l 492 1061 l 396 1061 l 583 1261 l 694 1261 l 810 1061 "},"Ü":{"ha":986,"x_min":0,"x_max":0,"o":"m 432 -25 b 281 1 373 -25 322 -16 b 181 70 240 19 206 42 b 124 166 155 98 136 130 b 107 274 113 202 107 238 b 115 367 107 306 110 337 l 224 983 l 322 983 l 215 378 b 207 293 210 348 207 320 b 219 204 207 262 211 232 b 258 131 227 176 240 152 b 328 80 276 109 299 92 b 438 61 358 67 394 61 b 570 87 489 61 534 70 b 662 156 607 104 637 127 b 720 258 686 185 706 219 b 753 378 734 296 745 336 l 860 983 l 958 983 l 850 367 b 813 237 843 326 830 283 b 740 110 796 191 772 149 b 617 13 708 71 667 39 b 432 -25 567 -12 505 -25 m 549 1179 b 529 1131 549 1161 542 1144 b 482 1110 516 1117 500 1110 b 435 1127 463 1110 448 1116 b 415 1175 422 1139 415 1155 b 436 1226 415 1195 422 1212 b 485 1246 450 1239 466 1246 b 531 1228 503 1246 519 1240 b 549 1179 543 1216 549 1200 m 824 1179 b 803 1131 824 1161 817 1144 b 756 1110 790 1117 774 1110 b 709 1127 737 1110 722 1116 b 690 1175 697 1139 690 1155 b 710 1226 690 1195 697 1212 b 758 1246 724 1239 740 1246 b 805 1228 777 1246 792 1240 b 824 1179 817 1216 824 1200 "},"Ý":{"ha":774,"x_min":0,"x_max":0,"o":"m 244 0 l 319 424 l 69 983 l 186 983 l 382 506 l 775 983 l 899 983 l 418 424 l 343 0 m 435 1061 l 610 1261 l 732 1261 l 513 1061 "},"Þ":{"ha":806,"x_min":0,"x_max":0,"o":"m 57 0 l 231 983 l 329 983 l 292 768 l 456 768 b 679 706 552 768 626 747 b 758 532 732 664 758 606 b 731 406 758 484 749 442 b 653 315 712 369 686 339 b 535 260 621 290 581 272 b 385 242 490 248 439 242 l 199 242 l 156 0 m 393 324 b 588 374 476 324 541 340 b 658 521 635 407 658 456 b 601 647 658 581 639 623 b 447 683 563 671 512 683 l 276 683 l 213 324 "},"ß":{"ha":824,"x_min":0,"x_max":0,"o":"m 42 0 l 175 756 b 206 865 181 792 192 828 b 265 965 219 902 239 936 b 359 1038 290 995 322 1019 b 496 1067 397 1057 442 1067 b 601 1050 535 1067 570 1061 b 681 1003 632 1039 658 1023 b 731 932 703 984 720 960 b 749 842 743 904 749 874 b 693 687 749 781 730 729 b 544 600 656 645 606 616 l 544 597 b 685 511 604 585 650 556 b 736 349 719 466 736 412 b 707 194 736 291 726 240 b 627 80 688 149 661 111 b 506 8 593 49 553 25 b 351 -17 458 -8 407 -17 b 308 -15 340 -17 326 -16 b 265 -10 290 -13 275 -12 l 279 69 b 313 65 288 68 299 66 b 350 64 328 64 340 64 b 453 78 384 64 419 69 b 545 125 487 87 518 103 b 612 212 572 147 595 176 b 638 344 629 247 638 292 b 576 496 638 406 617 457 b 407 554 534 535 478 554 l 394 554 l 410 638 l 421 638 b 508 650 451 638 481 642 b 582 688 536 658 561 671 b 633 749 603 704 620 725 b 651 832 645 773 651 800 b 608 945 651 882 637 920 b 493 983 578 971 540 983 b 393 961 453 983 420 976 b 326 905 366 946 344 928 b 286 830 309 882 295 857 b 267 753 277 803 270 777 l 133 0 "},"à":{"ha":742,"x_min":0,"x_max":0,"o":"m 532 399 b 538 435 535 414 537 427 b 539 460 538 444 539 452 b 499 560 539 507 525 540 b 386 589 472 579 434 589 b 274 566 347 589 310 581 b 183 511 238 551 207 532 l 142 574 b 258 641 173 601 212 624 b 396 667 305 658 350 667 b 484 656 426 667 456 663 b 558 623 512 649 537 638 b 608 565 578 608 595 588 b 626 479 620 541 626 513 b 625 445 626 471 626 459 b 621 410 624 431 623 419 l 574 146 b 563 68 569 121 565 95 b 558 0 560 41 558 19 l 475 0 b 477 51 475 16 476 33 b 483 106 478 70 481 88 l 481 106 b 425 51 462 84 444 66 b 367 14 406 35 387 23 b 303 -6 347 5 326 -2 b 229 -12 281 -10 256 -12 b 161 -4 207 -12 184 -10 b 98 24 138 1 117 11 b 51 76 79 38 63 55 b 32 156 38 98 32 124 b 76 281 32 207 47 249 b 192 355 106 313 145 338 b 353 390 240 372 294 384 b 532 399 412 396 472 399 m 497 328 b 369 322 456 328 413 326 b 251 298 326 317 286 309 b 163 249 215 286 186 270 b 129 167 141 228 129 201 b 140 116 129 146 133 129 b 170 84 148 103 158 92 b 213 67 183 76 197 71 b 263 63 229 64 246 63 b 354 79 296 63 326 68 b 428 125 382 90 406 106 b 481 192 449 144 467 167 b 510 274 494 218 504 245 l 519 328 l 497 328 m 357 983 l 496 783 l 418 783 l 235 983 "},"á":{"ha":742,"x_min":0,"x_max":0,"o":"m 532 399 b 538 435 535 414 537 427 b 539 460 538 444 539 452 b 499 560 539 507 525 540 b 386 589 472 579 434 589 b 274 566 347 589 310 581 b 183 511 238 551 207 532 l 142 574 b 258 641 173 601 212 624 b 396 667 305 658 350 667 b 484 656 426 667 456 663 b 558 623 512 649 537 638 b 608 565 578 608 595 588 b 626 479 620 541 626 513 b 625 445 626 471 626 459 b 621 410 624 431 623 419 l 574 146 b 563 68 569 121 565 95 b 558 0 560 41 558 19 l 475 0 b 477 51 475 16 476 33 b 483 106 478 70 481 88 l 481 106 b 425 51 462 84 444 66 b 367 14 406 35 387 23 b 303 -6 347 5 326 -2 b 229 -12 281 -10 256 -12 b 161 -4 207 -12 184 -10 b 98 24 138 1 117 11 b 51 76 79 38 63 55 b 32 156 38 98 32 124 b 76 281 32 207 47 249 b 192 355 106 313 145 338 b 353 390 240 372 294 384 b 532 399 412 396 472 399 m 497 328 b 369 322 456 328 413 326 b 251 298 326 317 286 309 b 163 249 215 286 186 270 b 129 167 141 228 129 201 b 140 116 129 146 133 129 b 170 84 148 103 158 92 b 213 67 183 76 197 71 b 263 63 229 64 246 63 b 354 79 296 63 326 68 b 428 125 382 90 406 106 b 481 192 449 144 467 167 b 510 274 494 218 504 245 l 519 328 l 497 328 m 358 783 l 533 983 l 656 983 l 436 783 "},"â":{"ha":742,"x_min":0,"x_max":0,"o":"m 532 399 b 538 435 535 414 537 427 b 539 460 538 444 539 452 b 499 560 539 507 525 540 b 386 589 472 579 434 589 b 274 566 347 589 310 581 b 183 511 238 551 207 532 l 142 574 b 258 641 173 601 212 624 b 396 667 305 658 350 667 b 484 656 426 667 456 663 b 558 623 512 649 537 638 b 608 565 578 608 595 588 b 626 479 620 541 626 513 b 625 445 626 471 626 459 b 621 410 624 431 623 419 l 574 146 b 563 68 569 121 565 95 b 558 0 560 41 558 19 l 475 0 b 477 51 475 16 476 33 b 483 106 478 70 481 88 l 481 106 b 425 51 462 84 444 66 b 367 14 406 35 387 23 b 303 -6 347 5 326 -2 b 229 -12 281 -10 256 -12 b 161 -4 207 -12 184 -10 b 98 24 138 1 117 11 b 51 76 79 38 63 55 b 32 156 38 98 32 124 b 76 281 32 207 47 249 b 192 355 106 313 145 338 b 353 390 240 372 294 384 b 532 399 412 396 472 399 m 497 328 b 369 322 456 328 413 326 b 251 298 326 317 286 309 b 163 249 215 286 186 270 b 129 167 141 228 129 201 b 140 116 129 146 133 129 b 170 84 148 103 158 92 b 213 67 183 76 197 71 b 263 63 229 64 246 63 b 354 79 296 63 326 68 b 428 125 382 90 406 106 b 481 192 449 144 467 167 b 510 274 494 218 504 245 l 519 328 l 497 328 m 554 783 l 465 933 l 324 783 l 228 783 l 415 983 l 526 983 l 642 783 "},"ã":{"ha":742,"x_min":0,"x_max":0,"o":"m 532 399 b 538 435 535 414 537 427 b 539 460 538 444 539 452 b 499 560 539 507 525 540 b 386 589 472 579 434 589 b 274 566 347 589 310 581 b 183 511 238 551 207 532 l 142 574 b 258 641 173 601 212 624 b 396 667 305 658 350 667 b 484 656 426 667 456 663 b 558 623 512 649 537 638 b 608 565 578 608 595 588 b 626 479 620 541 626 513 b 625 445 626 471 626 459 b 621 410 624 431 623 419 l 574 146 b 563 68 569 121 565 95 b 558 0 560 41 558 19 l 475 0 b 477 51 475 16 476 33 b 483 106 478 70 481 88 l 481 106 b 425 51 462 84 444 66 b 367 14 406 35 387 23 b 303 -6 347 5 326 -2 b 229 -12 281 -10 256 -12 b 161 -4 207 -12 184 -10 b 98 24 138 1 117 11 b 51 76 79 38 63 55 b 32 156 38 98 32 124 b 76 281 32 207 47 249 b 192 355 106 313 145 338 b 353 390 240 372 294 384 b 532 399 412 396 472 399 m 497 328 b 369 322 456 328 413 326 b 251 298 326 317 286 309 b 163 249 215 286 186 270 b 129 167 141 228 129 201 b 140 116 129 146 133 129 b 170 84 148 103 158 92 b 213 67 183 76 197 71 b 263 63 229 64 246 63 b 354 79 296 63 326 68 b 428 125 382 90 406 106 b 481 192 449 144 467 167 b 510 274 494 218 504 245 l 519 328 l 497 328 m 208 800 b 231 853 215 818 222 835 b 263 899 240 870 251 886 b 306 932 276 913 290 924 b 361 944 321 940 340 944 b 410 935 378 944 394 941 b 457 913 425 928 441 921 b 502 891 473 905 488 898 b 544 881 516 884 531 881 b 595 902 566 881 583 888 b 625 950 608 916 618 932 l 685 950 b 661 897 678 931 670 914 b 628 851 652 879 641 864 b 585 818 616 837 602 826 b 531 806 569 810 551 806 b 482 816 514 806 498 809 b 435 838 466 823 450 830 b 391 860 420 846 405 853 b 347 869 377 866 362 869 b 297 848 326 869 309 862 b 268 800 285 834 275 818 l 208 800 "},"ä":{"ha":742,"x_min":0,"x_max":0,"o":"m 532 399 b 538 435 535 414 537 427 b 539 460 538 444 539 452 b 499 560 539 507 525 540 b 386 589 472 579 434 589 b 274 566 347 589 310 581 b 183 511 238 551 207 532 l 142 574 b 258 641 173 601 212 624 b 396 667 305 658 350 667 b 484 656 426 667 456 663 b 558 623 512 649 537 638 b 608 565 578 608 595 588 b 626 479 620 541 626 513 b 625 445 626 471 626 459 b 621 410 624 431 623 419 l 574 146 b 563 68 569 121 565 95 b 558 0 560 41 558 19 l 475 0 b 477 51 475 16 476 33 b 483 106 478 70 481 88 l 481 106 b 425 51 462 84 444 66 b 367 14 406 35 387 23 b 303 -6 347 5 326 -2 b 229 -12 281 -10 256 -12 b 161 -4 207 -12 184 -10 b 98 24 138 1 117 11 b 51 76 79 38 63 55 b 32 156 38 98 32 124 b 76 281 32 207 47 249 b 192 355 106 313 145 338 b 353 390 240 372 294 384 b 532 399 412 396 472 399 m 497 328 b 369 322 456 328 413 326 b 251 298 326 317 286 309 b 163 249 215 286 186 270 b 129 167 141 228 129 201 b 140 116 129 146 133 129 b 170 84 148 103 158 92 b 213 67 183 76 197 71 b 263 63 229 64 246 63 b 354 79 296 63 326 68 b 428 125 382 90 406 106 b 481 192 449 144 467 167 b 510 274 494 218 504 245 l 519 328 l 497 328 m 379 901 b 360 853 379 883 373 867 b 313 832 347 839 331 832 b 265 849 294 832 278 838 b 246 897 252 861 246 877 b 267 948 246 918 253 934 b 315 968 281 961 297 968 b 361 950 334 968 349 962 b 379 901 373 938 379 922 m 654 901 b 634 853 654 883 647 867 b 586 832 621 839 605 832 b 540 849 568 832 552 838 b 521 897 527 861 521 877 b 541 948 521 918 528 934 b 589 968 554 961 570 968 b 635 950 607 968 623 962 b 654 901 648 938 654 922 "},"å":{"ha":742,"x_min":0,"x_max":0,"o":"m 532 399 b 538 435 535 414 537 427 b 539 460 538 444 539 452 b 499 560 539 507 525 540 b 386 589 472 579 434 589 b 274 566 347 589 310 581 b 183 511 238 551 207 532 l 142 574 b 258 641 173 601 212 624 b 396 667 305 658 350 667 b 484 656 426 667 456 663 b 558 623 512 649 537 638 b 608 565 578 608 595 588 b 626 479 620 541 626 513 b 625 445 626 471 626 459 b 621 410 624 431 623 419 l 574 146 b 563 68 569 121 565 95 b 558 0 560 41 558 19 l 475 0 b 477 51 475 16 476 33 b 483 106 478 70 481 88 l 481 106 b 425 51 462 84 444 66 b 367 14 406 35 387 23 b 303 -6 347 5 326 -2 b 229 -12 281 -10 256 -12 b 161 -4 207 -12 184 -10 b 98 24 138 1 117 11 b 51 76 79 38 63 55 b 32 156 38 98 32 124 b 76 281 32 207 47 249 b 192 355 106 313 145 338 b 353 390 240 372 294 384 b 532 399 412 396 472 399 m 497 328 b 369 322 456 328 413 326 b 251 298 326 317 286 309 b 163 249 215 286 186 270 b 129 167 141 228 129 201 b 140 116 129 146 133 129 b 170 84 148 103 158 92 b 213 67 183 76 197 71 b 263 63 229 64 246 63 b 354 79 296 63 326 68 b 428 125 382 90 406 106 b 481 192 449 144 467 167 b 510 274 494 218 504 245 l 519 328 l 497 328 m 436 769 b 351 800 401 769 372 780 b 318 879 329 820 318 847 b 329 940 318 900 322 921 b 360 990 337 959 347 975 b 408 1024 374 1004 390 1015 b 468 1036 426 1032 446 1036 b 553 1006 503 1036 532 1026 b 586 926 575 985 586 959 b 544 815 586 883 572 846 b 436 769 517 785 481 769 m 539 924 b 519 975 539 944 532 961 b 465 996 506 989 488 996 b 394 963 437 996 413 985 b 367 883 376 940 367 914 b 386 831 367 862 373 845 b 439 811 399 818 417 811 b 511 844 469 811 493 822 b 539 924 530 867 539 893 "},"æ":{"ha":1228,"x_min":0,"x_max":0,"o":"m 614 540 b 660 590 626 558 641 574 b 723 630 679 605 700 618 b 793 657 746 641 769 650 b 865 667 817 663 841 667 b 1067 596 954 667 1022 643 b 1136 413 1113 549 1136 488 b 1133 362 1136 401 1135 384 b 1124 300 1131 339 1128 319 l 600 300 b 598 284 599 294 598 289 b 597 269 597 279 597 274 b 611 186 597 239 602 211 b 651 121 620 161 634 139 b 713 78 668 102 688 88 b 793 63 737 68 763 63 b 926 97 844 63 888 74 b 1018 176 964 119 995 146 l 1076 121 b 944 18 1038 75 994 41 b 785 -17 894 -5 841 -17 b 703 -4 756 -17 729 -12 b 631 31 677 4 653 16 b 576 83 609 45 591 63 b 540 147 560 103 549 124 b 428 31 513 98 476 59 b 250 -12 381 2 321 -12 b 172 -4 224 -12 198 -10 b 102 24 146 1 123 11 b 51 76 81 38 64 55 b 32 156 38 98 32 124 b 76 270 32 204 47 242 b 189 335 105 298 143 320 b 347 363 235 350 288 359 b 525 369 405 367 465 369 b 535 421 529 385 532 402 b 539 460 538 439 539 452 b 499 560 539 507 525 540 b 386 589 472 579 434 589 b 274 566 347 589 310 581 b 183 511 238 551 207 532 l 142 574 b 258 641 173 601 212 624 b 396 667 305 658 350 667 b 531 637 446 667 491 657 b 614 540 570 617 598 585 m 492 300 b 355 294 444 300 399 298 b 239 274 311 291 272 284 b 159 234 206 265 179 251 b 129 167 139 217 129 194 b 140 116 129 146 133 129 b 170 84 148 103 158 92 b 213 67 183 76 197 71 b 263 63 229 64 246 63 b 355 78 296 63 327 68 b 429 123 383 89 408 104 b 482 190 450 142 468 164 b 510 274 496 215 505 243 l 514 300 l 492 300 m 1040 369 b 1042 394 1041 377 1042 385 b 1043 418 1043 403 1043 411 b 997 541 1043 468 1028 509 b 863 589 967 573 922 589 b 773 572 830 589 800 583 b 699 524 746 560 721 544 b 644 453 678 503 659 480 b 613 369 630 427 619 399 l 1040 369 "},"ç":{"ha":694,"x_min":0,"x_max":0,"o":"m 592 503 b 534 565 581 528 561 548 b 440 589 507 581 475 589 b 325 564 399 589 360 581 b 234 495 290 547 259 524 b 174 394 209 466 189 432 b 153 271 160 355 153 314 b 167 188 153 241 157 214 b 208 122 176 163 190 141 b 274 78 226 104 248 89 b 363 63 300 68 329 63 b 472 86 404 63 441 70 b 554 147 504 102 531 122 l 614 96 b 506 17 581 63 546 37 b 369 -17 467 -4 421 -15 l 300 -104 b 322 -100 307 -102 315 -101 b 343 -99 328 -99 336 -99 b 378 -103 354 -99 366 -100 b 412 -119 391 -107 402 -112 b 436 -148 422 -127 430 -136 b 446 -192 443 -159 446 -174 b 430 -252 446 -216 441 -236 b 389 -291 419 -268 406 -281 b 335 -312 372 -301 354 -308 b 279 -319 315 -317 297 -319 b 212 -312 261 -319 238 -317 b 144 -292 185 -308 163 -301 l 171 -242 b 220 -257 186 -249 202 -254 b 274 -261 238 -260 256 -261 b 305 -258 284 -261 294 -260 b 335 -248 316 -256 325 -253 b 357 -228 344 -243 351 -236 b 365 -199 363 -221 365 -211 b 345 -158 365 -180 359 -167 b 296 -146 332 -150 315 -146 b 235 -157 275 -146 255 -150 l 214 -136 l 311 -14 b 204 14 271 -10 236 -1 b 124 72 173 29 146 48 b 72 157 101 96 84 125 b 54 263 60 189 54 225 b 82 419 54 318 63 370 b 160 548 100 469 127 511 b 283 635 194 584 235 613 b 443 667 331 656 385 667 b 578 640 491 667 536 658 b 674 557 621 623 652 595 l 592 503 "},"è":{"ha":786,"x_min":0,"x_max":0,"o":"m 144 300 b 142 284 144 294 143 289 b 142 269 142 279 142 274 b 158 186 142 239 147 211 b 202 121 168 161 183 139 b 269 78 221 102 243 88 b 351 63 294 68 322 63 b 485 97 402 63 447 74 b 576 176 523 119 553 146 l 635 121 b 503 18 597 75 553 41 b 343 -17 453 -5 400 -17 b 226 3 301 -17 263 -10 b 133 58 190 16 159 34 b 70 148 106 82 85 112 b 47 269 55 184 47 224 b 76 421 47 322 57 373 b 156 547 96 469 122 511 b 276 634 190 583 230 612 b 424 667 322 656 371 667 b 626 596 513 667 580 643 b 694 413 672 549 694 488 b 692 362 694 401 694 384 b 682 300 690 339 687 319 l 144 300 m 599 369 b 601 394 600 377 600 385 b 601 418 601 403 601 411 b 556 541 601 468 586 509 b 421 589 525 573 480 589 b 326 572 387 589 355 583 b 248 524 297 560 271 544 b 190 453 225 503 206 480 b 157 369 175 427 163 399 l 599 369 m 363 983 l 501 783 l 424 783 l 240 983 "},"é":{"ha":786,"x_min":0,"x_max":0,"o":"m 144 300 b 142 284 144 294 143 289 b 142 269 142 279 142 274 b 158 186 142 239 147 211 b 202 121 168 161 183 139 b 269 78 221 102 243 88 b 351 63 294 68 322 63 b 485 97 402 63 447 74 b 576 176 523 119 553 146 l 635 121 b 503 18 597 75 553 41 b 343 -17 453 -5 400 -17 b 226 3 301 -17 263 -10 b 133 58 190 16 159 34 b 70 148 106 82 85 112 b 47 269 55 184 47 224 b 76 421 47 322 57 373 b 156 547 96 469 122 511 b 276 634 190 583 230 612 b 424 667 322 656 371 667 b 626 596 513 667 580 643 b 694 413 672 549 694 488 b 692 362 694 401 694 384 b 682 300 690 339 687 319 l 144 300 m 599 369 b 601 394 600 377 600 385 b 601 418 601 403 601 411 b 556 541 601 468 586 509 b 421 589 525 573 480 589 b 326 572 387 589 355 583 b 248 524 297 560 271 544 b 190 453 225 503 206 480 b 157 369 175 427 163 399 l 599 369 m 372 783 l 547 983 l 669 983 l 450 783 "},"ê":{"ha":786,"x_min":0,"x_max":0,"o":"m 144 300 b 142 284 144 294 143 289 b 142 269 142 279 142 274 b 158 186 142 239 147 211 b 202 121 168 161 183 139 b 269 78 221 102 243 88 b 351 63 294 68 322 63 b 485 97 402 63 447 74 b 576 176 523 119 553 146 l 635 121 b 503 18 597 75 553 41 b 343 -17 453 -5 400 -17 b 226 3 301 -17 263 -10 b 133 58 190 16 159 34 b 70 148 106 82 85 112 b 47 269 55 184 47 224 b 76 421 47 322 57 373 b 156 547 96 469 122 511 b 276 634 190 583 230 612 b 424 667 322 656 371 667 b 626 596 513 667 580 643 b 694 413 672 549 694 488 b 692 362 694 401 694 384 b 682 300 690 339 687 319 l 144 300 m 599 369 b 601 394 600 377 600 385 b 601 418 601 403 601 411 b 556 541 601 468 586 509 b 421 589 525 573 480 589 b 326 572 387 589 355 583 b 248 524 297 560 271 544 b 190 453 225 503 206 480 b 157 369 175 427 163 399 l 599 369 m 583 783 l 494 933 l 353 783 l 257 783 l 444 983 l 556 983 l 671 783 "},"ë":{"ha":786,"x_min":0,"x_max":0,"o":"m 144 300 b 142 284 144 294 143 289 b 142 269 142 279 142 274 b 158 186 142 239 147 211 b 202 121 168 161 183 139 b 269 78 221 102 243 88 b 351 63 294 68 322 63 b 485 97 402 63 447 74 b 576 176 523 119 553 146 l 635 121 b 503 18 597 75 553 41 b 343 -17 453 -5 400 -17 b 226 3 301 -17 263 -10 b 133 58 190 16 159 34 b 70 148 106 82 85 112 b 47 269 55 184 47 224 b 76 421 47 322 57 373 b 156 547 96 469 122 511 b 276 634 190 583 230 612 b 424 667 322 656 371 667 b 626 596 513 667 580 643 b 694 413 672 549 694 488 b 692 362 694 401 694 384 b 682 300 690 339 687 319 l 144 300 m 599 369 b 601 394 600 377 600 385 b 601 418 601 403 601 411 b 556 541 601 468 586 509 b 421 589 525 573 480 589 b 326 572 387 589 355 583 b 248 524 297 560 271 544 b 190 453 225 503 206 480 b 157 369 175 427 163 399 l 599 369 m 406 901 b 386 853 406 883 399 867 b 339 832 373 839 357 832 b 292 849 320 832 305 838 b 272 897 279 861 272 877 b 293 948 272 918 279 934 b 342 968 307 961 323 968 b 388 950 360 968 375 962 b 406 901 400 938 406 922 m 681 901 b 660 853 681 883 674 867 b 613 832 647 839 631 832 b 566 849 594 832 578 838 b 547 897 553 861 547 877 b 567 948 547 918 554 934 b 615 968 581 961 597 968 b 662 950 634 968 649 962 b 681 901 674 938 681 922 "},"ì":{"ha":347,"x_min":0,"x_max":0,"o":"m 51 0 l 167 650 l 260 650 l 144 0 m 149 983 l 288 783 l 210 783 l 26 983 "},"í":{"ha":347,"x_min":0,"x_max":0,"o":"m 51 0 l 167 650 l 260 650 l 144 0 m 183 783 l 358 983 l 481 983 l 261 783 "},"î":{"ha":347,"x_min":0,"x_max":0,"o":"m 51 0 l 167 650 l 260 650 l 144 0 m 356 783 l 267 933 l 125 783 l 29 783 l 217 983 l 328 983 l 443 783 "},"ï":{"ha":347,"x_min":0,"x_max":0,"o":"m 51 0 l 167 650 l 260 650 l 144 0 m 179 901 b 160 853 179 883 173 867 b 113 832 147 839 131 832 b 65 849 94 832 78 838 b 46 897 52 861 46 877 b 67 948 46 918 53 934 b 115 968 81 961 97 968 b 161 950 134 968 149 962 b 179 901 173 938 179 922 m 454 901 b 434 853 454 883 447 867 b 386 832 421 839 405 832 b 340 849 368 832 352 838 b 321 897 327 861 321 877 b 341 948 321 918 328 934 b 389 968 354 961 370 968 b 435 950 407 968 423 962 b 454 901 448 938 454 922 "},"ð":{"ha":828,"x_min":0,"x_max":0,"o":"m 446 667 b 558 647 490 667 528 660 b 647 586 589 634 619 614 l 651 589 b 584 742 636 642 613 693 b 483 875 555 792 521 836 l 314 796 l 272 846 l 439 924 b 378 982 420 945 400 964 b 319 1029 357 1000 337 1015 l 404 1081 b 467 1024 425 1062 446 1043 b 524 967 487 1005 506 986 l 678 1040 l 725 992 l 568 917 b 702 704 625 855 669 784 b 751 451 735 625 751 540 b 731 285 751 396 745 340 b 665 134 718 229 696 179 b 543 25 634 89 593 53 b 360 -17 493 -3 432 -17 b 239 4 316 -17 276 -10 b 144 62 202 18 170 37 b 82 151 117 86 97 116 b 60 265 67 185 60 224 b 88 420 60 320 69 372 b 168 548 107 469 134 511 b 290 635 202 584 243 613 b 446 667 338 656 389 667 m 649 381 b 635 463 649 410 644 438 b 594 529 625 489 612 511 b 528 573 576 548 554 562 b 440 589 502 584 473 589 b 328 563 400 589 362 580 b 239 494 294 546 264 523 b 180 392 214 465 194 431 b 158 271 166 354 158 313 b 172 188 158 241 163 214 b 213 122 181 163 195 141 b 278 78 231 104 253 89 b 365 63 304 68 333 63 b 480 88 407 63 445 71 b 569 157 515 105 544 128 b 628 258 594 186 614 219 b 649 381 642 296 649 337 "},"ñ":{"ha":801,"x_min":0,"x_max":0,"o":"m 250 650 b 243 592 248 632 246 613 b 235 539 240 570 238 553 l 238 539 b 334 633 263 579 295 610 b 460 667 373 655 415 667 b 624 613 530 667 585 649 b 683 468 664 578 683 529 b 681 435 683 457 683 446 b 676 399 680 424 678 412 l 606 0 l 513 0 l 576 360 b 585 442 582 388 585 416 b 553 549 585 487 574 523 b 440 589 531 576 494 589 b 365 574 415 589 390 584 b 295 526 340 563 317 548 b 238 447 273 505 254 478 b 201 333 221 415 209 377 l 143 0 l 50 0 l 139 507 b 151 575 143 525 147 547 b 160 650 155 603 158 628 l 250 650 m 233 800 b 256 853 240 818 247 835 b 288 899 265 870 276 886 b 331 932 301 913 315 924 b 386 944 346 940 365 944 b 435 935 403 944 419 941 b 482 913 450 928 466 921 b 527 891 498 905 513 898 b 569 881 541 884 556 881 b 620 902 591 881 608 888 b 650 950 633 916 643 932 l 710 950 b 686 897 703 931 695 914 b 653 851 677 879 666 864 b 610 818 641 837 627 826 b 556 806 594 810 576 806 b 507 816 539 806 523 809 b 460 838 491 823 475 830 b 416 860 445 846 430 853 b 372 869 402 866 387 869 b 322 848 351 869 334 862 b 293 800 310 834 300 818 l 233 800 "},"ò":{"ha":828,"x_min":0,"x_max":0,"o":"m 347 -17 b 226 4 304 -17 263 -10 b 131 62 189 18 158 37 b 69 151 105 86 84 116 b 47 265 55 185 47 224 b 76 420 47 320 57 372 b 156 548 95 469 121 511 b 278 635 190 584 231 613 b 433 667 325 656 377 667 b 555 647 478 667 518 660 b 649 589 591 633 623 614 b 711 500 676 564 696 534 b 733 386 726 466 733 428 b 705 229 733 331 724 278 b 625 101 686 180 659 137 b 503 15 591 65 550 37 b 347 -17 456 -6 404 -17 m 636 381 b 622 463 636 410 631 438 b 581 529 613 489 599 511 b 515 573 563 548 541 562 b 428 589 489 584 460 589 b 315 563 387 589 350 580 b 226 494 281 546 251 523 b 167 392 201 465 182 431 b 146 271 153 354 146 313 b 160 188 146 241 150 214 b 201 122 169 163 183 141 b 266 78 219 104 241 89 b 353 63 291 68 320 63 b 467 88 394 63 433 71 b 557 157 502 105 532 128 b 615 258 582 186 601 219 b 636 381 629 296 636 337 m 379 983 l 518 783 l 440 783 l 257 983 "},"ó":{"ha":828,"x_min":0,"x_max":0,"o":"m 347 -17 b 226 4 304 -17 263 -10 b 131 62 189 18 158 37 b 69 151 105 86 84 116 b 47 265 55 185 47 224 b 76 420 47 320 57 372 b 156 548 95 469 121 511 b 278 635 190 584 231 613 b 433 667 325 656 377 667 b 555 647 478 667 518 660 b 649 589 591 633 623 614 b 711 500 676 564 696 534 b 733 386 726 466 733 428 b 705 229 733 331 724 278 b 625 101 686 180 659 137 b 503 15 591 65 550 37 b 347 -17 456 -6 404 -17 m 636 381 b 622 463 636 410 631 438 b 581 529 613 489 599 511 b 515 573 563 548 541 562 b 428 589 489 584 460 589 b 315 563 387 589 350 580 b 226 494 281 546 251 523 b 167 392 201 465 182 431 b 146 271 153 354 146 313 b 160 188 146 241 150 214 b 201 122 169 163 183 141 b 266 78 219 104 241 89 b 353 63 291 68 320 63 b 467 88 394 63 433 71 b 557 157 502 105 532 128 b 615 258 582 186 601 219 b 636 381 629 296 636 337 m 392 783 l 567 983 l 689 983 l 469 783 "},"ô":{"ha":828,"x_min":0,"x_max":0,"o":"m 347 -17 b 226 4 304 -17 263 -10 b 131 62 189 18 158 37 b 69 151 105 86 84 116 b 47 265 55 185 47 224 b 76 420 47 320 57 372 b 156 548 95 469 121 511 b 278 635 190 584 231 613 b 433 667 325 656 377 667 b 555 647 478 667 518 660 b 649 589 591 633 623 614 b 711 500 676 564 696 534 b 733 386 726 466 733 428 b 705 229 733 331 724 278 b 625 101 686 180 659 137 b 503 15 591 65 550 37 b 347 -17 456 -6 404 -17 m 636 381 b 622 463 636 410 631 438 b 581 529 613 489 599 511 b 515 573 563 548 541 562 b 428 589 489 584 460 589 b 315 563 387 589 350 580 b 226 494 281 546 251 523 b 167 392 201 465 182 431 b 146 271 153 354 146 313 b 160 188 146 241 150 214 b 201 122 169 163 183 141 b 266 78 219 104 241 89 b 353 63 291 68 320 63 b 467 88 394 63 433 71 b 557 157 502 105 532 128 b 615 258 582 186 601 219 b 636 381 629 296 636 337 m 597 783 l 508 933 l 367 783 l 271 783 l 458 983 l 569 983 l 685 783 "},"õ":{"ha":828,"x_min":0,"x_max":0,"o":"m 347 -17 b 226 4 304 -17 263 -10 b 131 62 189 18 158 37 b 69 151 105 86 84 116 b 47 265 55 185 47 224 b 76 420 47 320 57 372 b 156 548 95 469 121 511 b 278 635 190 584 231 613 b 433 667 325 656 377 667 b 555 647 478 667 518 660 b 649 589 591 633 623 614 b 711 500 676 564 696 534 b 733 386 726 466 733 428 b 705 229 733 331 724 278 b 625 101 686 180 659 137 b 503 15 591 65 550 37 b 347 -17 456 -6 404 -17 m 636 381 b 622 463 636 410 631 438 b 581 529 613 489 599 511 b 515 573 563 548 541 562 b 428 589 489 584 460 589 b 315 563 387 589 350 580 b 226 494 281 546 251 523 b 167 392 201 465 182 431 b 146 271 153 354 146 313 b 160 188 146 241 150 214 b 201 122 169 163 183 141 b 266 78 219 104 241 89 b 353 63 291 68 320 63 b 467 88 394 63 433 71 b 557 157 502 105 532 128 b 615 258 582 186 601 219 b 636 381 629 296 636 337 m 242 800 b 265 853 248 818 256 835 b 297 899 273 870 284 886 b 339 932 309 913 323 924 b 394 944 355 940 373 944 b 443 935 411 944 427 941 b 490 913 459 928 475 921 b 535 891 506 905 521 898 b 578 881 550 884 564 881 b 628 902 599 881 616 888 b 658 950 641 916 651 932 l 718 950 b 694 897 712 931 704 914 b 662 851 685 879 674 864 b 619 818 649 837 635 826 b 564 806 603 810 584 806 b 515 816 547 806 531 809 b 468 838 500 823 484 830 b 424 860 453 846 439 853 b 381 869 410 866 395 869 b 331 848 359 869 343 862 b 301 800 319 834 309 818 l 242 800 "},"ö":{"ha":828,"x_min":0,"x_max":0,"o":"m 347 -17 b 226 4 304 -17 263 -10 b 131 62 189 18 158 37 b 69 151 105 86 84 116 b 47 265 55 185 47 224 b 76 420 47 320 57 372 b 156 548 95 469 121 511 b 278 635 190 584 231 613 b 433 667 325 656 377 667 b 555 647 478 667 518 660 b 649 589 591 633 623 614 b 711 500 676 564 696 534 b 733 386 726 466 733 428 b 705 229 733 331 724 278 b 625 101 686 180 659 137 b 503 15 591 65 550 37 b 347 -17 456 -6 404 -17 m 636 381 b 622 463 636 410 631 438 b 581 529 613 489 599 511 b 515 573 563 548 541 562 b 428 589 489 584 460 589 b 315 563 387 589 350 580 b 226 494 281 546 251 523 b 167 392 201 465 182 431 b 146 271 153 354 146 313 b 160 188 146 241 150 214 b 201 122 169 163 183 141 b 266 78 219 104 241 89 b 353 63 291 68 320 63 b 467 88 394 63 433 71 b 557 157 502 105 532 128 b 615 258 582 186 601 219 b 636 381 629 296 636 337 m 413 901 b 393 853 413 883 406 867 b 346 832 380 839 364 832 b 299 849 327 832 312 838 b 279 897 286 861 279 877 b 300 948 279 918 286 934 b 349 968 314 961 330 968 b 394 950 367 968 382 962 b 413 901 406 938 413 922 m 688 901 b 667 853 688 883 681 867 b 619 832 654 839 638 832 b 573 849 601 832 585 838 b 554 897 560 861 554 877 b 574 948 554 918 561 934 b 622 968 588 961 604 968 b 669 950 641 968 656 962 b 688 901 681 938 688 922 "},"÷":{"ha":925,"x_min":0,"x_max":0,"o":"m 108 379 l 108 463 l 817 463 l 817 379 m 538 646 b 517 594 538 626 531 609 b 463 571 503 578 485 571 b 408 594 440 571 422 578 b 388 646 394 609 388 626 b 408 698 388 665 394 683 b 463 721 422 713 440 721 b 517 698 485 721 503 713 b 538 646 531 683 538 665 m 538 196 b 517 144 538 176 531 159 b 463 121 503 128 485 121 b 408 144 440 121 422 128 b 388 196 394 159 388 176 b 408 248 388 215 394 233 b 463 271 422 263 440 271 b 517 248 485 271 503 263 b 538 196 531 233 538 215 "},"ø":{"ha":828,"x_min":0,"x_max":0,"o":"m 682 551 b 733 386 716 506 733 451 b 705 229 733 331 724 278 b 625 101 686 180 659 137 b 503 15 591 65 550 37 b 347 -17 456 -6 404 -17 b 138 57 262 -17 192 8 l 28 -39 l -7 4 l 100 97 b 61 174 83 119 70 145 b 47 265 52 202 47 233 b 76 420 47 320 57 372 b 156 548 95 469 121 511 b 278 635 190 584 231 613 b 433 667 325 656 377 667 b 552 648 477 667 516 660 b 646 593 588 635 619 617 l 753 689 l 789 646 l 682 551 m 203 121 b 267 78 220 102 242 88 b 353 63 292 68 320 63 b 467 88 394 63 433 71 b 557 157 502 105 532 128 b 615 258 582 186 601 219 b 636 381 629 296 636 337 b 611 486 636 420 628 456 l 203 121 m 578 532 b 513 574 559 550 538 565 b 428 589 489 584 460 589 b 315 563 387 589 350 580 b 226 494 281 546 251 523 b 167 392 201 465 182 431 b 146 271 153 354 146 313 b 171 164 146 230 154 194 l 578 532 "},"ù":{"ha":801,"x_min":0,"x_max":0,"o":"m 506 0 b 513 58 507 18 510 37 b 521 111 515 80 518 97 l 518 111 b 422 17 493 71 461 40 b 296 -17 382 -5 340 -17 b 131 37 225 -17 171 1 b 72 182 92 72 72 121 b 74 215 72 193 73 204 b 79 251 76 226 77 238 l 150 650 l 243 650 l 179 290 b 171 208 174 261 171 233 b 203 101 171 163 181 127 b 315 63 224 75 262 62 b 390 78 340 63 365 68 b 460 124 415 88 439 103 b 518 203 482 145 501 172 b 554 317 535 235 547 273 l 613 650 l 706 650 l 617 143 b 605 75 613 125 609 103 b 596 0 601 47 598 22 l 506 0 m 344 983 l 483 783 l 406 783 l 222 983 "},"ú":{"ha":801,"x_min":0,"x_max":0,"o":"m 506 0 b 513 58 507 18 510 37 b 521 111 515 80 518 97 l 518 111 b 422 17 493 71 461 40 b 296 -17 382 -5 340 -17 b 131 37 225 -17 171 1 b 72 182 92 72 72 121 b 74 215 72 193 73 204 b 79 251 76 226 77 238 l 150 650 l 243 650 l 179 290 b 171 208 174 261 171 233 b 203 101 171 163 181 127 b 315 63 224 75 262 62 b 390 78 340 63 365 68 b 460 124 415 88 439 103 b 518 203 482 145 501 172 b 554 317 535 235 547 273 l 613 650 l 706 650 l 617 143 b 605 75 613 125 609 103 b 596 0 601 47 598 22 l 506 0 m 382 783 l 557 983 l 679 983 l 460 783 "},"û":{"ha":801,"x_min":0,"x_max":0,"o":"m 506 0 b 513 58 507 18 510 37 b 521 111 515 80 518 97 l 518 111 b 422 17 493 71 461 40 b 296 -17 382 -5 340 -17 b 131 37 225 -17 171 1 b 72 182 92 72 72 121 b 74 215 72 193 73 204 b 79 251 76 226 77 238 l 150 650 l 243 650 l 179 290 b 171 208 174 261 171 233 b 203 101 171 163 181 127 b 315 63 224 75 262 62 b 390 78 340 63 365 68 b 460 124 415 88 439 103 b 518 203 482 145 501 172 b 554 317 535 235 547 273 l 613 650 l 706 650 l 617 143 b 605 75 613 125 609 103 b 596 0 601 47 598 22 l 506 0 m 576 783 l 488 933 l 346 783 l 250 783 l 438 983 l 549 983 l 664 783 "},"ü":{"ha":801,"x_min":0,"x_max":0,"o":"m 506 0 b 513 58 507 18 510 37 b 521 111 515 80 518 97 l 518 111 b 422 17 493 71 461 40 b 296 -17 382 -5 340 -17 b 131 37 225 -17 171 1 b 72 182 92 72 72 121 b 74 215 72 193 73 204 b 79 251 76 226 77 238 l 150 650 l 243 650 l 179 290 b 171 208 174 261 171 233 b 203 101 171 163 181 127 b 315 63 224 75 262 62 b 390 78 340 63 365 68 b 460 124 415 88 439 103 b 518 203 482 145 501 172 b 554 317 535 235 547 273 l 613 650 l 706 650 l 617 143 b 605 75 613 125 609 103 b 596 0 601 47 598 22 l 506 0 m 397 901 b 378 853 397 883 391 867 b 331 832 365 839 349 832 b 283 849 312 832 296 838 b 264 897 270 861 264 877 b 285 948 264 918 271 934 b 333 968 299 961 315 968 b 379 950 352 968 367 962 b 397 901 391 938 397 922 m 672 901 b 652 853 672 883 666 867 b 604 832 639 839 623 832 b 558 849 586 832 570 838 b 539 897 545 861 539 877 b 559 948 539 918 546 934 b 607 968 572 961 588 968 b 653 950 625 968 641 962 b 672 901 666 938 672 922 "},"ý":{"ha":671,"x_min":0,"x_max":0,"o":"m 265 103 l 582 650 l 686 650 l 194 -168 b 100 -288 164 -218 132 -258 b -21 -333 68 -318 27 -333 b -100 -325 -48 -333 -74 -331 l -86 -239 b -25 -250 -66 -246 -45 -250 b 52 -220 5 -250 30 -240 b 117 -135 74 -200 95 -172 l 197 1 l 61 650 l 158 650 l 263 103 m 332 783 l 507 983 l 629 983 l 410 783 "},"þ":{"ha":872,"x_min":0,"x_max":0,"o":"m 246 544 b 286 592 256 561 269 577 b 342 631 303 606 322 619 b 410 657 363 642 386 650 b 485 667 434 663 459 667 b 605 647 529 667 569 660 b 697 589 641 633 671 614 b 757 500 723 564 743 534 b 778 386 771 466 778 428 b 749 229 778 331 768 278 b 669 101 729 180 703 137 b 548 15 635 65 595 37 b 396 -17 501 -6 450 -17 b 263 15 349 -17 304 -6 b 169 110 222 37 191 68 l 167 110 l 88 -333 l -6 -333 l 238 1050 l 331 1050 l 243 544 l 246 544 m 681 381 b 667 462 681 409 676 436 b 628 528 659 487 645 509 b 564 573 610 547 589 562 b 476 589 539 584 510 589 b 363 564 436 589 398 581 b 271 495 327 547 297 524 b 210 394 245 466 225 432 b 188 272 195 355 188 315 b 202 188 188 242 192 214 b 244 122 212 163 226 141 b 310 78 263 103 285 88 b 397 63 336 68 365 63 b 513 88 440 63 478 71 b 603 156 548 104 578 127 b 660 256 628 184 647 218 b 681 381 674 295 681 336 "},"ÿ":{"ha":671,"x_min":0,"x_max":0,"o":"m 265 103 l 582 650 l 686 650 l 194 -168 b 100 -288 164 -218 132 -258 b -21 -333 68 -318 27 -333 b -100 -325 -48 -333 -74 -331 l -86 -239 b -25 -250 -66 -246 -45 -250 b 52 -220 5 -250 30 -240 b 117 -135 74 -200 95 -172 l 197 1 l 61 650 l 158 650 l 263 103 m 332 901 b 313 853 332 883 325 867 b 265 832 300 839 284 832 b 218 849 247 832 231 838 b 199 897 205 861 199 877 b 219 948 199 918 206 934 b 268 968 233 961 250 968 b 314 950 287 968 302 962 b 332 901 326 938 332 922 m 607 901 b 587 853 607 883 600 867 b 539 832 573 839 557 832 b 492 849 520 832 505 838 b 474 897 480 861 474 877 b 494 948 474 918 480 934 b 542 968 507 961 523 968 b 588 950 560 968 576 962 b 607 901 601 938 607 922 "},"¤":{"ha":806,"x_min":0,"x_max":0,"o":"m 663 599 b 711 508 684 572 700 542 b 728 396 722 475 728 438 b 710 280 728 354 722 316 b 658 186 698 244 681 213 l 778 67 l 724 11 l 601 132 b 510 84 575 112 544 96 b 401 67 477 72 440 67 b 200 135 325 67 258 89 l 76 11 l 21 67 l 143 190 b 76 396 99 243 76 312 b 92 506 76 436 82 472 b 139 596 103 539 119 569 l 21 714 l 76 768 l 194 651 b 288 702 222 673 253 690 b 401 721 322 715 360 721 b 514 703 442 721 480 715 b 606 651 548 691 579 674 l 722 768 l 778 714 l 663 599 m 401 635 b 306 616 366 635 334 628 b 232 565 277 603 252 586 b 185 488 212 543 196 517 b 169 396 175 459 169 428 b 185 302 169 363 175 331 b 232 225 196 273 212 247 b 306 173 252 203 277 185 b 401 154 334 160 366 154 b 497 173 437 154 469 160 b 570 225 526 185 550 203 b 617 302 590 247 606 273 b 633 396 628 331 633 363 b 617 488 633 428 628 459 b 570 565 606 517 590 543 b 497 616 550 586 526 603 b 401 635 469 628 437 635 "},"¦":{"ha":308,"x_min":0,"x_max":0,"o":"m 196 451 l 113 451 l 113 938 l 196 938 m 196 -243 l 113 -243 l 113 243 l 196 243 "},"¨":{"ha":333,"x_min":0,"x_max":0,"o":"m 178 901 b 158 853 178 883 171 867 b 111 832 145 839 130 832 b 64 849 93 832 77 838 b 44 897 51 861 44 877 b 65 948 44 918 51 934 b 114 968 79 961 95 968 b 160 950 132 968 148 962 b 178 901 172 938 178 922 m 453 901 b 433 853 453 883 446 867 b 385 832 419 839 403 832 b 338 849 366 832 351 838 b 319 897 326 861 319 877 b 340 948 319 918 326 934 b 388 968 353 961 369 968 b 434 950 406 968 422 962 b 453 901 447 938 453 922 "},"´":{"ha":333,"x_min":0,"x_max":0,"o":"m 144 783 l 319 983 l 442 983 l 222 783 "},"¸":{"ha":333,"x_min":0,"x_max":0,"o":"m 58 -104 b 80 -100 66 -102 73 -101 b 101 -99 87 -99 94 -99 b 137 -103 113 -99 124 -100 b 170 -119 149 -107 160 -112 b 194 -148 180 -127 188 -136 b 204 -192 201 -159 204 -174 b 188 -252 204 -216 199 -236 b 147 -291 178 -268 164 -281 b 93 -312 131 -301 113 -308 b 38 -319 74 -317 55 -319 b -30 -312 19 -319 -3 -317 b -97 -292 -56 -308 -79 -301 l -71 -242 b -22 -257 -56 -249 -40 -254 b 32 -261 -3 -260 14 -261 b 63 -258 42 -261 53 -260 b 93 -248 74 -256 84 -253 b 115 -228 102 -243 110 -236 b 124 -199 121 -221 124 -211 b 103 -158 124 -180 117 -167 b 54 -146 90 -150 74 -146 b -7 -157 34 -146 13 -150 l -28 -136 l 82 0 l 142 0 l 58 -104 "},"¼":{"ha":1167,"x_min":0,"x_max":0,"o":"m 1058 211 l 1044 136 l 957 136 l 933 0 l 857 0 l 881 136 l 615 136 l 628 208 l 938 586 l 1032 586 l 967 211 m 717 211 l 890 211 l 936 472 l 932 472 m 232 397 l 317 878 l 214 799 l 172 856 l 350 983 l 421 983 l 317 397 m 153 -6 l 961 1026 l 1022 989 l 215 -43 "},"½":{"ha":1167,"x_min":0,"x_max":0,"o":"m 153 -6 l 961 1026 l 1022 989 l 215 -43 m 232 397 l 317 878 l 214 799 l 172 856 l 350 983 l 421 983 l 317 397 m 1031 0 l 640 0 l 654 83 l 914 301 b 986 376 948 330 972 355 b 1007 440 1000 398 1007 419 b 981 499 1007 464 998 484 b 911 522 964 515 941 522 b 842 496 884 522 861 513 b 799 425 823 478 809 455 l 722 446 b 798 555 738 492 763 528 b 917 594 833 581 872 594 b 1043 552 972 594 1014 580 b 1086 444 1072 524 1086 488 b 1077 387 1086 423 1083 404 b 1051 338 1071 370 1062 353 b 1008 291 1039 322 1025 306 b 951 242 992 276 973 259 l 749 75 l 1046 75 "},"¾":{"ha":1167,"x_min":0,"x_max":0,"o":"m 1058 211 l 1044 136 l 957 136 l 933 0 l 857 0 l 881 136 l 615 136 l 628 208 l 938 586 l 1032 586 l 967 211 m 717 211 l 890 211 l 936 472 l 932 472 m 271 743 b 380 772 321 743 357 753 b 414 849 403 791 414 816 b 390 906 414 873 406 892 b 328 926 375 919 354 926 b 263 908 301 926 279 920 b 218 857 246 896 231 879 l 154 897 b 232 975 175 932 200 958 b 338 1000 263 992 299 1000 b 452 962 384 1000 422 987 b 497 853 482 936 497 900 b 487 796 497 831 494 813 b 459 753 480 779 471 765 b 420 724 447 742 434 732 b 376 707 406 716 391 711 b 444 663 404 700 427 686 b 471 585 462 639 471 613 b 413 444 471 524 451 477 b 264 394 374 411 324 394 b 144 428 217 394 177 406 b 75 522 111 450 88 481 l 158 547 b 265 469 172 495 208 469 b 356 499 304 469 334 479 b 388 576 377 518 388 544 b 376 623 388 595 384 610 b 347 653 369 635 359 645 b 304 669 334 660 320 666 b 256 674 288 672 272 674 l 229 674 l 242 743 l 271 743 m 153 -6 l 961 1026 l 1022 989 l 215 -43 "},"Ā":{"ha":965,"x_min":0,"x_max":0,"o":"m -71 0 l 563 983 l 660 983 l 864 0 l 760 0 l 707 258 l 204 258 l 43 0 m 692 350 l 589 872 l 261 350 m 436 1111 l 449 1186 l 824 1186 l 811 1111 "},"ā":{"ha":742,"x_min":0,"x_max":0,"o":"m 532 399 b 538 435 535 414 537 427 b 539 460 538 444 539 452 b 499 560 539 507 525 540 b 386 589 472 579 434 589 b 274 566 347 589 310 581 b 183 511 238 551 207 532 l 142 574 b 258 641 173 601 212 624 b 396 667 305 658 350 667 b 484 656 426 667 456 663 b 558 623 512 649 537 638 b 608 565 578 608 595 588 b 626 479 620 541 626 513 b 625 445 626 471 626 459 b 621 410 624 431 623 419 l 574 146 b 563 68 569 121 565 95 b 558 0 560 41 558 19 l 475 0 b 477 51 475 16 476 33 b 483 106 478 70 481 88 l 481 106 b 425 51 462 84 444 66 b 367 14 406 35 387 23 b 303 -6 347 5 326 -2 b 229 -12 281 -10 256 -12 b 161 -4 207 -12 184 -10 b 98 24 138 1 117 11 b 51 76 79 38 63 55 b 32 156 38 98 32 124 b 76 281 32 207 47 249 b 192 355 106 313 145 338 b 353 390 240 372 294 384 b 532 399 412 396 472 399 m 497 328 b 369 322 456 328 413 326 b 251 298 326 317 286 309 b 163 249 215 286 186 270 b 129 167 141 228 129 201 b 140 116 129 146 133 129 b 170 84 148 103 158 92 b 213 67 183 76 197 71 b 263 63 229 64 246 63 b 354 79 296 63 326 68 b 428 125 382 90 406 106 b 481 192 449 144 467 167 b 510 274 494 218 504 245 l 519 328 l 497 328 m 246 833 l 258 908 l 633 908 l 621 833 "},"Ă":{"ha":965,"x_min":0,"x_max":0,"o":"m -71 0 l 563 983 l 660 983 l 864 0 l 760 0 l 707 258 l 204 258 l 43 0 m 692 350 l 589 872 l 261 350 m 843 1261 b 816 1187 838 1234 829 1209 b 766 1128 803 1164 786 1145 b 698 1091 746 1112 723 1100 b 618 1078 672 1082 646 1078 b 483 1124 561 1078 516 1093 b 435 1261 451 1154 435 1200 l 496 1261 b 531 1176 496 1220 508 1192 b 619 1153 555 1161 584 1153 b 724 1180 657 1153 692 1162 b 782 1261 755 1198 775 1225 l 843 1261 "},"ă":{"ha":742,"x_min":0,"x_max":0,"o":"m 532 399 b 538 435 535 414 537 427 b 539 460 538 444 539 452 b 499 560 539 507 525 540 b 386 589 472 579 434 589 b 274 566 347 589 310 581 b 183 511 238 551 207 532 l 142 574 b 258 641 173 601 212 624 b 396 667 305 658 350 667 b 484 656 426 667 456 663 b 558 623 512 649 537 638 b 608 565 578 608 595 588 b 626 479 620 541 626 513 b 625 445 626 471 626 459 b 621 410 624 431 623 419 l 574 146 b 563 68 569 121 565 95 b 558 0 560 41 558 19 l 475 0 b 477 51 475 16 476 33 b 483 106 478 70 481 88 l 481 106 b 425 51 462 84 444 66 b 367 14 406 35 387 23 b 303 -6 347 5 326 -2 b 229 -12 281 -10 256 -12 b 161 -4 207 -12 184 -10 b 98 24 138 1 117 11 b 51 76 79 38 63 55 b 32 156 38 98 32 124 b 76 281 32 207 47 249 b 192 355 106 313 145 338 b 353 390 240 372 294 384 b 532 399 412 396 472 399 m 497 328 b 369 322 456 328 413 326 b 251 298 326 317 286 309 b 163 249 215 286 186 270 b 129 167 141 228 129 201 b 140 116 129 146 133 129 b 170 84 148 103 158 92 b 213 67 183 76 197 71 b 263 63 229 64 246 63 b 354 79 296 63 326 68 b 428 125 382 90 406 106 b 481 192 449 144 467 167 b 510 274 494 218 504 245 l 519 328 l 497 328 m 654 983 b 627 909 650 956 641 932 b 577 851 614 886 597 867 b 509 813 557 834 534 822 b 429 800 484 804 457 800 b 294 846 372 800 327 815 b 246 983 262 876 246 922 l 307 983 b 342 899 307 943 319 914 b 431 875 366 883 395 875 b 535 902 469 875 503 884 b 593 983 566 920 586 947 l 654 983 "},"Ą":{"ha":965,"x_min":0,"x_max":0,"o":"m 840 -260 b 778 -297 822 -275 801 -288 b 713 -310 756 -305 734 -310 b 637 -286 685 -310 659 -302 b 603 -214 614 -270 603 -246 b 618 -148 603 -191 608 -169 b 657 -90 628 -127 641 -108 b 708 -40 673 -72 690 -55 b 760 0 726 -24 743 -11 l 707 258 l 204 258 l 43 0 l -71 0 l 563 983 l 660 983 l 864 0 l 826 0 b 726 -99 786 -34 752 -67 b 688 -186 700 -130 688 -159 b 706 -225 688 -206 694 -219 b 747 -235 719 -231 732 -235 b 788 -227 760 -235 774 -232 b 824 -204 801 -222 813 -214 l 840 -260 m 692 350 l 589 872 l 261 350 "},"ą":{"ha":742,"x_min":0,"x_max":0,"o":"m 556 -260 b 494 -297 537 -275 516 -288 b 428 -310 471 -305 449 -310 b 352 -286 400 -310 375 -302 b 318 -214 329 -270 318 -246 b 333 -148 318 -191 323 -169 b 372 -90 344 -127 356 -108 b 423 -40 388 -72 405 -55 b 475 0 441 -24 458 -11 b 477 51 475 16 476 33 b 483 106 478 70 481 88 l 481 106 b 425 51 462 84 444 66 b 367 14 406 35 387 23 b 303 -6 347 5 326 -2 b 229 -12 281 -10 256 -12 b 161 -4 207 -12 184 -10 b 98 24 138 1 117 11 b 51 76 79 38 63 55 b 32 156 38 98 32 124 b 76 281 32 207 47 249 b 192 355 106 313 145 338 b 353 390 240 372 294 384 b 532 399 412 396 472 399 b 538 435 535 414 537 427 b 539 460 538 444 539 452 b 499 560 539 507 525 540 b 386 589 472 579 434 589 b 274 566 347 589 310 581 b 183 511 238 551 207 532 l 142 574 b 258 641 173 601 212 624 b 396 667 305 658 350 667 b 484 656 426 667 456 663 b 558 623 512 649 537 638 b 608 565 578 608 595 588 b 626 479 620 541 626 513 b 625 445 626 471 626 459 b 621 410 624 431 623 419 l 574 146 b 563 68 569 121 565 95 b 558 0 560 41 558 19 l 542 0 b 442 -99 501 -34 468 -67 b 403 -186 416 -130 403 -159 b 422 -225 403 -206 409 -219 b 463 -235 434 -231 448 -235 b 503 -227 475 -235 489 -232 b 539 -204 517 -222 529 -214 l 556 -260 m 497 328 b 369 322 456 328 413 326 b 251 298 326 317 286 309 b 163 249 215 286 186 270 b 129 167 141 228 129 201 b 140 116 129 146 133 129 b 170 84 148 103 158 92 b 213 67 183 76 197 71 b 263 63 229 64 246 63 b 354 79 296 63 326 68 b 428 125 382 90 406 106 b 481 192 449 144 467 167 b 510 274 494 218 504 245 l 519 328 l 497 328 "},"Ć":{"ha":1000,"x_min":0,"x_max":0,"o":"m 915 156 b 847 85 896 131 873 107 b 759 28 821 64 792 45 b 651 -10 726 12 690 -1 b 522 -25 611 -20 569 -25 b 342 6 456 -25 397 -15 b 203 92 288 26 242 55 b 113 225 164 129 134 173 b 81 397 91 277 81 334 b 126 636 81 482 96 562 b 252 830 157 710 199 775 b 439 960 305 885 368 928 b 668 1008 510 992 587 1008 b 773 997 704 1008 739 1005 b 867 966 807 990 838 979 b 944 917 895 953 921 936 b 999 851 966 897 985 875 l 908 792 b 876 839 901 807 890 823 b 824 881 861 855 844 869 b 753 911 803 894 780 904 b 665 922 727 919 698 922 b 472 878 595 922 530 908 b 320 763 413 849 362 811 b 222 599 278 716 245 661 b 186 407 198 537 186 473 b 208 272 186 359 194 314 b 274 162 223 229 245 193 b 381 88 303 131 339 106 b 528 61 423 70 472 61 b 697 97 587 61 644 73 b 842 208 751 120 799 157 l 915 156 m 607 1061 l 782 1261 l 904 1261 l 685 1061 "},"ć":{"ha":694,"x_min":0,"x_max":0,"o":"m 592 503 b 534 565 581 528 561 548 b 440 589 507 581 475 589 b 325 564 399 589 360 581 b 234 495 290 547 259 524 b 174 394 209 466 189 432 b 153 271 160 355 153 314 b 167 188 153 241 157 214 b 208 122 176 163 190 141 b 274 78 226 104 248 89 b 363 63 300 68 329 63 b 472 86 404 63 441 70 b 554 147 504 102 531 122 l 614 96 b 501 14 581 62 543 34 b 356 -17 460 -6 411 -17 b 231 3 309 -17 268 -10 b 135 60 194 17 162 36 b 75 149 109 85 89 114 b 54 263 61 183 54 221 b 82 419 54 318 63 370 b 160 548 100 469 127 511 b 283 635 194 584 235 613 b 443 667 331 656 385 667 b 578 640 491 667 536 658 b 674 557 621 623 652 595 l 592 503 m 392 783 l 567 983 l 689 983 l 469 783 "},"Ĉ":{"ha":1000,"x_min":0,"x_max":0,"o":"m 915 156 b 847 85 896 131 873 107 b 759 28 821 64 792 45 b 651 -10 726 12 690 -1 b 522 -25 611 -20 569 -25 b 342 6 456 -25 397 -15 b 203 92 288 26 242 55 b 113 225 164 129 134 173 b 81 397 91 277 81 334 b 126 636 81 482 96 562 b 252 830 157 710 199 775 b 439 960 305 885 368 928 b 668 1008 510 992 587 1008 b 773 997 704 1008 739 1005 b 867 966 807 990 838 979 b 944 917 895 953 921 936 b 999 851 966 897 985 875 l 908 792 b 876 839 901 807 890 823 b 824 881 861 855 844 869 b 753 911 803 894 780 904 b 665 922 727 919 698 922 b 472 878 595 922 530 908 b 320 763 413 849 362 811 b 222 599 278 716 245 661 b 186 407 198 537 186 473 b 208 272 186 359 194 314 b 274 162 223 229 245 193 b 381 88 303 131 339 106 b 528 61 423 70 472 61 b 697 97 587 61 644 73 b 842 208 751 120 799 157 l 915 156 m 796 1061 l 707 1211 l 565 1061 l 469 1061 l 657 1261 l 768 1261 l 883 1061 "},"ĉ":{"ha":694,"x_min":0,"x_max":0,"o":"m 592 503 b 534 565 581 528 561 548 b 440 589 507 581 475 589 b 325 564 399 589 360 581 b 234 495 290 547 259 524 b 174 394 209 466 189 432 b 153 271 160 355 153 314 b 167 188 153 241 157 214 b 208 122 176 163 190 141 b 274 78 226 104 248 89 b 363 63 300 68 329 63 b 472 86 404 63 441 70 b 554 147 504 102 531 122 l 614 96 b 501 14 581 62 543 34 b 356 -17 460 -6 411 -17 b 231 3 309 -17 268 -10 b 135 60 194 17 162 36 b 75 149 109 85 89 114 b 54 263 61 183 54 221 b 82 419 54 318 63 370 b 160 548 100 469 127 511 b 283 635 194 584 235 613 b 443 667 331 656 385 667 b 578 640 491 667 536 658 b 674 557 621 623 652 595 l 592 503 m 594 783 l 506 933 l 364 783 l 268 783 l 456 983 l 567 983 l 682 783 "},"Ċ":{"ha":1000,"x_min":0,"x_max":0,"o":"m 915 156 b 847 85 896 131 873 107 b 759 28 821 64 792 45 b 651 -10 726 12 690 -1 b 522 -25 611 -20 569 -25 b 342 6 456 -25 397 -15 b 203 92 288 26 242 55 b 113 225 164 129 134 173 b 81 397 91 277 81 334 b 126 636 81 482 96 562 b 252 830 157 710 199 775 b 439 960 305 885 368 928 b 668 1008 510 992 587 1008 b 773 997 704 1008 739 1005 b 867 966 807 990 838 979 b 944 917 895 953 921 936 b 999 851 966 897 985 875 l 908 792 b 876 839 901 807 890 823 b 824 881 861 855 844 869 b 753 911 803 894 780 904 b 665 922 727 919 698 922 b 472 878 595 922 530 908 b 320 763 413 849 362 811 b 222 599 278 716 245 661 b 186 407 198 537 186 473 b 208 272 186 359 194 314 b 274 162 223 229 245 193 b 381 88 303 131 339 106 b 528 61 423 70 472 61 b 697 97 587 61 644 73 b 842 208 751 120 799 157 l 915 156 m 764 1179 b 745 1132 764 1161 758 1145 b 699 1113 733 1119 717 1113 b 653 1129 681 1113 666 1118 b 635 1175 641 1140 635 1156 b 655 1224 635 1194 641 1211 b 701 1243 668 1237 684 1243 b 746 1226 719 1243 734 1237 b 764 1179 758 1214 764 1199 "},"ċ":{"ha":694,"x_min":0,"x_max":0,"o":"m 592 503 b 534 565 581 528 561 548 b 440 589 507 581 475 589 b 325 564 399 589 360 581 b 234 495 290 547 259 524 b 174 394 209 466 189 432 b 153 271 160 355 153 314 b 167 188 153 241 157 214 b 208 122 176 163 190 141 b 274 78 226 104 248 89 b 363 63 300 68 329 63 b 472 86 404 63 441 70 b 554 147 504 102 531 122 l 614 96 b 501 14 581 62 543 34 b 356 -17 460 -6 411 -17 b 231 3 309 -17 268 -10 b 135 60 194 17 162 36 b 75 149 109 85 89 114 b 54 263 61 183 54 221 b 82 419 54 318 63 370 b 160 548 100 469 127 511 b 283 635 194 584 235 613 b 443 667 331 656 385 667 b 578 640 491 667 536 658 b 674 557 621 623 652 595 l 592 503 m 553 901 b 534 854 553 883 547 867 b 488 835 522 841 506 835 b 442 851 470 835 455 840 b 424 897 430 863 424 878 b 444 946 424 917 430 933 b 490 965 457 959 473 965 b 535 948 508 965 523 959 b 553 901 547 936 553 921 "},"Č":{"ha":1000,"x_min":0,"x_max":0,"o":"m 915 156 b 847 85 896 131 873 107 b 759 28 821 64 792 45 b 651 -10 726 12 690 -1 b 522 -25 611 -20 569 -25 b 342 6 456 -25 397 -15 b 203 92 288 26 242 55 b 113 225 164 129 134 173 b 81 397 91 277 81 334 b 126 636 81 482 96 562 b 252 830 157 710 199 775 b 439 960 305 885 368 928 b 668 1008 510 992 587 1008 b 773 997 704 1008 739 1005 b 867 966 807 990 838 979 b 944 917 895 953 921 936 b 999 851 966 897 985 875 l 908 792 b 876 839 901 807 890 823 b 824 881 861 855 844 869 b 753 911 803 894 780 904 b 665 922 727 919 698 922 b 472 878 595 922 530 908 b 320 763 413 849 362 811 b 222 599 278 716 245 661 b 186 407 198 537 186 473 b 208 272 186 359 194 314 b 274 162 223 229 245 193 b 381 88 303 131 339 106 b 528 61 423 70 472 61 b 697 97 587 61 644 73 b 842 208 751 120 799 157 l 915 156 m 626 1061 l 511 1261 l 599 1261 l 688 1111 l 829 1261 l 925 1261 l 738 1061 "},"č":{"ha":694,"x_min":0,"x_max":0,"o":"m 592 503 b 534 565 581 528 561 548 b 440 589 507 581 475 589 b 325 564 399 589 360 581 b 234 495 290 547 259 524 b 174 394 209 466 189 432 b 153 271 160 355 153 314 b 167 188 153 241 157 214 b 208 122 176 163 190 141 b 274 78 226 104 248 89 b 363 63 300 68 329 63 b 472 86 404 63 441 70 b 554 147 504 102 531 122 l 614 96 b 501 14 581 62 543 34 b 356 -17 460 -6 411 -17 b 231 3 309 -17 268 -10 b 135 60 194 17 162 36 b 75 149 109 85 89 114 b 54 263 61 183 54 221 b 82 419 54 318 63 370 b 160 548 100 469 127 511 b 283 635 194 584 235 613 b 443 667 331 656 385 667 b 578 640 491 667 536 658 b 674 557 621 623 652 595 l 592 503 m 408 783 l 293 983 l 381 983 l 469 833 l 611 983 l 707 983 l 519 783 "},"Ď":{"ha":1051,"x_min":0,"x_max":0,"o":"m 526 983 b 692 960 582 983 637 976 b 839 888 746 945 795 921 b 944 760 882 855 918 813 b 985 572 971 708 985 645 b 940 338 985 486 970 408 b 814 157 909 267 868 207 b 624 41 760 107 697 68 b 385 0 550 14 471 0 l 56 0 l 229 983 m 392 88 b 602 128 471 88 541 101 b 755 234 663 155 714 190 b 848 385 796 278 827 328 b 879 561 869 442 879 501 b 857 690 879 606 872 650 b 789 797 842 731 819 767 b 672 869 758 828 719 852 b 504 896 625 887 569 896 l 313 896 l 169 88 m 501 1061 l 386 1261 l 474 1261 l 563 1111 l 704 1261 l 800 1261 l 613 1061 "},"ď":{"ha":864,"x_min":0,"x_max":0,"o":"m 47 264 b 76 421 47 319 57 372 b 156 549 95 470 121 513 b 277 635 190 585 230 613 b 429 667 324 656 375 667 b 562 635 476 667 521 656 b 656 540 603 613 634 582 l 658 540 l 749 1050 l 842 1050 l 656 0 l 563 0 l 582 107 l 579 107 b 483 20 558 74 526 45 b 340 -17 441 -4 393 -17 b 220 3 296 -17 256 -10 b 128 61 184 17 154 36 b 68 150 102 86 82 116 b 47 264 54 184 47 222 m 144 271 b 158 189 144 241 149 214 b 197 123 166 164 180 142 b 261 78 215 104 236 89 b 349 63 286 68 315 63 b 463 88 389 63 427 71 b 554 156 498 104 528 127 b 615 257 580 185 600 219 b 638 379 630 295 638 336 b 623 463 638 410 633 438 b 581 530 613 489 599 511 b 514 574 562 549 540 563 b 428 589 488 584 459 589 b 312 564 385 589 347 581 b 222 496 277 547 247 525 b 165 395 197 467 178 434 b 144 271 151 357 144 315 m 860 726 l 1000 983 l 1099 983 l 939 726 "},"Đ":{"ha":1051,"x_min":0,"x_max":0,"o":"m 57 557 l 154 557 l 229 983 l 526 983 b 692 960 582 983 637 976 b 839 888 746 945 795 921 b 944 760 882 855 918 813 b 985 572 971 708 985 645 b 940 338 985 486 970 408 b 814 157 909 267 868 207 b 624 41 760 107 697 68 b 385 0 550 14 471 0 l 56 0 l 140 482 l 43 482 m 588 482 l 239 482 l 169 88 l 392 88 b 602 128 471 88 541 101 b 755 234 663 155 714 190 b 848 385 796 278 827 328 b 879 561 869 442 879 501 b 857 690 879 606 872 650 b 789 797 842 731 819 767 b 672 869 758 828 719 852 b 504 896 625 887 569 896 l 313 896 l 253 557 l 601 557 "},"đ":{"ha":864,"x_min":0,"x_max":0,"o":"m 749 1050 l 842 1050 l 808 861 l 879 861 l 868 792 l 796 792 l 656 0 l 563 0 l 582 107 l 579 107 b 483 20 558 74 526 45 b 340 -17 441 -4 393 -17 b 220 3 296 -17 256 -10 b 128 61 184 17 154 36 b 68 150 102 86 82 116 b 47 264 54 184 47 222 b 76 421 47 319 57 372 b 156 549 95 470 121 513 b 277 635 190 585 230 613 b 429 667 324 656 375 667 b 562 635 476 667 521 656 b 656 540 603 613 634 582 l 658 540 l 703 792 l 479 792 l 490 861 l 715 861 m 144 271 b 158 189 144 241 149 214 b 197 123 166 164 180 142 b 261 78 215 104 236 89 b 349 63 286 68 315 63 b 463 88 389 63 427 71 b 554 156 498 104 528 127 b 615 257 580 185 600 219 b 638 379 630 295 638 336 b 623 463 638 410 633 438 b 581 530 613 489 599 511 b 514 574 562 549 540 563 b 428 589 488 584 459 589 b 312 564 385 589 347 581 b 222 496 277 547 247 525 b 165 395 197 467 178 434 b 144 271 151 357 144 315 "},"Ē":{"ha":806,"x_min":0,"x_max":0,"o":"m 697 88 l 682 0 l 56 0 l 229 983 l 819 983 l 804 896 l 313 896 l 253 554 l 722 554 l 707 469 l 238 469 l 169 88 m 357 1111 l 369 1186 l 744 1186 l 732 1111 "},"ē":{"ha":786,"x_min":0,"x_max":0,"o":"m 144 300 b 142 284 144 294 143 289 b 142 269 142 279 142 274 b 158 186 142 239 147 211 b 202 121 168 161 183 139 b 269 78 221 102 243 88 b 351 63 294 68 322 63 b 485 97 402 63 447 74 b 576 176 523 119 553 146 l 635 121 b 503 18 597 75 553 41 b 343 -17 453 -5 400 -17 b 226 3 301 -17 263 -10 b 133 58 190 16 159 34 b 70 148 106 82 85 112 b 47 269 55 184 47 224 b 76 421 47 322 57 373 b 156 547 96 469 122 511 b 276 634 190 583 230 612 b 424 667 322 656 371 667 b 626 596 513 667 580 643 b 694 413 672 549 694 488 b 692 362 694 401 694 384 b 682 300 690 339 687 319 l 144 300 m 599 369 b 601 394 600 377 600 385 b 601 418 601 403 601 411 b 556 541 601 468 586 509 b 421 589 525 573 480 589 b 326 572 387 589 355 583 b 248 524 297 560 271 544 b 190 453 225 503 206 480 b 157 369 175 427 163 399 l 599 369 m 283 833 l 296 908 l 671 908 l 658 833 "},"Ĕ":{"ha":806,"x_min":0,"x_max":0,"o":"m 697 88 l 682 0 l 56 0 l 229 983 l 819 983 l 804 896 l 313 896 l 253 554 l 722 554 l 707 469 l 238 469 l 169 88 m 764 1261 b 737 1187 759 1234 750 1209 b 687 1128 723 1164 707 1145 b 619 1091 667 1112 644 1100 b 539 1078 593 1082 567 1078 b 404 1124 481 1078 437 1093 b 356 1261 372 1154 356 1200 l 417 1261 b 452 1176 417 1220 428 1192 b 540 1153 476 1161 505 1153 b 644 1180 578 1153 613 1162 b 703 1261 676 1198 695 1225 l 764 1261 "},"ĕ":{"ha":786,"x_min":0,"x_max":0,"o":"m 144 300 b 142 284 144 294 143 289 b 142 269 142 279 142 274 b 158 186 142 239 147 211 b 202 121 168 161 183 139 b 269 78 221 102 243 88 b 351 63 294 68 322 63 b 485 97 402 63 447 74 b 576 176 523 119 553 146 l 635 121 b 503 18 597 75 553 41 b 343 -17 453 -5 400 -17 b 226 3 301 -17 263 -10 b 133 58 190 16 159 34 b 70 148 106 82 85 112 b 47 269 55 184 47 224 b 76 421 47 322 57 373 b 156 547 96 469 122 511 b 276 634 190 583 230 612 b 424 667 322 656 371 667 b 626 596 513 667 580 643 b 694 413 672 549 694 488 b 692 362 694 401 694 384 b 682 300 690 339 687 319 l 144 300 m 599 369 b 601 394 600 377 600 385 b 601 418 601 403 601 411 b 556 541 601 468 586 509 b 421 589 525 573 480 589 b 326 572 387 589 355 583 b 248 524 297 560 271 544 b 190 453 225 503 206 480 b 157 369 175 427 163 399 l 599 369 m 690 983 b 663 909 686 956 677 932 b 613 851 650 886 633 867 b 545 813 593 834 571 822 b 465 800 520 804 493 800 b 331 846 408 800 363 815 b 282 983 298 876 282 922 l 343 983 b 378 899 343 943 355 914 b 467 875 402 883 431 875 b 571 902 505 875 539 884 b 629 983 602 920 622 947 l 690 983 "},"Ė":{"ha":806,"x_min":0,"x_max":0,"o":"m 697 88 l 682 0 l 56 0 l 229 983 l 819 983 l 804 896 l 313 896 l 253 554 l 722 554 l 707 469 l 238 469 l 169 88 m 621 1179 b 602 1132 621 1161 615 1145 b 556 1113 590 1119 574 1113 b 510 1129 538 1113 523 1118 b 492 1175 498 1140 492 1156 b 512 1224 492 1194 498 1211 b 558 1243 525 1237 541 1243 b 603 1226 576 1243 591 1237 b 621 1179 615 1214 621 1199 "},"ė":{"ha":786,"x_min":0,"x_max":0,"o":"m 144 300 b 142 284 144 294 143 289 b 142 269 142 279 142 274 b 158 186 142 239 147 211 b 202 121 168 161 183 139 b 269 78 221 102 243 88 b 351 63 294 68 322 63 b 485 97 402 63 447 74 b 576 176 523 119 553 146 l 635 121 b 503 18 597 75 553 41 b 343 -17 453 -5 400 -17 b 226 3 301 -17 263 -10 b 133 58 190 16 159 34 b 70 148 106 82 85 112 b 47 269 55 184 47 224 b 76 421 47 322 57 373 b 156 547 96 469 122 511 b 276 634 190 583 230 612 b 424 667 322 656 371 667 b 626 596 513 667 580 643 b 694 413 672 549 694 488 b 692 362 694 401 694 384 b 682 300 690 339 687 319 l 144 300 m 599 369 b 601 394 600 377 600 385 b 601 418 601 403 601 411 b 556 541 601 468 586 509 b 421 589 525 573 480 589 b 326 572 387 589 355 583 b 248 524 297 560 271 544 b 190 453 225 503 206 480 b 157 369 175 427 163 399 l 599 369 m 542 901 b 523 854 542 883 535 867 b 476 835 510 841 495 835 b 431 851 459 835 444 840 b 413 897 419 863 413 878 b 433 946 413 917 419 933 b 479 965 446 959 462 965 b 524 948 497 965 512 959 b 542 901 536 936 542 921 "},"Ę":{"ha":806,"x_min":0,"x_max":0,"o":"m 667 -260 b 605 -297 648 -275 628 -288 b 539 -310 582 -305 560 -310 b 463 -286 511 -310 486 -302 b 429 -214 441 -270 429 -246 b 444 -148 429 -191 434 -169 b 483 -90 455 -127 468 -108 b 534 -40 499 -72 516 -55 b 586 0 552 -24 569 -11 l 56 0 l 229 983 l 819 983 l 804 896 l 313 896 l 253 554 l 722 554 l 707 469 l 238 469 l 169 88 l 697 88 l 682 0 l 653 0 b 553 -99 612 -34 579 -67 b 514 -186 527 -130 514 -159 b 533 -225 514 -206 520 -219 b 574 -235 545 -231 559 -235 b 614 -227 587 -235 600 -232 b 650 -204 628 -222 640 -214 l 667 -260 "},"ę":{"ha":786,"x_min":0,"x_max":0,"o":"m 440 -260 b 378 -297 422 -275 401 -288 b 313 -310 356 -305 334 -310 b 237 -286 285 -310 259 -302 b 203 -214 214 -270 203 -246 b 215 -155 203 -194 207 -174 b 247 -101 224 -136 234 -118 b 289 -55 259 -85 273 -69 b 336 -17 305 -41 320 -28 b 222 4 295 -16 257 -9 b 131 60 187 17 156 36 b 69 149 105 84 84 113 b 47 269 55 184 47 224 b 76 421 47 322 57 373 b 156 547 96 469 122 511 b 276 634 190 583 230 612 b 424 667 322 656 371 667 b 626 596 513 667 580 643 b 694 413 672 549 694 488 b 692 362 694 401 694 384 b 682 300 690 339 687 319 l 144 300 b 142 284 144 294 143 289 b 142 269 142 279 142 274 b 158 186 142 239 147 211 b 202 121 168 161 183 139 b 269 78 221 102 243 88 b 351 63 294 68 322 63 b 485 97 402 63 447 74 b 576 176 523 119 553 146 l 635 121 b 414 -10 575 50 501 6 b 322 -103 376 -42 345 -73 b 288 -186 299 -132 288 -160 b 306 -225 288 -206 294 -219 b 347 -235 319 -231 332 -235 b 388 -227 360 -235 374 -232 b 424 -204 401 -222 413 -214 l 440 -260 m 599 369 b 601 394 600 377 600 385 b 601 418 601 403 601 411 b 556 541 601 468 586 509 b 421 589 525 573 480 589 b 326 572 387 589 355 583 b 248 524 297 560 271 544 b 190 453 225 503 206 480 b 157 369 175 427 163 399 l 599 369 "},"Ě":{"ha":806,"x_min":0,"x_max":0,"o":"m 697 88 l 682 0 l 56 0 l 229 983 l 819 983 l 804 896 l 313 896 l 253 554 l 722 554 l 707 469 l 238 469 l 169 88 m 478 1061 l 363 1261 l 450 1261 l 539 1111 l 681 1261 l 776 1261 l 589 1061 "},"ě":{"ha":786,"x_min":0,"x_max":0,"o":"m 144 300 b 142 284 144 294 143 289 b 142 269 142 279 142 274 b 158 186 142 239 147 211 b 202 121 168 161 183 139 b 269 78 221 102 243 88 b 351 63 294 68 322 63 b 485 97 402 63 447 74 b 576 176 523 119 553 146 l 635 121 b 503 18 597 75 553 41 b 343 -17 453 -5 400 -17 b 226 3 301 -17 263 -10 b 133 58 190 16 159 34 b 70 148 106 82 85 112 b 47 269 55 184 47 224 b 76 421 47 322 57 373 b 156 547 96 469 122 511 b 276 634 190 583 230 612 b 424 667 322 656 371 667 b 626 596 513 667 580 643 b 694 413 672 549 694 488 b 692 362 694 401 694 384 b 682 300 690 339 687 319 l 144 300 m 599 369 b 601 394 600 377 600 385 b 601 418 601 403 601 411 b 556 541 601 468 586 509 b 421 589 525 573 480 589 b 326 572 387 589 355 583 b 248 524 297 560 271 544 b 190 453 225 503 206 480 b 157 369 175 427 163 399 l 599 369 m 403 783 l 288 983 l 375 983 l 464 833 l 606 983 l 701 983 l 514 783 "},"Ĝ":{"ha":1069,"x_min":0,"x_max":0,"o":"m 528 61 b 685 79 584 61 637 67 b 807 128 733 91 774 107 l 860 429 l 628 429 l 643 514 l 972 514 l 894 71 b 714 -3 835 37 775 12 b 522 -25 653 -18 589 -25 b 342 6 456 -25 397 -15 b 203 92 288 26 242 55 b 113 225 164 129 134 173 b 81 397 91 277 81 334 b 126 636 81 482 96 562 b 252 830 157 710 199 775 b 439 960 305 885 368 928 b 668 1008 510 992 587 1008 b 773 997 704 1008 739 1005 b 867 966 807 990 838 979 b 944 917 895 953 921 936 b 999 851 966 897 985 875 l 908 792 b 876 839 901 807 890 823 b 824 881 861 855 844 869 b 753 911 803 894 780 904 b 665 922 727 919 698 922 b 472 878 595 922 530 908 b 320 763 413 849 362 811 b 222 599 278 716 245 661 b 186 407 198 537 186 473 b 208 272 186 359 194 314 b 274 162 223 229 245 193 b 381 88 303 131 339 106 b 528 61 423 70 472 61 m 806 1061 l 717 1211 l 575 1061 l 479 1061 l 667 1261 l 778 1261 l 893 1061 "},"ĝ":{"ha":871,"x_min":0,"x_max":0,"o":"m 57 -136 b 155 -219 80 -169 113 -197 b 293 -251 197 -241 243 -251 b 413 -231 339 -251 379 -245 b 496 -176 446 -218 474 -199 b 549 -94 518 -152 536 -125 b 578 6 562 -63 571 -30 l 601 129 l 599 129 b 490 33 569 88 533 56 b 351 0 448 11 401 0 b 231 22 307 0 267 7 b 140 82 196 36 165 56 b 83 172 115 108 96 138 b 63 285 69 206 63 244 b 91 433 63 337 72 387 b 170 555 110 480 136 520 b 290 637 204 590 244 617 b 442 667 337 657 387 667 b 511 658 465 667 488 664 b 576 633 534 653 556 644 b 629 592 596 622 613 609 b 667 538 645 576 657 558 l 669 538 l 690 650 l 782 650 l 668 6 b 639 -107 662 -30 652 -67 b 578 -217 626 -147 606 -183 b 469 -300 551 -250 515 -278 b 293 -333 424 -322 365 -333 b 119 -299 229 -333 171 -322 b -6 -203 68 -275 26 -244 l 57 -136 m 158 283 b 172 204 158 256 163 229 b 213 138 181 179 195 157 b 278 94 230 119 252 104 b 367 78 304 83 333 78 b 481 102 408 78 447 86 b 571 168 516 118 546 140 b 629 265 596 196 615 228 b 650 381 643 301 650 340 b 635 462 650 409 645 436 b 594 528 626 487 612 509 b 528 572 576 546 554 561 b 440 589 502 583 473 589 b 326 567 399 589 360 581 b 237 505 291 552 261 531 b 179 408 212 478 193 446 b 158 283 165 370 158 329 m 614 783 l 525 933 l 383 783 l 288 783 l 475 983 l 586 983 l 701 783 "},"Ğ":{"ha":1069,"x_min":0,"x_max":0,"o":"m 528 61 b 685 79 584 61 637 67 b 807 128 733 91 774 107 l 860 429 l 628 429 l 643 514 l 972 514 l 894 71 b 714 -3 835 37 775 12 b 522 -25 653 -18 589 -25 b 342 6 456 -25 397 -15 b 203 92 288 26 242 55 b 113 225 164 129 134 173 b 81 397 91 277 81 334 b 126 636 81 482 96 562 b 252 830 157 710 199 775 b 439 960 305 885 368 928 b 668 1008 510 992 587 1008 b 773 997 704 1008 739 1005 b 867 966 807 990 838 979 b 944 917 895 953 921 936 b 999 851 966 897 985 875 l 908 792 b 876 839 901 807 890 823 b 824 881 861 855 844 869 b 753 911 803 894 780 904 b 665 922 727 919 698 922 b 472 878 595 922 530 908 b 320 763 413 849 362 811 b 222 599 278 716 245 661 b 186 407 198 537 186 473 b 208 272 186 359 194 314 b 274 162 223 229 245 193 b 381 88 303 131 339 106 b 528 61 423 70 472 61 m 907 1261 b 880 1187 902 1234 893 1209 b 830 1128 866 1164 850 1145 b 762 1091 810 1112 787 1100 b 682 1078 736 1082 710 1078 b 547 1124 625 1078 580 1093 b 499 1261 515 1154 499 1200 l 560 1261 b 595 1176 560 1220 572 1192 b 683 1153 619 1161 648 1153 b 788 1180 721 1153 756 1162 b 846 1261 819 1198 838 1225 l 907 1261 "},"ğ":{"ha":871,"x_min":0,"x_max":0,"o":"m 57 -136 b 155 -219 80 -169 113 -197 b 293 -251 197 -241 243 -251 b 413 -231 339 -251 379 -245 b 496 -176 446 -218 474 -199 b 549 -94 518 -152 536 -125 b 578 6 562 -63 571 -30 l 601 129 l 599 129 b 490 33 569 88 533 56 b 351 0 448 11 401 0 b 231 22 307 0 267 7 b 140 82 196 36 165 56 b 83 172 115 108 96 138 b 63 285 69 206 63 244 b 91 433 63 337 72 387 b 170 555 110 480 136 520 b 290 637 204 590 244 617 b 442 667 337 657 387 667 b 511 658 465 667 488 664 b 576 633 534 653 556 644 b 629 592 596 622 613 609 b 667 538 645 576 657 558 l 669 538 l 690 650 l 782 650 l 668 6 b 639 -107 662 -30 652 -67 b 578 -217 626 -147 606 -183 b 469 -300 551 -250 515 -278 b 293 -333 424 -322 365 -333 b 119 -299 229 -333 171 -322 b -6 -203 68 -275 26 -244 l 57 -136 m 158 283 b 172 204 158 256 163 229 b 213 138 181 179 195 157 b 278 94 230 119 252 104 b 367 78 304 83 333 78 b 481 102 408 78 447 86 b 571 168 516 118 546 140 b 629 265 596 196 615 228 b 650 381 643 301 650 340 b 635 462 650 409 645 436 b 594 528 626 487 612 509 b 528 572 576 546 554 561 b 440 589 502 583 473 589 b 326 567 399 589 360 581 b 237 505 291 552 261 531 b 179 408 212 478 193 446 b 158 283 165 370 158 329 m 719 983 b 692 909 715 956 706 932 b 642 851 679 886 662 867 b 574 813 622 834 600 822 b 494 800 549 804 522 800 b 360 846 437 800 392 815 b 311 983 327 876 311 922 l 372 983 b 408 899 372 943 384 914 b 496 875 431 883 461 875 b 600 902 534 875 569 884 b 658 983 631 920 651 947 l 719 983 "},"Ġ":{"ha":1069,"x_min":0,"x_max":0,"o":"m 528 61 b 685 79 584 61 637 67 b 807 128 733 91 774 107 l 860 429 l 628 429 l 643 514 l 972 514 l 894 71 b 714 -3 835 37 775 12 b 522 -25 653 -18 589 -25 b 342 6 456 -25 397 -15 b 203 92 288 26 242 55 b 113 225 164 129 134 173 b 81 397 91 277 81 334 b 126 636 81 482 96 562 b 252 830 157 710 199 775 b 439 960 305 885 368 928 b 668 1008 510 992 587 1008 b 773 997 704 1008 739 1005 b 867 966 807 990 838 979 b 944 917 895 953 921 936 b 999 851 966 897 985 875 l 908 792 b 876 839 901 807 890 823 b 824 881 861 855 844 869 b 753 911 803 894 780 904 b 665 922 727 919 698 922 b 472 878 595 922 530 908 b 320 763 413 849 362 811 b 222 599 278 716 245 661 b 186 407 198 537 186 473 b 208 272 186 359 194 314 b 274 162 223 229 245 193 b 381 88 303 131 339 106 b 528 61 423 70 472 61 m 768 1179 b 749 1132 768 1161 762 1145 b 703 1113 737 1119 721 1113 b 658 1129 685 1113 670 1118 b 639 1175 645 1140 639 1156 b 659 1224 639 1194 646 1211 b 706 1243 672 1237 688 1243 b 750 1226 723 1243 738 1237 b 768 1179 762 1214 768 1199 "},"ġ":{"ha":871,"x_min":0,"x_max":0,"o":"m 57 -136 b 155 -219 80 -169 113 -197 b 293 -251 197 -241 243 -251 b 413 -231 339 -251 379 -245 b 496 -176 446 -218 474 -199 b 549 -94 518 -152 536 -125 b 578 6 562 -63 571 -30 l 601 129 l 599 129 b 490 33 569 88 533 56 b 351 0 448 11 401 0 b 231 22 307 0 267 7 b 140 82 196 36 165 56 b 83 172 115 108 96 138 b 63 285 69 206 63 244 b 91 433 63 337 72 387 b 170 555 110 480 136 520 b 290 637 204 590 244 617 b 442 667 337 657 387 667 b 511 658 465 667 488 664 b 576 633 534 653 556 644 b 629 592 596 622 613 609 b 667 538 645 576 657 558 l 669 538 l 690 650 l 782 650 l 668 6 b 639 -107 662 -30 652 -67 b 578 -217 626 -147 606 -183 b 469 -300 551 -250 515 -278 b 293 -333 424 -322 365 -333 b 119 -299 229 -333 171 -322 b -6 -203 68 -275 26 -244 l 57 -136 m 158 283 b 172 204 158 256 163 229 b 213 138 181 179 195 157 b 278 94 230 119 252 104 b 367 78 304 83 333 78 b 481 102 408 78 447 86 b 571 168 516 118 546 140 b 629 265 596 196 615 228 b 650 381 643 301 650 340 b 635 462 650 409 645 436 b 594 528 626 487 612 509 b 528 572 576 546 554 561 b 440 589 502 583 473 589 b 326 567 399 589 360 581 b 237 505 291 552 261 531 b 179 408 212 478 193 446 b 158 283 165 370 158 329 m 572 901 b 553 854 572 883 566 867 b 507 835 541 841 525 835 b 462 851 489 835 474 840 b 443 897 449 863 443 878 b 463 946 443 917 450 933 b 510 965 477 959 492 965 b 554 948 527 965 542 959 b 572 901 566 936 572 921 "},"Ģ":{"ha":1069,"x_min":0,"x_max":0,"o":"m 528 61 b 685 79 584 61 637 67 b 807 128 733 91 774 107 l 860 429 l 628 429 l 643 514 l 972 514 l 894 71 b 714 -3 835 37 775 12 b 522 -25 653 -18 589 -25 b 342 6 456 -25 397 -15 b 203 92 288 26 242 55 b 113 225 164 129 134 173 b 81 397 91 277 81 334 b 126 636 81 482 96 562 b 252 830 157 710 199 775 b 439 960 305 885 368 928 b 668 1008 510 992 587 1008 b 773 997 704 1008 739 1005 b 867 966 807 990 838 979 b 944 917 895 953 921 936 b 999 851 966 897 985 875 l 908 792 b 876 839 901 807 890 823 b 824 881 861 855 844 869 b 753 911 803 894 780 904 b 665 922 727 919 698 922 b 472 878 595 922 530 908 b 320 763 413 849 362 811 b 222 599 278 716 245 661 b 186 407 198 537 186 473 b 208 272 186 359 194 314 b 274 162 223 229 245 193 b 381 88 303 131 339 106 b 528 61 423 70 472 61 m 350 -319 l 490 -62 l 589 -62 l 429 -319 "},"ģ":{"ha":871,"x_min":0,"x_max":0,"o":"m 57 -136 b 155 -219 80 -169 113 -197 b 293 -251 197 -241 243 -251 b 413 -231 339 -251 379 -245 b 496 -176 446 -218 474 -199 b 549 -94 518 -152 536 -125 b 578 6 562 -63 571 -30 l 601 129 l 599 129 b 490 33 569 88 533 56 b 351 0 448 11 401 0 b 231 22 307 0 267 7 b 140 82 196 36 165 56 b 83 172 115 108 96 138 b 63 285 69 206 63 244 b 91 433 63 337 72 387 b 170 555 110 480 136 520 b 290 637 204 590 244 617 b 442 667 337 657 387 667 b 511 658 465 667 488 664 b 576 633 534 653 556 644 b 629 592 596 622 613 609 b 667 538 645 576 657 558 l 669 538 l 690 650 l 782 650 l 668 6 b 639 -107 662 -30 652 -67 b 578 -217 626 -147 606 -183 b 469 -300 551 -250 515 -278 b 293 -333 424 -322 365 -333 b 119 -299 229 -333 171 -322 b -6 -203 68 -275 26 -244 l 57 -136 m 158 283 b 172 204 158 256 163 229 b 213 138 181 179 195 157 b 278 94 230 119 252 104 b 367 78 304 83 333 78 b 481 102 408 78 447 86 b 571 168 516 118 546 140 b 629 265 596 196 615 228 b 650 381 643 301 650 340 b 635 462 650 409 645 436 b 594 528 626 487 612 509 b 528 572 576 546 554 561 b 440 589 502 583 473 589 b 326 567 399 589 360 581 b 237 505 291 552 261 531 b 179 408 212 478 193 446 b 158 283 165 370 158 329 m 649 1040 l 508 783 l 410 783 l 569 1040 "},"Ĥ":{"ha":983,"x_min":0,"x_max":0,"o":"m 328 983 l 251 556 l 775 556 l 851 983 l 950 983 l 776 0 l 678 0 l 760 467 l 236 467 l 154 0 l 56 0 l 229 983 m 722 1061 l 633 1211 l 492 1061 l 396 1061 l 583 1261 l 694 1261 l 810 1061 "},"ĥ":{"ha":801,"x_min":0,"x_max":0,"o":"m 461 667 b 624 613 531 667 585 649 b 683 468 664 578 683 529 b 681 435 683 457 683 446 b 676 399 680 424 678 412 l 606 0 l 513 0 l 576 360 b 585 442 582 388 585 416 b 552 549 585 487 574 523 b 438 589 530 576 492 589 b 363 574 413 589 388 584 b 293 526 338 563 314 548 b 237 447 272 505 253 478 b 201 333 221 415 209 377 l 143 0 l 50 0 l 235 1050 l 328 1050 l 239 543 l 242 543 b 336 633 266 581 297 611 b 461 667 375 656 417 667 m 407 1106 l 318 1256 l 176 1106 l 81 1106 l 268 1306 l 379 1306 l 494 1106 "},"Ħ":{"ha":983,"x_min":0,"x_max":0,"o":"m 328 983 l 289 764 l 813 764 l 851 983 l 950 983 l 776 0 l 678 0 l 760 467 l 236 467 l 154 0 l 56 0 l 229 983 m 800 694 l 276 694 l 251 556 l 775 556 "},"ħ":{"ha":801,"x_min":0,"x_max":0,"o":"m 235 1050 l 328 1050 l 294 861 l 514 861 l 503 792 l 282 792 l 239 543 l 242 543 b 336 633 266 581 297 611 b 461 667 375 656 417 667 b 624 613 531 667 585 649 b 683 468 664 578 683 529 b 681 435 683 457 683 446 b 676 399 680 424 678 412 l 606 0 l 513 0 l 576 360 b 585 442 582 388 585 416 b 552 549 585 487 574 523 b 438 589 530 576 492 589 b 363 574 413 589 388 584 b 293 526 338 563 314 548 b 237 447 272 505 253 478 b 201 333 221 415 209 377 l 143 0 l 50 0 l 189 792 l 114 792 l 125 861 l 201 861 "},"Ĩ":{"ha":361,"x_min":0,"x_max":0,"o":"m 56 0 l 229 983 l 328 983 l 154 0 m 67 1078 b 90 1131 73 1095 81 1113 b 122 1177 98 1148 109 1164 b 164 1210 134 1191 148 1201 b 219 1222 180 1218 198 1222 b 268 1213 236 1222 252 1219 b 315 1190 284 1206 300 1199 b 360 1169 331 1183 346 1176 b 403 1158 375 1162 389 1158 b 453 1180 424 1158 441 1166 b 483 1228 466 1194 476 1210 l 543 1228 b 519 1174 537 1209 529 1191 b 487 1128 510 1157 499 1142 b 444 1096 474 1115 460 1104 b 389 1083 428 1088 409 1083 b 340 1094 372 1083 356 1087 b 293 1115 325 1101 309 1108 b 249 1138 278 1124 264 1131 b 206 1147 235 1144 220 1147 b 156 1126 184 1147 168 1140 b 126 1078 144 1111 134 1095 l 67 1078 "},"ĩ":{"ha":347,"x_min":0,"x_max":0,"o":"m 51 0 l 167 650 l 260 650 l 144 0 m 13 800 b 35 853 19 818 27 835 b 67 899 44 870 55 886 b 110 932 80 913 94 924 b 165 944 125 940 144 944 b 214 935 182 944 198 941 b 261 913 230 928 245 921 b 306 891 277 905 292 898 b 349 881 321 884 335 881 b 399 902 370 881 387 888 b 429 950 412 916 422 932 l 489 950 b 465 897 482 931 475 914 b 433 851 456 879 445 864 b 390 818 420 837 406 826 b 335 806 373 810 355 806 b 286 816 318 806 302 809 b 239 838 270 823 255 830 b 195 860 224 846 209 853 b 151 869 181 866 166 869 b 101 848 130 869 113 862 b 72 800 89 834 80 818 l 13 800 "},"Ī":{"ha":361,"x_min":0,"x_max":0,"o":"m 56 0 l 229 983 l 328 983 l 154 0 m 108 1111 l 121 1186 l 496 1186 l 483 1111 "},"ī":{"ha":347,"x_min":0,"x_max":0,"o":"m 51 0 l 167 650 l 260 650 l 144 0 m 53 833 l 65 908 l 440 908 l 428 833 "},"Į":{"ha":361,"x_min":0,"x_max":0,"o":"m 167 -260 b 105 -297 148 -275 128 -288 b 39 -310 82 -305 60 -310 b -37 -286 11 -310 -14 -302 b -71 -214 -59 -270 -71 -246 b -56 -148 -71 -191 -66 -169 b -17 -90 -45 -127 -32 -108 b 34 -40 -1 -72 16 -55 b 86 0 52 -24 69 -11 l 56 0 l 229 983 l 328 983 l 154 0 l 153 0 b 53 -99 112 -34 79 -67 b 14 -186 27 -130 14 -159 b 33 -225 14 -206 20 -219 b 74 -235 45 -231 59 -235 b 114 -227 87 -235 100 -232 b 150 -204 128 -222 140 -214 l 167 -260 "},"į":{"ha":347,"x_min":0,"x_max":0,"o":"m 156 -260 b 94 -297 137 -275 116 -288 b 28 -310 71 -305 49 -310 b -48 -286 0 -310 -25 -302 b -82 -214 -71 -270 -82 -246 b -67 -148 -82 -191 -77 -169 b -28 -90 -56 -127 -44 -108 b 23 -40 -12 -72 5 -55 b 75 0 41 -24 58 -11 l 51 0 l 167 650 l 260 650 l 144 0 l 142 0 b 42 -99 101 -34 68 -67 b 3 -186 16 -130 3 -159 b 22 -225 3 -206 9 -219 b 63 -235 34 -231 48 -235 b 103 -227 75 -235 89 -232 b 139 -204 117 -222 129 -214 l 156 -260 m 315 901 b 297 854 315 883 309 867 b 250 835 284 841 269 835 b 205 851 232 835 217 840 b 186 897 192 863 186 878 b 206 946 186 917 193 933 b 253 965 220 959 235 965 b 297 948 270 965 285 959 b 315 901 309 936 315 921 "},"İ":{"ha":361,"x_min":0,"x_max":0,"o":"m 56 0 l 229 983 l 328 983 l 154 0 m 371 1179 b 352 1132 371 1161 365 1145 b 306 1113 340 1119 324 1113 b 260 1129 288 1113 273 1118 b 242 1175 248 1140 242 1156 b 262 1224 242 1194 248 1211 b 308 1243 275 1237 291 1243 b 353 1226 326 1243 341 1237 b 371 1179 365 1214 371 1199 "},"ı":{"ha":347,"x_min":0,"x_max":0,"o":"m 51 0 l 167 650 l 260 650 l 144 0 "},"Ĳ":{"ha":1021,"x_min":0,"x_max":0,"o":"m 56 0 l 229 983 l 328 983 l 154 0 m 425 194 b 471 100 431 157 447 126 b 574 61 495 74 529 61 b 663 81 610 61 639 68 b 720 132 686 94 705 111 b 755 205 735 153 747 178 b 775 290 763 232 769 261 l 897 983 l 996 983 l 872 283 b 849 181 867 251 859 217 b 801 81 838 144 822 111 b 715 5 779 50 750 25 b 579 -25 680 -15 635 -25 b 482 -10 543 -25 511 -20 b 409 32 453 0 429 14 b 361 93 389 50 373 70 b 338 167 349 116 341 141 l 425 194 "},"ĳ":{"ha":718,"x_min":0,"x_max":0,"o":"m 51 0 l 167 650 l 260 650 l 144 0 m 315 901 b 297 854 315 883 309 867 b 250 835 284 841 269 835 b 205 851 232 835 217 840 b 186 897 192 863 186 878 b 206 946 186 917 193 933 b 253 965 220 959 235 965 b 297 948 270 965 285 959 b 315 901 309 936 315 921 m 232 -244 b 260 -251 240 -247 250 -249 b 290 -253 271 -252 281 -253 b 339 -242 310 -253 326 -249 b 371 -214 352 -235 363 -226 b 390 -170 379 -202 386 -187 b 403 -114 395 -153 399 -134 l 538 650 l 631 650 l 493 -129 b 474 -205 488 -155 482 -180 b 440 -270 466 -229 455 -251 b 382 -316 425 -289 406 -304 b 290 -333 358 -328 327 -333 b 252 -331 280 -333 267 -333 b 213 -324 237 -330 224 -327 l 232 -244 m 685 901 b 666 854 685 883 678 867 b 619 835 653 841 638 835 b 574 851 602 835 587 840 b 556 897 562 863 556 878 b 576 946 556 917 562 933 b 622 965 589 959 605 965 b 667 948 640 965 655 959 b 685 901 679 936 685 921 "},"Ĵ":{"ha":669,"x_min":0,"x_max":0,"o":"m 74 194 b 119 100 80 157 95 126 b 222 61 144 74 178 61 b 311 81 258 61 288 68 b 369 132 334 94 353 111 b 403 205 384 153 396 178 b 424 290 411 232 418 261 l 546 983 l 644 983 l 521 283 b 497 181 515 251 507 217 b 449 81 487 144 471 111 b 364 5 428 50 399 25 b 228 -25 329 -15 283 -25 b 131 -10 192 -25 159 -20 b 58 32 102 0 78 14 b 10 93 38 50 22 70 b -14 167 -2 116 -10 141 l 74 194 m 724 1061 l 635 1211 l 493 1061 l 397 1061 l 585 1261 l 696 1261 l 811 1061 "},"ĵ":{"ha":349,"x_min":0,"x_max":0,"o":"m -137 -244 b -109 -251 -129 -247 -120 -249 b -79 -253 -98 -252 -88 -253 b -31 -242 -60 -253 -44 -249 b 1 -214 -18 -235 -7 -226 b 21 -170 10 -202 16 -187 b 33 -114 25 -153 30 -134 l 168 650 l 261 650 l 124 -129 b 105 -205 119 -155 113 -180 b 71 -270 97 -229 86 -251 b 13 -316 56 -289 37 -304 b -79 -333 -12 -328 -42 -333 b -117 -331 -89 -333 -102 -333 b -157 -324 -133 -330 -146 -327 l -137 -244 m 349 783 l 260 933 l 118 783 l 22 783 l 210 983 l 321 983 l 436 783 "},"Ķ":{"ha":813,"x_min":0,"x_max":0,"o":"m 251 542 l 751 983 l 896 983 l 358 528 l 769 0 l 640 0 l 247 524 l 246 524 l 154 0 l 56 0 l 229 983 l 328 983 l 250 542 m 211 -319 l 351 -62 l 450 -62 l 290 -319 "},"ķ":{"ha":676,"x_min":0,"x_max":0,"o":"m 213 357 l 544 650 l 674 650 l 317 349 l 614 0 l 492 0 l 210 342 l 206 342 l 147 0 l 53 0 l 238 1050 l 331 1050 l 208 357 m 140 -319 l 281 -62 l 379 -62 l 219 -319 "},"Ĺ":{"ha":708,"x_min":0,"x_max":0,"o":"m 628 88 l 614 0 l 56 0 l 229 983 l 328 983 l 168 88 m 240 1061 l 415 1261 l 538 1261 l 318 1061 "},"ĺ":{"ha":350,"x_min":0,"x_max":0,"o":"m 53 0 l 238 1050 l 332 1050 l 147 0 m 243 1100 l 418 1300 l 540 1300 l 321 1100 "},"Ļ":{"ha":708,"x_min":0,"x_max":0,"o":"m 628 88 l 614 0 l 56 0 l 229 983 l 328 983 l 168 88 m 163 -319 l 303 -62 l 401 -62 l 242 -319 "},"ļ":{"ha":350,"x_min":0,"x_max":0,"o":"m 53 0 l 238 1050 l 332 1050 l 147 0 m -64 -319 l 76 -62 l 175 -62 l 15 -319 "},"Ľ":{"ha":708,"x_min":0,"x_max":0,"o":"m 628 88 l 614 0 l 56 0 l 229 983 l 328 983 l 168 88 m 414 726 l 554 983 l 653 983 l 493 726 "},"ľ":{"ha":350,"x_min":0,"x_max":0,"o":"m 53 0 l 238 1050 l 332 1050 l 147 0 m 365 726 l 506 983 l 604 983 l 444 726 "},"Ŀ":{"ha":708,"x_min":0,"x_max":0,"o":"m 628 88 l 614 0 l 56 0 l 229 983 l 328 983 l 168 88 m 590 457 b 572 410 590 438 584 423 b 525 390 559 397 544 390 b 480 407 507 390 492 396 b 461 453 467 418 461 433 b 481 501 461 472 468 488 b 528 521 495 514 510 521 b 572 503 545 521 560 515 b 590 457 584 492 590 476 "},"ŀ":{"ha":433,"x_min":0,"x_max":0,"o":"m 53 0 l 238 1050 l 332 1050 l 147 0 m 456 457 b 437 410 456 438 449 423 b 390 390 424 397 409 390 b 345 407 373 390 358 396 b 326 453 333 418 326 433 b 347 501 326 472 333 488 b 393 521 360 514 375 521 b 438 503 411 521 425 515 b 456 457 450 492 456 476 "},"Ł":{"ha":708,"x_min":0,"x_max":0,"o":"m 590 761 l 572 664 l 226 406 l 171 89 l 629 89 l 614 0 l 56 0 l 115 336 l -17 239 l 1 336 l 132 433 l 229 983 l 329 983 l 244 503 "},"ł":{"ha":350,"x_min":0,"x_max":0,"o":"m 390 753 l 372 651 l 239 536 l 144 0 l 53 0 l 133 460 l 1 344 l 19 446 l 151 560 l 238 1050 l 329 1050 l 257 636 "},"Ń":{"ha":1042,"x_min":0,"x_max":0,"o":"m 761 140 l 910 983 l 1008 983 l 835 0 l 711 0 l 308 854 l 306 854 l 156 0 l 57 0 l 231 983 l 354 983 l 758 140 m 550 1061 l 725 1261 l 847 1261 l 628 1061 "},"ń":{"ha":801,"x_min":0,"x_max":0,"o":"m 250 650 b 243 592 248 632 246 613 b 235 539 240 570 238 553 l 238 539 b 334 633 263 579 295 610 b 460 667 373 655 415 667 b 624 613 530 667 585 649 b 683 468 664 578 683 529 b 681 435 683 457 683 446 b 676 399 680 424 678 412 l 606 0 l 513 0 l 576 360 b 585 442 582 388 585 416 b 553 549 585 487 574 523 b 440 589 531 576 494 589 b 365 574 415 589 390 584 b 295 526 340 563 317 548 b 238 447 273 505 254 478 b 201 333 221 415 209 377 l 143 0 l 50 0 l 139 507 b 151 575 143 525 147 547 b 160 650 155 603 158 628 l 250 650 m 371 783 l 546 983 l 668 983 l 449 783 "},"Ņ":{"ha":1042,"x_min":0,"x_max":0,"o":"m 761 140 l 910 983 l 1008 983 l 835 0 l 711 0 l 308 854 l 306 854 l 156 0 l 57 0 l 231 983 l 354 983 l 758 140 m 274 -319 l 414 -62 l 513 -62 l 353 -319 "},"ņ":{"ha":801,"x_min":0,"x_max":0,"o":"m 250 650 b 243 592 248 632 246 613 b 235 539 240 570 238 553 l 238 539 b 334 633 263 579 295 610 b 460 667 373 655 415 667 b 624 613 530 667 585 649 b 683 468 664 578 683 529 b 681 435 683 457 683 446 b 676 399 680 424 678 412 l 606 0 l 513 0 l 576 360 b 585 442 582 388 585 416 b 553 549 585 487 574 523 b 440 589 531 576 494 589 b 365 574 415 589 390 584 b 295 526 340 563 317 548 b 238 447 273 505 254 478 b 201 333 221 415 209 377 l 143 0 l 50 0 l 139 507 b 151 575 143 525 147 547 b 160 650 155 603 158 628 l 250 650 m 156 -319 l 296 -62 l 394 -62 l 235 -319 "},"Ň":{"ha":1042,"x_min":0,"x_max":0,"o":"m 761 140 l 910 983 l 1008 983 l 835 0 l 711 0 l 308 854 l 306 854 l 156 0 l 57 0 l 231 983 l 354 983 l 758 140 m 565 1061 l 450 1261 l 538 1261 l 626 1111 l 768 1261 l 864 1261 l 676 1061 "},"ň":{"ha":801,"x_min":0,"x_max":0,"o":"m 250 650 b 243 592 248 632 246 613 b 235 539 240 570 238 553 l 238 539 b 334 633 263 579 295 610 b 460 667 373 655 415 667 b 624 613 530 667 585 649 b 683 468 664 578 683 529 b 681 435 683 457 683 446 b 676 399 680 424 678 412 l 606 0 l 513 0 l 576 360 b 585 442 582 388 585 416 b 553 549 585 487 574 523 b 440 589 531 576 494 589 b 365 574 415 589 390 584 b 295 526 340 563 317 548 b 238 447 273 505 254 478 b 201 333 221 415 209 377 l 143 0 l 50 0 l 139 507 b 151 575 143 525 147 547 b 160 650 155 603 158 628 l 250 650 m 390 783 l 275 983 l 363 983 l 451 833 l 593 983 l 689 983 l 501 783 "},"ŉ":{"ha":801,"x_min":0,"x_max":0,"o":"m 250 650 b 243 592 248 632 246 613 b 235 539 240 570 238 553 l 238 539 b 334 633 263 579 295 610 b 460 667 373 655 415 667 b 624 613 530 667 585 649 b 683 468 664 578 683 529 b 681 435 683 457 683 446 b 676 399 680 424 678 412 l 606 0 l 513 0 l 576 360 b 585 442 582 388 585 416 b 553 549 585 487 574 523 b 440 589 531 576 494 589 b 365 574 415 589 390 584 b 295 526 340 563 317 548 b 238 447 273 505 254 478 b 201 333 221 415 209 377 l 143 0 l 50 0 l 139 507 b 151 575 143 525 147 547 b 160 650 155 603 158 628 l 250 650 m 96 726 l 236 983 l 335 983 l 175 726 "},"Ō":{"ha":1158,"x_min":0,"x_max":0,"o":"m 518 -25 b 342 6 454 -25 395 -15 b 203 92 288 26 242 55 b 113 225 164 129 134 173 b 81 397 91 277 81 334 b 125 635 81 481 95 561 b 247 830 155 710 195 775 b 428 960 298 885 359 928 b 654 1008 498 992 574 1008 b 831 978 718 1008 777 998 b 969 893 884 959 930 930 b 1059 760 1007 856 1037 812 b 1092 589 1081 709 1092 652 b 1049 351 1092 505 1077 425 b 929 156 1020 276 980 211 b 747 24 878 100 818 56 b 518 -25 677 -9 600 -25 m 986 579 b 964 713 986 626 979 671 b 899 822 949 754 928 791 b 794 895 871 853 836 877 b 650 922 752 913 704 922 b 460 878 581 922 517 908 b 313 763 402 849 353 811 b 219 597 273 714 242 659 b 186 406 197 535 186 471 b 208 272 186 358 193 314 b 272 162 222 229 244 193 b 378 88 301 131 336 106 b 522 61 419 70 468 61 b 710 104 591 61 653 75 b 857 219 767 133 816 171 b 952 385 898 268 929 323 b 986 579 975 448 986 513 m 499 1111 l 511 1186 l 886 1186 l 874 1111 "},"ō":{"ha":828,"x_min":0,"x_max":0,"o":"m 347 -17 b 226 4 304 -17 263 -10 b 131 62 189 18 158 37 b 69 151 105 86 84 116 b 47 265 55 185 47 224 b 76 420 47 320 57 372 b 156 548 95 469 121 511 b 278 635 190 584 231 613 b 433 667 325 656 377 667 b 555 647 478 667 518 660 b 649 589 591 633 623 614 b 711 500 676 564 696 534 b 733 386 726 466 733 428 b 705 229 733 331 724 278 b 625 101 686 180 659 137 b 503 15 591 65 550 37 b 347 -17 456 -6 404 -17 m 636 381 b 622 463 636 410 631 438 b 581 529 613 489 599 511 b 515 573 563 548 541 562 b 428 589 489 584 460 589 b 315 563 387 589 350 580 b 226 494 281 546 251 523 b 167 392 201 465 182 431 b 146 271 153 354 146 313 b 160 188 146 241 150 214 b 201 122 169 163 183 141 b 266 78 219 104 241 89 b 353 63 291 68 320 63 b 467 88 394 63 433 71 b 557 157 502 105 532 128 b 615 258 582 186 601 219 b 636 381 629 296 636 337 m 290 833 l 303 908 l 678 908 l 665 833 "},"Ŏ":{"ha":1158,"x_min":0,"x_max":0,"o":"m 518 -25 b 342 6 454 -25 395 -15 b 203 92 288 26 242 55 b 113 225 164 129 134 173 b 81 397 91 277 81 334 b 125 635 81 481 95 561 b 247 830 155 710 195 775 b 428 960 298 885 359 928 b 654 1008 498 992 574 1008 b 831 978 718 1008 777 998 b 969 893 884 959 930 930 b 1059 760 1007 856 1037 812 b 1092 589 1081 709 1092 652 b 1049 351 1092 505 1077 425 b 929 156 1020 276 980 211 b 747 24 878 100 818 56 b 518 -25 677 -9 600 -25 m 986 579 b 964 713 986 626 979 671 b 899 822 949 754 928 791 b 794 895 871 853 836 877 b 650 922 752 913 704 922 b 460 878 581 922 517 908 b 313 763 402 849 353 811 b 219 597 273 714 242 659 b 186 406 197 535 186 471 b 208 272 186 358 193 314 b 272 162 222 229 244 193 b 378 88 301 131 336 106 b 522 61 419 70 468 61 b 710 104 591 61 653 75 b 857 219 767 133 816 171 b 952 385 898 268 929 323 b 986 579 975 448 986 513 m 899 1261 b 872 1187 894 1234 885 1209 b 822 1128 858 1164 841 1145 b 753 1091 802 1112 779 1100 b 674 1078 728 1082 701 1078 b 539 1124 616 1078 571 1093 b 490 1261 506 1154 490 1200 l 551 1261 b 587 1176 551 1220 563 1192 b 675 1153 610 1161 640 1153 b 779 1180 713 1153 748 1162 b 838 1261 811 1198 830 1225 l 899 1261 "},"ŏ":{"ha":828,"x_min":0,"x_max":0,"o":"m 347 -17 b 226 4 304 -17 263 -10 b 131 62 189 18 158 37 b 69 151 105 86 84 116 b 47 265 55 185 47 224 b 76 420 47 320 57 372 b 156 548 95 469 121 511 b 278 635 190 584 231 613 b 433 667 325 656 377 667 b 555 647 478 667 518 660 b 649 589 591 633 623 614 b 711 500 676 564 696 534 b 733 386 726 466 733 428 b 705 229 733 331 724 278 b 625 101 686 180 659 137 b 503 15 591 65 550 37 b 347 -17 456 -6 404 -17 m 636 381 b 622 463 636 410 631 438 b 581 529 613 489 599 511 b 515 573 563 548 541 562 b 428 589 489 584 460 589 b 315 563 387 589 350 580 b 226 494 281 546 251 523 b 167 392 201 465 182 431 b 146 271 153 354 146 313 b 160 188 146 241 150 214 b 201 122 169 163 183 141 b 266 78 219 104 241 89 b 353 63 291 68 320 63 b 467 88 394 63 433 71 b 557 157 502 105 532 128 b 615 258 582 186 601 219 b 636 381 629 296 636 337 m 689 983 b 662 909 684 956 675 932 b 612 851 648 886 632 867 b 544 813 592 834 569 822 b 464 800 518 804 492 800 b 329 846 406 800 362 815 b 281 983 297 876 281 922 l 342 983 b 377 899 342 943 353 914 b 465 875 401 883 430 875 b 569 902 503 875 538 884 b 628 983 601 920 620 947 l 689 983 "},"Ő":{"ha":1158,"x_min":0,"x_max":0,"o":"m 518 -25 b 342 6 454 -25 395 -15 b 203 92 288 26 242 55 b 113 225 164 129 134 173 b 81 397 91 277 81 334 b 125 635 81 481 95 561 b 247 830 155 710 195 775 b 428 960 298 885 359 928 b 654 1008 498 992 574 1008 b 831 978 718 1008 777 998 b 969 893 884 959 930 930 b 1059 760 1007 856 1037 812 b 1092 589 1081 709 1092 652 b 1049 351 1092 505 1077 425 b 929 156 1020 276 980 211 b 747 24 878 100 818 56 b 518 -25 677 -9 600 -25 m 986 579 b 964 713 986 626 979 671 b 899 822 949 754 928 791 b 794 895 871 853 836 877 b 650 922 752 913 704 922 b 460 878 581 922 517 908 b 313 763 402 849 353 811 b 219 597 273 714 242 659 b 186 406 197 535 186 471 b 208 272 186 358 193 314 b 272 162 222 229 244 193 b 378 88 301 131 336 106 b 522 61 419 70 468 61 b 710 104 591 61 653 75 b 857 219 767 133 816 171 b 952 385 898 268 929 323 b 986 579 975 448 986 513 m 497 1061 l 674 1261 l 800 1261 l 579 1061 m 735 1061 l 910 1261 l 1036 1261 l 817 1061 "},"ő":{"ha":828,"x_min":0,"x_max":0,"o":"m 347 -17 b 226 4 304 -17 263 -10 b 131 62 189 18 158 37 b 69 151 105 86 84 116 b 47 265 55 185 47 224 b 76 420 47 320 57 372 b 156 548 95 469 121 511 b 278 635 190 584 231 613 b 433 667 325 656 377 667 b 555 647 478 667 518 660 b 649 589 591 633 623 614 b 711 500 676 564 696 534 b 733 386 726 466 733 428 b 705 229 733 331 724 278 b 625 101 686 180 659 137 b 503 15 591 65 550 37 b 347 -17 456 -6 404 -17 m 636 381 b 622 463 636 410 631 438 b 581 529 613 489 599 511 b 515 573 563 548 541 562 b 428 589 489 584 460 589 b 315 563 387 589 350 580 b 226 494 281 546 251 523 b 167 392 201 465 182 431 b 146 271 153 354 146 313 b 160 188 146 241 150 214 b 201 122 169 163 183 141 b 266 78 219 104 241 89 b 353 63 291 68 320 63 b 467 88 394 63 433 71 b 557 157 502 105 532 128 b 615 258 582 186 601 219 b 636 381 629 296 636 337 m 288 783 l 464 983 l 590 983 l 369 783 m 525 783 l 700 983 l 826 983 l 607 783 "},"Ŕ":{"ha":832,"x_min":0,"x_max":0,"o":"m 56 0 l 229 983 l 494 983 b 615 969 538 983 578 979 b 712 926 652 960 684 946 b 776 853 739 907 760 882 b 799 749 791 823 799 788 b 776 631 799 703 791 664 b 715 547 762 597 741 569 b 622 493 688 524 657 506 b 510 468 587 480 550 472 l 726 0 l 614 0 l 408 460 l 235 460 l 154 0 m 425 543 b 524 551 458 543 491 546 b 611 579 556 556 585 565 b 674 638 637 593 658 613 b 699 738 691 664 699 697 b 640 858 699 791 679 831 b 479 899 601 885 548 899 l 313 899 l 250 543 m 426 1061 l 601 1261 l 724 1261 l 504 1061 "},"ŕ":{"ha":483,"x_min":0,"x_max":0,"o":"m 139 507 b 151 575 143 525 147 547 b 160 650 155 603 158 628 l 249 650 b 242 592 247 632 244 613 b 233 539 239 570 236 553 l 236 539 b 328 631 260 577 291 608 b 453 667 365 655 406 667 b 485 665 465 667 475 666 b 514 660 494 664 504 663 l 492 571 b 466 576 487 573 478 575 b 428 579 453 578 441 579 b 354 565 403 579 378 575 b 288 522 330 556 308 541 b 235 445 268 502 251 476 b 201 333 220 414 209 377 l 143 0 l 50 0 l 139 507 m 206 783 l 381 983 l 503 983 l 283 783 "},"Ŗ":{"ha":832,"x_min":0,"x_max":0,"o":"m 56 0 l 229 983 l 494 983 b 615 969 538 983 578 979 b 712 926 652 960 684 946 b 776 853 739 907 760 882 b 799 749 791 823 799 788 b 776 631 799 703 791 664 b 715 547 762 597 741 569 b 622 493 688 524 657 506 b 510 468 587 480 550 472 l 726 0 l 614 0 l 408 460 l 235 460 l 154 0 m 425 543 b 524 551 458 543 491 546 b 611 579 556 556 585 565 b 674 638 637 593 658 613 b 699 738 691 664 699 697 b 640 858 699 791 679 831 b 479 899 601 885 548 899 l 313 899 l 250 543 m 193 -319 l 333 -62 l 432 -62 l 272 -319 "},"ŗ":{"ha":483,"x_min":0,"x_max":0,"o":"m 139 507 b 151 575 143 525 147 547 b 160 650 155 603 158 628 l 249 650 b 242 592 247 632 244 613 b 233 539 239 570 236 553 l 236 539 b 328 631 260 577 291 608 b 453 667 365 655 406 667 b 485 665 465 667 475 666 b 514 660 494 664 504 663 l 492 571 b 466 576 487 573 478 575 b 428 579 453 578 441 579 b 354 565 403 579 378 575 b 288 522 330 556 308 541 b 235 445 268 502 251 476 b 201 333 220 414 209 377 l 143 0 l 50 0 l 139 507 m -68 -321 l 72 -64 l 171 -64 l 11 -321 "},"Ř":{"ha":832,"x_min":0,"x_max":0,"o":"m 56 0 l 229 983 l 494 983 b 615 969 538 983 578 979 b 712 926 652 960 684 946 b 776 853 739 907 760 882 b 799 749 791 823 799 788 b 776 631 799 703 791 664 b 715 547 762 597 741 569 b 622 493 688 524 657 506 b 510 468 587 480 550 472 l 726 0 l 614 0 l 408 460 l 235 460 l 154 0 m 425 543 b 524 551 458 543 491 546 b 611 579 556 556 585 565 b 674 638 637 593 658 613 b 699 738 691 664 699 697 b 640 858 699 791 679 831 b 479 899 601 885 548 899 l 313 899 l 250 543 m 436 1061 l 321 1261 l 408 1261 l 497 1111 l 639 1261 l 735 1261 l 547 1061 "},"ř":{"ha":483,"x_min":0,"x_max":0,"o":"m 139 507 b 151 575 143 525 147 547 b 160 650 155 603 158 628 l 249 650 b 242 592 247 632 244 613 b 233 539 239 570 236 553 l 236 539 b 328 631 260 577 291 608 b 453 667 365 655 406 667 b 485 665 465 667 475 666 b 514 660 494 664 504 663 l 492 571 b 466 576 487 573 478 575 b 428 579 453 578 441 579 b 354 565 403 579 378 575 b 288 522 330 556 308 541 b 235 445 268 502 251 476 b 201 333 220 414 209 377 l 143 0 l 50 0 l 139 507 m 286 783 l 171 983 l 258 983 l 347 833 l 489 983 l 585 983 l 397 783 "},"Ś":{"ha":783,"x_min":0,"x_max":0,"o":"m 682 831 b 606 896 664 856 639 878 b 489 922 572 913 533 922 b 403 910 460 922 431 918 b 325 874 374 903 348 891 b 269 813 302 858 283 838 b 247 725 254 789 247 759 b 261 658 247 699 252 677 b 299 610 270 640 283 624 b 356 574 316 596 334 584 b 426 544 378 563 401 554 b 514 507 455 533 484 521 b 594 456 544 493 570 476 b 653 384 619 435 638 411 b 675 288 668 357 675 325 b 657 183 675 254 669 219 b 597 81 645 146 625 112 b 488 5 569 50 533 25 b 319 -25 442 -15 386 -25 b 146 12 259 -25 201 -13 b 18 121 90 36 48 73 l 107 178 b 190 95 125 145 153 118 b 324 61 227 72 272 61 b 419 76 357 61 389 66 b 498 117 449 85 475 99 b 551 183 521 135 538 157 b 571 269 564 209 571 238 b 554 342 571 297 565 321 b 509 394 543 362 528 380 b 444 433 490 409 468 422 b 365 465 419 444 393 455 b 283 501 338 475 310 488 b 213 551 256 515 233 532 b 163 620 192 571 176 594 b 144 713 151 647 144 677 b 168 829 144 754 152 793 b 236 923 184 865 206 897 b 346 985 266 949 302 970 b 494 1008 389 1001 439 1008 b 665 976 561 1008 618 997 b 767 892 711 954 745 926 l 682 831 m 421 1061 l 596 1261 l 718 1261 l 499 1061 "},"ś":{"ha":617,"x_min":0,"x_max":0,"o":"m 492 507 b 433 566 479 531 459 551 b 340 589 407 581 376 589 b 288 583 324 589 306 587 b 238 565 270 580 253 574 b 201 533 223 557 210 546 b 186 483 191 519 186 503 b 195 440 186 466 189 451 b 221 412 201 429 210 420 b 261 391 232 404 245 397 b 315 374 277 385 295 379 b 461 303 379 355 428 332 b 511 183 494 275 511 235 b 488 92 511 148 503 118 b 428 30 472 67 452 46 b 347 -6 404 14 377 2 b 260 -17 318 -13 288 -17 b 106 14 205 -17 154 -6 b -6 107 59 34 21 65 l 75 160 b 146 91 91 133 114 110 b 256 63 177 72 214 63 b 315 69 276 63 296 65 b 367 88 335 73 352 79 b 404 123 383 97 395 109 b 418 174 413 137 418 154 b 377 252 418 208 404 234 b 260 304 350 270 311 288 b 201 326 240 311 221 318 b 149 359 182 335 164 346 b 110 408 133 372 120 389 b 96 476 101 427 96 450 b 119 563 96 510 103 538 b 177 622 134 587 153 606 b 257 656 201 637 227 648 b 346 667 287 663 316 667 b 480 638 396 667 441 657 b 565 560 519 618 548 592 l 492 507 m 300 783 l 475 983 l 597 983 l 378 783 "},"Ŝ":{"ha":783,"x_min":0,"x_max":0,"o":"m 682 831 b 606 896 664 856 639 878 b 489 922 572 913 533 922 b 403 910 460 922 431 918 b 325 874 374 903 348 891 b 269 813 302 858 283 838 b 247 725 254 789 247 759 b 261 658 247 699 252 677 b 299 610 270 640 283 624 b 356 574 316 596 334 584 b 426 544 378 563 401 554 b 514 507 455 533 484 521 b 594 456 544 493 570 476 b 653 384 619 435 638 411 b 675 288 668 357 675 325 b 657 183 675 254 669 219 b 597 81 645 146 625 112 b 488 5 569 50 533 25 b 319 -25 442 -15 386 -25 b 146 12 259 -25 201 -13 b 18 121 90 36 48 73 l 107 178 b 190 95 125 145 153 118 b 324 61 227 72 272 61 b 419 76 357 61 389 66 b 498 117 449 85 475 99 b 551 183 521 135 538 157 b 571 269 564 209 571 238 b 554 342 571 297 565 321 b 509 394 543 362 528 380 b 444 433 490 409 468 422 b 365 465 419 444 393 455 b 283 501 338 475 310 488 b 213 551 256 515 233 532 b 163 620 192 571 176 594 b 144 713 151 647 144 677 b 168 829 144 754 152 793 b 236 923 184 865 206 897 b 346 985 266 949 302 970 b 494 1008 389 1001 439 1008 b 665 976 561 1008 618 997 b 767 892 711 954 745 926 l 682 831 m 631 1061 l 542 1211 l 400 1061 l 304 1061 l 492 1261 l 603 1261 l 718 1061 "},"ŝ":{"ha":617,"x_min":0,"x_max":0,"o":"m 492 507 b 433 566 479 531 459 551 b 340 589 407 581 376 589 b 288 583 324 589 306 587 b 238 565 270 580 253 574 b 201 533 223 557 210 546 b 186 483 191 519 186 503 b 195 440 186 466 189 451 b 221 412 201 429 210 420 b 261 391 232 404 245 397 b 315 374 277 385 295 379 b 461 303 379 355 428 332 b 511 183 494 275 511 235 b 488 92 511 148 503 118 b 428 30 472 67 452 46 b 347 -6 404 14 377 2 b 260 -17 318 -13 288 -17 b 106 14 205 -17 154 -6 b -6 107 59 34 21 65 l 75 160 b 146 91 91 133 114 110 b 256 63 177 72 214 63 b 315 69 276 63 296 65 b 367 88 335 73 352 79 b 404 123 383 97 395 109 b 418 174 413 137 418 154 b 377 252 418 208 404 234 b 260 304 350 270 311 288 b 201 326 240 311 221 318 b 149 359 182 335 164 346 b 110 408 133 372 120 389 b 96 476 101 427 96 450 b 119 563 96 510 103 538 b 177 622 134 587 153 606 b 257 656 201 637 227 648 b 346 667 287 663 316 667 b 480 638 396 667 441 657 b 565 560 519 618 548 592 l 492 507 m 500 783 l 411 933 l 269 783 l 174 783 l 361 983 l 472 983 l 588 783 "},"Ş":{"ha":783,"x_min":0,"x_max":0,"o":"m 682 831 b 606 896 664 856 639 878 b 489 922 572 913 533 922 b 403 910 460 922 431 918 b 325 874 374 903 348 891 b 269 813 302 858 283 838 b 247 725 254 789 247 759 b 261 658 247 699 252 677 b 299 610 270 640 283 624 b 356 574 316 596 334 584 b 426 544 378 563 401 554 b 514 507 455 533 484 521 b 594 456 544 493 570 476 b 653 384 619 435 638 411 b 675 288 668 357 675 325 b 659 187 675 255 670 222 b 606 90 648 152 631 120 b 507 14 581 61 548 35 b 356 -24 466 -7 416 -20 l 292 -104 b 313 -100 299 -102 306 -101 b 335 -99 320 -99 327 -99 b 370 -103 346 -99 358 -100 b 403 -119 383 -107 394 -112 b 428 -148 413 -127 421 -136 b 438 -192 434 -159 438 -174 b 422 -252 438 -216 432 -236 b 381 -291 411 -268 397 -281 b 326 -312 364 -301 346 -308 b 271 -319 307 -317 288 -319 b 203 -312 252 -319 230 -317 b 136 -292 177 -308 155 -301 l 163 -242 b 212 -257 177 -249 194 -254 b 265 -261 230 -260 248 -261 b 297 -258 275 -261 286 -260 b 326 -248 307 -256 317 -253 b 349 -228 336 -243 343 -236 b 357 -199 354 -221 357 -211 b 337 -158 357 -180 350 -167 b 288 -146 323 -150 307 -146 b 226 -157 267 -146 247 -150 l 206 -136 l 296 -24 b 213 -12 268 -23 240 -19 b 135 17 185 -5 159 5 b 69 61 111 29 89 44 b 18 121 49 79 32 99 l 107 178 b 190 95 125 145 153 118 b 324 61 227 72 272 61 b 419 76 357 61 389 66 b 498 117 449 85 475 99 b 551 183 521 135 538 157 b 571 269 564 209 571 238 b 554 342 571 297 565 321 b 509 394 543 362 528 380 b 444 433 490 409 468 422 b 365 465 419 444 393 455 b 283 501 338 475 310 488 b 213 551 256 515 233 532 b 163 620 192 571 176 594 b 144 713 151 647 144 677 b 168 829 144 754 152 793 b 236 923 184 865 206 897 b 346 985 266 949 302 970 b 494 1008 389 1001 439 1008 b 665 976 561 1008 618 997 b 767 892 711 954 745 926 l 682 831 "},"ş":{"ha":617,"x_min":0,"x_max":0,"o":"m 492 507 b 433 566 479 531 459 551 b 340 589 407 581 376 589 b 288 583 324 589 306 587 b 238 565 270 580 253 574 b 201 533 223 557 210 546 b 186 483 191 519 186 503 b 195 440 186 466 189 451 b 221 412 201 429 210 420 b 261 391 232 404 245 397 b 315 374 277 385 295 379 b 461 303 379 355 428 332 b 511 183 494 275 511 235 b 492 101 511 152 505 124 b 443 42 480 77 463 57 b 374 4 423 26 400 13 b 296 -14 348 -5 322 -11 l 225 -104 b 247 -100 232 -102 240 -101 b 268 -99 253 -99 261 -99 b 303 -103 279 -99 291 -100 b 337 -119 316 -107 327 -112 b 361 -148 347 -127 355 -136 b 371 -192 368 -159 371 -174 b 355 -252 371 -216 366 -236 b 314 -291 344 -268 331 -281 b 260 -312 297 -301 279 -308 b 204 -319 240 -317 222 -319 b 137 -312 186 -319 163 -317 b 69 -292 110 -308 88 -301 l 96 -242 b 145 -257 111 -249 127 -254 b 199 -261 163 -260 181 -261 b 230 -258 209 -261 219 -260 b 260 -248 241 -256 250 -253 b 282 -228 269 -243 276 -236 b 290 -199 288 -221 290 -211 b 270 -158 290 -180 284 -167 b 221 -146 257 -150 240 -146 b 160 -157 200 -146 180 -150 l 139 -136 l 235 -15 b 96 19 185 -12 138 -1 b -6 107 53 39 19 68 l 75 160 b 146 91 91 133 114 110 b 256 63 177 72 214 63 b 315 69 276 63 296 65 b 367 88 335 73 352 79 b 404 123 383 97 395 109 b 418 174 413 137 418 154 b 377 252 418 208 404 234 b 260 304 350 270 311 288 b 201 326 240 311 221 318 b 149 359 182 335 164 346 b 110 408 133 372 120 389 b 96 476 101 427 96 450 b 119 563 96 510 103 538 b 177 622 134 587 153 606 b 257 656 201 637 227 648 b 346 667 287 663 316 667 b 480 638 396 667 441 657 b 565 560 519 618 548 592 l 492 507 "},"Ţ":{"ha":760,"x_min":0,"x_max":0,"o":"m 336 0 l 253 -104 b 274 -100 260 -102 267 -101 b 296 -99 281 -99 288 -99 b 331 -103 307 -99 319 -100 b 365 -119 344 -107 355 -112 b 389 -148 374 -127 382 -136 b 399 -192 395 -159 399 -174 b 383 -252 399 -216 393 -236 b 342 -291 372 -268 358 -281 b 288 -312 325 -301 307 -308 b 232 -319 268 -317 250 -319 b 165 -312 213 -319 191 -317 b 97 -292 138 -308 116 -301 l 124 -242 b 173 -257 138 -249 155 -254 b 226 -261 191 -260 209 -261 b 258 -258 237 -261 247 -260 b 288 -248 268 -256 278 -253 b 310 -228 297 -243 304 -236 b 318 -199 315 -221 318 -211 b 298 -158 318 -180 311 -167 b 249 -146 284 -150 268 -146 b 188 -157 228 -146 208 -150 l 167 -136 l 276 0 l 249 0 l 407 896 l 78 896 l 93 983 l 851 983 l 836 896 l 506 896 l 347 0 "},"ţ":{"ha":426,"x_min":0,"x_max":0,"o":"m 244 572 l 176 192 b 172 147 174 175 172 160 b 194 86 172 117 180 96 b 253 71 209 76 229 71 b 296 76 266 71 280 73 b 332 92 312 80 324 85 l 321 11 b 239 -7 300 0 272 -6 l 163 -104 b 184 -100 170 -102 177 -101 b 206 -99 191 -99 198 -99 b 241 -103 217 -99 228 -100 b 274 -119 253 -107 265 -112 b 299 -148 284 -127 292 -136 b 308 -192 305 -159 308 -174 b 292 -252 308 -216 303 -236 b 251 -291 282 -268 268 -281 b 197 -312 235 -301 217 -308 b 142 -319 178 -317 159 -319 b 74 -312 123 -319 101 -317 b 7 -292 48 -308 25 -301 l 33 -242 b 83 -257 48 -249 65 -254 b 136 -261 101 -260 119 -261 b 167 -258 146 -261 157 -260 b 197 -248 178 -256 188 -253 b 219 -228 206 -243 214 -236 b 228 -199 225 -221 228 -211 b 208 -158 228 -180 221 -167 b 158 -146 194 -150 178 -146 b 97 -157 138 -146 118 -150 l 76 -136 l 181 -6 b 142 6 168 -4 155 0 b 108 28 129 11 117 19 b 84 66 98 38 90 51 b 75 121 78 81 75 100 b 79 165 75 134 76 149 l 151 572 l 17 572 l 32 650 l 164 650 l 196 833 l 289 833 l 257 650 l 436 650 l 421 572 "},"Ť":{"ha":760,"x_min":0,"x_max":0,"o":"m 249 0 l 407 896 l 78 896 l 93 983 l 851 983 l 836 896 l 506 896 l 347 0 m 426 1061 l 311 1261 l 399 1261 l 488 1111 l 629 1261 l 725 1261 l 538 1061 "},"ť":{"ha":426,"x_min":0,"x_max":0,"o":"m 244 572 l 176 192 b 172 147 174 175 172 160 b 194 86 172 117 180 96 b 253 71 209 76 229 71 b 296 76 266 71 280 73 b 332 92 312 80 324 85 l 321 11 b 274 -3 309 5 293 0 b 214 -8 255 -7 235 -8 b 166 -3 198 -8 182 -6 b 122 17 150 1 135 8 b 88 57 108 27 97 40 b 75 121 79 74 75 95 b 79 165 75 134 76 149 l 151 572 l 17 572 l 32 650 l 164 650 l 196 833 l 289 833 l 257 650 l 436 650 l 421 572 m 367 758 l 507 1015 l 606 1015 l 446 758 "},"Ŧ":{"ha":775,"x_min":0,"x_max":0,"o":"m 414 896 l 85 896 l 100 983 l 858 983 l 843 896 l 513 896 l 488 754 l 728 754 l 717 685 l 475 685 l 354 0 l 256 0 l 376 685 l 142 685 l 153 754 l 389 754 "},"ŧ":{"ha":426,"x_min":0,"x_max":0,"o":"m 151 572 l 17 572 l 32 650 l 164 650 l 196 833 l 289 833 l 257 650 l 436 650 l 421 572 l 244 572 l 219 436 l 378 436 l 367 367 l 207 367 l 176 192 b 172 147 174 175 172 160 b 194 86 172 117 180 96 b 253 71 209 76 229 71 b 296 76 266 71 280 73 b 332 92 312 80 324 85 l 321 11 b 274 -3 309 5 293 0 b 214 -8 255 -7 235 -8 b 166 -3 198 -8 182 -6 b 122 17 150 1 135 8 b 88 57 108 27 97 40 b 75 121 79 74 75 95 b 79 165 75 134 76 149 l 114 367 l 11 367 l 22 436 l 126 436 "},"Ũ":{"ha":986,"x_min":0,"x_max":0,"o":"m 432 -25 b 281 1 373 -25 322 -16 b 181 70 240 19 206 42 b 124 166 155 98 136 130 b 107 274 113 202 107 238 b 115 367 107 306 110 337 l 224 983 l 322 983 l 215 378 b 207 293 210 348 207 320 b 219 204 207 262 211 232 b 258 131 227 176 240 152 b 328 80 276 109 299 92 b 438 61 358 67 394 61 b 570 87 489 61 534 70 b 662 156 607 104 637 127 b 720 258 686 185 706 219 b 753 378 734 296 745 336 l 860 983 l 958 983 l 850 367 b 813 237 843 326 830 283 b 740 110 796 191 772 149 b 617 13 708 71 667 39 b 432 -25 567 -12 505 -25 m 382 1078 b 405 1131 388 1095 396 1113 b 437 1177 414 1148 424 1164 b 479 1210 449 1191 463 1201 b 535 1222 495 1218 513 1222 b 583 1213 551 1222 568 1219 b 631 1190 599 1206 615 1199 b 676 1169 646 1183 661 1176 b 718 1158 690 1162 704 1158 b 769 1180 739 1158 756 1166 b 799 1228 781 1194 791 1210 l 858 1228 b 835 1174 852 1209 844 1191 b 802 1128 825 1157 815 1142 b 759 1096 790 1115 775 1104 b 704 1083 743 1088 725 1083 b 656 1094 688 1083 671 1087 b 608 1115 640 1101 624 1108 b 565 1138 594 1124 579 1131 b 521 1147 550 1144 536 1147 b 471 1126 500 1147 483 1140 b 442 1078 459 1111 449 1095 l 382 1078 "},"ũ":{"ha":801,"x_min":0,"x_max":0,"o":"m 506 0 b 513 58 507 18 510 37 b 521 111 515 80 518 97 l 518 111 b 422 17 493 71 461 40 b 296 -17 382 -5 340 -17 b 131 37 225 -17 171 1 b 72 182 92 72 72 121 b 74 215 72 193 73 204 b 79 251 76 226 77 238 l 150 650 l 243 650 l 179 290 b 171 208 174 261 171 233 b 203 101 171 163 181 127 b 315 63 224 75 262 62 b 390 78 340 63 365 68 b 460 124 415 88 439 103 b 518 203 482 145 501 172 b 554 317 535 235 547 273 l 613 650 l 706 650 l 617 143 b 605 75 613 125 609 103 b 596 0 601 47 598 22 l 506 0 m 229 800 b 252 853 236 818 243 835 b 284 899 261 870 272 886 b 326 932 297 913 311 924 b 382 944 342 940 361 944 b 431 935 399 944 415 941 b 478 913 446 928 462 921 b 523 891 494 905 509 898 b 565 881 537 884 551 881 b 616 902 587 881 603 888 b 646 950 628 916 638 932 l 706 950 b 682 897 699 931 691 914 b 649 851 673 879 662 864 b 606 818 637 837 622 826 b 551 806 590 810 572 806 b 503 816 535 806 519 809 b 456 838 487 823 471 830 b 412 860 441 846 426 853 b 368 869 397 866 383 869 b 318 848 347 869 330 862 b 289 800 306 834 296 818 l 229 800 "},"Ū":{"ha":986,"x_min":0,"x_max":0,"o":"m 432 -25 b 281 1 373 -25 322 -16 b 181 70 240 19 206 42 b 124 166 155 98 136 130 b 107 274 113 202 107 238 b 115 367 107 306 110 337 l 224 983 l 322 983 l 215 378 b 207 293 210 348 207 320 b 219 204 207 262 211 232 b 258 131 227 176 240 152 b 328 80 276 109 299 92 b 438 61 358 67 394 61 b 570 87 489 61 534 70 b 662 156 607 104 637 127 b 720 258 686 185 706 219 b 753 378 734 296 745 336 l 860 983 l 958 983 l 850 367 b 813 237 843 326 830 283 b 740 110 796 191 772 149 b 617 13 708 71 667 39 b 432 -25 567 -12 505 -25 m 425 1111 l 438 1186 l 813 1186 l 800 1111 "},"ū":{"ha":801,"x_min":0,"x_max":0,"o":"m 506 0 b 513 58 507 18 510 37 b 521 111 515 80 518 97 l 518 111 b 422 17 493 71 461 40 b 296 -17 382 -5 340 -17 b 131 37 225 -17 171 1 b 72 182 92 72 72 121 b 74 215 72 193 73 204 b 79 251 76 226 77 238 l 150 650 l 243 650 l 179 290 b 171 208 174 261 171 233 b 203 101 171 163 181 127 b 315 63 224 75 262 62 b 390 78 340 63 365 68 b 460 124 415 88 439 103 b 518 203 482 145 501 172 b 554 317 535 235 547 273 l 613 650 l 706 650 l 617 143 b 605 75 613 125 609 103 b 596 0 601 47 598 22 l 506 0 m 271 833 l 283 908 l 658 908 l 646 833 "},"Ŭ":{"ha":986,"x_min":0,"x_max":0,"o":"m 432 -25 b 281 1 373 -25 322 -16 b 181 70 240 19 206 42 b 124 166 155 98 136 130 b 107 274 113 202 107 238 b 115 367 107 306 110 337 l 224 983 l 322 983 l 215 378 b 207 293 210 348 207 320 b 219 204 207 262 211 232 b 258 131 227 176 240 152 b 328 80 276 109 299 92 b 438 61 358 67 394 61 b 570 87 489 61 534 70 b 662 156 607 104 637 127 b 720 258 686 185 706 219 b 753 378 734 296 745 336 l 860 983 l 958 983 l 850 367 b 813 237 843 326 830 283 b 740 110 796 191 772 149 b 617 13 708 71 667 39 b 432 -25 567 -12 505 -25 m 828 1261 b 801 1187 823 1234 814 1209 b 751 1128 787 1164 771 1145 b 683 1091 731 1112 708 1100 b 603 1078 657 1082 631 1078 b 468 1124 545 1078 500 1093 b 419 1261 436 1154 419 1200 l 481 1261 b 516 1176 481 1220 492 1192 b 604 1153 540 1161 569 1153 b 708 1180 642 1153 677 1162 b 767 1261 740 1198 759 1225 l 828 1261 "},"ŭ":{"ha":801,"x_min":0,"x_max":0,"o":"m 506 0 b 513 58 507 18 510 37 b 521 111 515 80 518 97 l 518 111 b 422 17 493 71 461 40 b 296 -17 382 -5 340 -17 b 131 37 225 -17 171 1 b 72 182 92 72 72 121 b 74 215 72 193 73 204 b 79 251 76 226 77 238 l 150 650 l 243 650 l 179 290 b 171 208 174 261 171 233 b 203 101 171 163 181 127 b 315 63 224 75 262 62 b 390 78 340 63 365 68 b 460 124 415 88 439 103 b 518 203 482 145 501 172 b 554 317 535 235 547 273 l 613 650 l 706 650 l 617 143 b 605 75 613 125 609 103 b 596 0 601 47 598 22 l 506 0 m 672 983 b 645 909 668 956 659 932 b 595 851 632 886 615 867 b 527 813 575 834 553 822 b 447 800 502 804 475 800 b 313 846 390 800 345 815 b 264 983 280 876 264 922 l 325 983 b 360 899 325 943 337 914 b 449 875 384 883 413 875 b 553 902 487 875 521 884 b 611 983 584 920 604 947 l 672 983 "},"Ů":{"ha":986,"x_min":0,"x_max":0,"o":"m 432 -25 b 281 1 373 -25 322 -16 b 181 70 240 19 206 42 b 124 166 155 98 136 130 b 107 274 113 202 107 238 b 115 367 107 306 110 337 l 224 983 l 322 983 l 215 378 b 207 293 210 348 207 320 b 219 204 207 262 211 232 b 258 131 227 176 240 152 b 328 80 276 109 299 92 b 438 61 358 67 394 61 b 570 87 489 61 534 70 b 662 156 607 104 637 127 b 720 258 686 185 706 219 b 753 378 734 296 745 336 l 860 983 l 958 983 l 850 367 b 813 237 843 326 830 283 b 740 110 796 191 772 149 b 617 13 708 71 667 39 b 432 -25 567 -12 505 -25 m 604 1047 b 519 1078 569 1047 541 1057 b 486 1157 497 1098 486 1125 b 497 1217 486 1178 490 1198 b 528 1267 505 1236 515 1253 b 576 1301 542 1282 558 1293 b 636 1314 594 1310 614 1314 b 722 1283 671 1314 700 1304 b 754 1204 743 1263 754 1237 b 713 1093 754 1161 740 1124 b 604 1047 685 1063 649 1047 m 707 1201 b 688 1253 707 1222 700 1239 b 633 1274 675 1267 656 1274 b 563 1240 605 1274 581 1263 b 535 1161 544 1218 535 1192 b 554 1109 535 1140 541 1122 b 607 1089 567 1096 585 1089 b 679 1122 637 1089 661 1100 b 707 1201 698 1144 707 1171 "},"ů":{"ha":801,"x_min":0,"x_max":0,"o":"m 506 0 b 513 58 507 18 510 37 b 521 111 515 80 518 97 l 518 111 b 422 17 493 71 461 40 b 296 -17 382 -5 340 -17 b 131 37 225 -17 171 1 b 72 182 92 72 72 121 b 74 215 72 193 73 204 b 79 251 76 226 77 238 l 150 650 l 243 650 l 179 290 b 171 208 174 261 171 233 b 203 101 171 163 181 127 b 315 63 224 75 262 62 b 390 78 340 63 365 68 b 460 124 415 88 439 103 b 518 203 482 145 501 172 b 554 317 535 235 547 273 l 613 650 l 706 650 l 617 143 b 605 75 613 125 609 103 b 596 0 601 47 598 22 l 506 0 m 454 769 b 369 800 419 769 391 780 b 336 879 347 820 336 847 b 347 940 336 900 340 921 b 378 990 355 959 365 975 b 426 1024 392 1004 408 1015 b 486 1036 444 1032 464 1036 b 572 1006 521 1036 550 1026 b 604 926 593 985 604 959 b 563 815 604 883 590 846 b 454 769 535 785 499 769 m 557 924 b 538 975 557 944 550 961 b 483 996 525 989 506 996 b 413 963 455 996 431 985 b 385 883 394 940 385 914 b 404 831 385 862 391 845 b 457 811 417 818 435 811 b 529 844 487 811 511 822 b 557 924 548 867 557 893 "},"Ű":{"ha":986,"x_min":0,"x_max":0,"o":"m 432 -25 b 281 1 373 -25 322 -16 b 181 70 240 19 206 42 b 124 166 155 98 136 130 b 107 274 113 202 107 238 b 115 367 107 306 110 337 l 224 983 l 322 983 l 215 378 b 207 293 210 348 207 320 b 219 204 207 262 211 232 b 258 131 227 176 240 152 b 328 80 276 109 299 92 b 438 61 358 67 394 61 b 570 87 489 61 534 70 b 662 156 607 104 637 127 b 720 258 686 185 706 219 b 753 378 734 296 745 336 l 860 983 l 958 983 l 850 367 b 813 237 843 326 830 283 b 740 110 796 191 772 149 b 617 13 708 71 667 39 b 432 -25 567 -12 505 -25 m 429 1061 l 606 1261 l 732 1261 l 511 1061 m 667 1061 l 842 1261 l 968 1261 l 749 1061 "},"ű":{"ha":801,"x_min":0,"x_max":0,"o":"m 506 0 b 513 58 507 18 510 37 b 521 111 515 80 518 97 l 518 111 b 422 17 493 71 461 40 b 296 -17 382 -5 340 -17 b 131 37 225 -17 171 1 b 72 182 92 72 72 121 b 74 215 72 193 73 204 b 79 251 76 226 77 238 l 150 650 l 243 650 l 179 290 b 171 208 174 261 171 233 b 203 101 171 163 181 127 b 315 63 224 75 262 62 b 390 78 340 63 365 68 b 460 124 415 88 439 103 b 518 203 482 145 501 172 b 554 317 535 235 547 273 l 613 650 l 706 650 l 617 143 b 605 75 613 125 609 103 b 596 0 601 47 598 22 l 506 0 m 276 783 l 453 983 l 579 983 l 358 783 m 514 783 l 689 983 l 815 983 l 596 783 "},"Ų":{"ha":986,"x_min":0,"x_max":0,"o":"m 432 -25 b 281 1 373 -25 322 -16 b 181 70 240 19 206 42 b 124 166 155 98 136 130 b 107 274 113 202 107 238 b 115 367 107 306 110 337 l 224 983 l 322 983 l 215 378 b 207 293 210 348 207 320 b 219 204 207 262 211 232 b 258 131 227 176 240 152 b 328 80 276 109 299 92 b 438 61 358 67 394 61 b 570 87 489 61 534 70 b 662 156 607 104 637 127 b 720 258 686 185 706 219 b 753 378 734 296 745 336 l 860 983 l 958 983 l 850 367 b 819 251 844 331 833 292 b 759 135 804 211 784 172 b 663 40 734 99 701 67 b 521 -17 624 12 576 -6 b 435 -106 486 -48 457 -78 b 403 -186 414 -134 403 -161 b 422 -225 403 -206 409 -219 b 463 -235 434 -231 448 -235 b 503 -227 475 -235 489 -232 b 539 -204 517 -222 529 -214 l 556 -260 b 494 -297 537 -275 516 -288 b 428 -310 471 -305 449 -310 b 352 -286 400 -310 375 -302 b 318 -214 329 -270 318 -246 b 329 -158 318 -194 322 -176 b 358 -108 337 -141 346 -124 b 397 -62 369 -91 382 -76 b 440 -25 411 -49 425 -36 l 432 -25 l 432 -25 "},"ų":{"ha":801,"x_min":0,"x_max":0,"o":"m 585 -260 b 523 -297 566 -275 546 -288 b 457 -310 500 -305 478 -310 b 381 -286 429 -310 404 -302 b 347 -214 359 -270 347 -246 b 363 -148 347 -191 352 -169 b 401 -90 373 -127 386 -108 b 452 -40 417 -72 434 -55 b 504 0 470 -24 488 -11 l 506 0 b 513 58 507 18 510 37 b 521 111 515 80 518 97 l 518 111 b 422 17 493 71 461 40 b 296 -17 382 -5 340 -17 b 131 37 225 -17 171 1 b 72 182 92 72 72 121 b 74 215 72 193 73 204 b 79 251 76 226 77 238 l 150 650 l 243 650 l 179 290 b 171 208 174 261 171 233 b 203 101 171 163 181 127 b 315 63 224 75 262 62 b 390 78 340 63 365 68 b 460 124 415 88 439 103 b 518 203 482 145 501 172 b 554 317 535 235 547 273 l 613 650 l 706 650 l 617 143 b 605 75 613 125 609 103 b 596 0 601 47 598 22 l 571 0 b 471 -99 530 -34 497 -67 b 432 -186 445 -130 432 -159 b 451 -225 432 -206 438 -219 b 492 -235 463 -231 477 -235 b 532 -227 505 -235 518 -232 b 568 -204 546 -222 558 -214 l 585 -260 "},"Ŵ":{"ha":1333,"x_min":0,"x_max":0,"o":"m 306 138 l 715 983 l 835 983 l 917 138 l 919 138 l 1324 983 l 1429 983 l 950 0 l 833 0 l 754 847 l 751 847 l 336 0 l 219 0 l 118 983 l 224 983 l 303 138 m 907 1061 l 818 1211 l 676 1061 l 581 1061 l 768 1261 l 879 1261 l 994 1061 "},"ŵ":{"ha":1018,"x_min":0,"x_max":0,"o":"m 214 122 l 217 122 l 492 650 l 581 650 l 657 122 l 661 122 l 921 650 l 1021 650 l 689 0 l 589 0 l 515 526 l 513 526 l 242 0 l 143 0 l 72 650 l 169 650 m 675 783 l 586 933 l 444 783 l 349 783 l 536 983 l 647 983 l 763 783 "},"Ŷ":{"ha":774,"x_min":0,"x_max":0,"o":"m 244 0 l 319 424 l 69 983 l 186 983 l 382 506 l 775 983 l 899 983 l 418 424 l 343 0 m 607 1061 l 518 1211 l 376 1061 l 281 1061 l 468 1261 l 579 1261 l 694 1061 "},"ŷ":{"ha":671,"x_min":0,"x_max":0,"o":"m 265 103 l 582 650 l 686 650 l 194 -168 b 100 -288 164 -218 132 -258 b -21 -333 68 -318 27 -333 b -100 -325 -48 -333 -74 -331 l -86 -239 b -25 -250 -66 -246 -45 -250 b 52 -220 5 -250 30 -240 b 117 -135 74 -200 95 -172 l 197 1 l 61 650 l 158 650 l 263 103 m 510 783 l 421 933 l 279 783 l 183 783 l 371 983 l 482 983 l 597 783 "},"Ź":{"ha":794,"x_min":0,"x_max":0,"o":"m 110 88 l 692 88 l 676 0 l -35 0 l -19 83 l 701 896 l 149 896 l 164 983 l 844 983 l 829 900 m 432 1061 l 607 1261 l 729 1261 l 510 1061 "},"ź":{"ha":614,"x_min":0,"x_max":0,"o":"m 107 82 l 510 82 l 496 0 l -32 0 l -21 67 l 456 571 l 88 571 l 103 650 l 597 650 l 585 583 m 288 783 l 463 983 l 585 983 l 365 783 "},"Ż":{"ha":794,"x_min":0,"x_max":0,"o":"m 110 88 l 692 88 l 676 0 l -35 0 l -19 83 l 701 896 l 149 896 l 164 983 l 844 983 l 829 900 m 596 1179 b 577 1132 596 1161 590 1145 b 531 1113 565 1119 549 1113 b 485 1129 513 1113 498 1118 b 467 1175 473 1140 467 1156 b 487 1224 467 1194 473 1211 b 533 1243 500 1237 516 1243 b 578 1226 551 1243 566 1237 b 596 1179 590 1214 596 1199 "},"ż":{"ha":614,"x_min":0,"x_max":0,"o":"m 107 82 l 510 82 l 496 0 l -32 0 l -21 67 l 456 571 l 88 571 l 103 650 l 597 650 l 585 583 m 450 901 b 431 854 450 883 444 867 b 385 835 419 841 403 835 b 340 851 367 835 352 840 b 321 897 327 863 321 878 b 341 946 321 917 328 933 b 388 965 354 959 370 965 b 432 948 405 965 420 959 b 450 901 444 936 450 921 "},"ƒ":{"ha":806,"x_min":0,"x_max":0,"o":"m 436 507 l 257 18 b 223 -57 248 -7 236 -32 b 173 -125 209 -82 193 -105 b 101 -174 153 -145 129 -162 b 4 -193 74 -187 41 -193 b -54 -185 -16 -193 -36 -191 b -103 -160 -73 -180 -89 -172 l -47 -93 b -14 -106 -37 -99 -26 -103 b 22 -110 -2 -108 10 -110 b 78 -97 44 -110 62 -105 b 118 -62 94 -88 107 -76 b 147 -15 129 -49 139 -33 b 168 38 154 2 162 20 l 338 507 l 188 507 l 201 582 l 367 582 l 439 782 b 476 864 449 811 461 838 b 527 933 490 890 507 913 b 597 982 547 954 570 970 b 689 1000 623 994 654 1000 b 814 960 737 1000 779 987 l 754 893 b 719 910 744 900 732 906 b 679 917 706 915 693 917 b 619 900 656 917 636 911 b 576 858 603 889 588 875 b 545 806 563 842 553 824 b 526 756 537 787 531 770 l 465 582 l 615 582 l 601 507 "},"Ș":{"ha":783,"x_min":0,"x_max":0,"o":"m 682 831 b 606 896 664 856 639 878 b 489 922 572 913 533 922 b 403 910 460 922 431 918 b 325 874 374 903 348 891 b 269 813 302 858 283 838 b 247 725 254 789 247 759 b 261 658 247 699 252 677 b 299 610 270 640 283 624 b 356 574 316 596 334 584 b 426 544 378 563 401 554 b 514 507 455 533 484 521 b 594 456 544 493 570 476 b 653 384 619 435 638 411 b 675 288 668 357 675 325 b 657 183 675 254 669 219 b 597 81 645 146 625 112 b 488 5 569 50 533 25 b 319 -25 442 -15 386 -25 b 146 12 259 -25 201 -13 b 18 121 90 36 48 73 l 107 178 b 190 95 125 145 153 118 b 324 61 227 72 272 61 b 419 76 357 61 389 66 b 498 117 449 85 475 99 b 551 183 521 135 538 157 b 571 269 564 209 571 238 b 554 342 571 297 565 321 b 509 394 543 362 528 380 b 444 433 490 409 468 422 b 365 465 419 444 393 455 b 283 501 338 475 310 488 b 213 551 256 515 233 532 b 163 620 192 571 176 594 b 144 713 151 647 144 677 b 168 829 144 754 152 793 b 236 923 184 865 206 897 b 346 985 266 949 302 970 b 494 1008 389 1001 439 1008 b 665 976 561 1008 618 997 b 767 892 711 954 745 926 l 682 831 m 163 -319 l 303 -62 l 401 -62 l 242 -319 "},"ș":{"ha":617,"x_min":0,"x_max":0,"o":"m 492 507 b 433 566 479 531 459 551 b 340 589 407 581 376 589 b 288 583 324 589 306 587 b 238 565 270 580 253 574 b 201 533 223 557 210 546 b 186 483 191 519 186 503 b 195 440 186 466 189 451 b 221 412 201 429 210 420 b 261 391 232 404 245 397 b 315 374 277 385 295 379 b 461 303 379 355 428 332 b 511 183 494 275 511 235 b 488 92 511 148 503 118 b 428 30 472 67 452 46 b 347 -6 404 14 377 2 b 260 -17 318 -13 288 -17 b 106 14 205 -17 154 -6 b -6 107 59 34 21 65 l 75 160 b 146 91 91 133 114 110 b 256 63 177 72 214 63 b 315 69 276 63 296 65 b 367 88 335 73 352 79 b 404 123 383 97 395 109 b 418 174 413 137 418 154 b 377 252 418 208 404 234 b 260 304 350 270 311 288 b 201 326 240 311 221 318 b 149 359 182 335 164 346 b 110 408 133 372 120 389 b 96 476 101 427 96 450 b 119 563 96 510 103 538 b 177 622 134 587 153 606 b 257 656 201 637 227 648 b 346 667 287 663 316 667 b 480 638 396 667 441 657 b 565 560 519 618 548 592 l 492 507 m 74 -319 l 214 -62 l 313 -62 l 153 -319 "},"Ț":{"ha":760,"x_min":0,"x_max":0,"o":"m 249 0 l 407 896 l 78 896 l 93 983 l 851 983 l 836 896 l 506 896 l 347 0 m 128 -319 l 268 -62 l 367 -62 l 207 -319 "},"ț":{"ha":426,"x_min":0,"x_max":0,"o":"m 244 572 l 176 192 b 172 147 174 175 172 160 b 194 86 172 117 180 96 b 253 71 209 76 229 71 b 296 76 266 71 280 73 b 332 92 312 80 324 85 l 321 11 b 274 -3 309 5 293 0 b 214 -8 255 -7 235 -8 b 166 -3 198 -8 182 -6 b 122 17 150 1 135 8 b 88 57 108 27 97 40 b 75 121 79 74 75 95 b 79 165 75 134 76 149 l 151 572 l 17 572 l 32 650 l 164 650 l 196 833 l 289 833 l 257 650 l 436 650 l 421 572 m 28 -319 l 168 -62 l 267 -62 l 107 -319 "},"ˆ":{"ha":333,"x_min":0,"x_max":0,"o":"m 349 783 l 260 933 l 118 783 l 22 783 l 210 983 l 321 983 l 436 783 "},"ˇ":{"ha":333,"x_min":0,"x_max":0,"o":"m 174 783 l 58 983 l 146 983 l 235 833 l 376 983 l 472 983 l 285 783 "},"ˉ":{"ha":333,"x_min":0,"x_max":0,"o":"m 51 1111 l 64 1186 l 439 1186 l 426 1111 "}}}
